<?xml version="1.0" encoding="UTF-8"?>
<svg id="_레이어_1" data-name="레이어 1" xmlns="http://www.w3.org/2000/svg" viewBox="0 0 273.74 121.96">
  <defs>
    <style>
      .cls-1 {
        fill: #1f8331;
        stroke: #000;
        stroke-miterlimit: 10;
        stroke-width: 1.02px;
      }
    </style>
  </defs>
  <rect class="cls-1" x=".51" y=".51" width="272.72" height="121.45"/>
  <g>
    <path d="M17.35,104.39h7.61v-36.77h-6.24v-5.24c3.26-.93,5.58-2.15,7.57-4.02h4.11v46.03h6.81v6.82h-19.86v-6.82Z"/>
    <path d="M42.31,106.4c10.26-13.79,15.56-24.06,15.56-32.74,0-5.74-2.03-9.69-5.91-9.69-2.74,0-5.01,2.66-6.86,5.89l-3.07-4.6c2.98-4.88,6.05-7.9,10.59-7.9,6.38,0,10.5,6.32,10.5,15.87,0,10.2-5.34,20.75-12.72,31.45,1.8-.29,3.97-.5,5.67-.5h8.7v7.04h-22.46v-4.81Z"/>
    <path d="M68.46,105.11l2.6-5.39c1.99,3.02,4.49,5.67,8.13,5.67,3.92,0,6.9-4.24,6.9-11.27s-2.65-11.06-6.62-11.06c-2.22,0-3.55,1-5.58,3.02l-2.65-2.66,1.04-25.06h17.64v6.97h-12.91l-.8,13.57c1.46-1.15,2.88-1.87,4.78-1.87,5.82,0,10.59,5.24,10.59,16.8s-5.63,18.31-11.73,18.31c-5.49,0-8.94-3.38-11.4-7.04Z"/>
    <path d="M95.4,105.11l2.6-5.39c1.99,3.02,4.49,5.67,8.13,5.67,3.92,0,6.9-4.24,6.9-11.27s-2.65-11.06-6.62-11.06c-2.22,0-3.55,1-5.58,3.02l-2.65-2.66,1.04-25.06h17.64v6.97h-12.91l-.8,13.57c1.46-1.15,2.88-1.87,4.78-1.87,5.82,0,10.59,5.24,10.59,16.8s-5.63,18.31-11.73,18.31c-5.49,0-8.94-3.38-11.4-7.04Z"/>
    <path d="M123.3,87.87h12.48v6.1h-12.48v-6.1Z"/>
    <path d="M139.23,105.11l2.6-5.39c1.99,3.02,4.49,5.67,8.13,5.67,3.92,0,6.9-4.24,6.9-11.27s-2.65-11.06-6.62-11.06c-2.22,0-3.55,1-5.58,3.02l-2.65-2.66,1.04-25.06h17.64v6.97h-12.91l-.8,13.57c1.46-1.15,2.88-1.87,4.78-1.87,5.82,0,10.59,5.24,10.59,16.8s-5.63,18.31-11.73,18.31c-5.49,0-8.94-3.38-11.4-7.04Z"/>
    <path d="M166.99,106.4c10.26-13.79,15.56-24.06,15.56-32.74,0-5.74-2.03-9.69-5.91-9.69-2.74,0-5.01,2.66-6.86,5.89l-3.07-4.6c2.98-4.88,6.05-7.9,10.59-7.9,6.38,0,10.5,6.32,10.5,15.87,0,10.2-5.34,20.75-12.72,31.45,1.8-.29,3.97-.5,5.67-.5h8.7v7.04h-22.46v-4.81Z"/>
    <path d="M193.18,104.89l2.65-5.31c2.03,3.16,4.63,5.82,8.23,5.82,3.93,0,6.62-3.3,6.62-8.76,0-5.89-2.46-9.69-10.31-9.69v-6.1c6.86,0,9.13-3.95,9.13-9.26,0-4.67-2.03-7.61-5.34-7.68-2.7.07-4.96,2.08-6.95,5.03l-2.84-5.17c2.74-3.73,5.96-6.39,9.98-6.39,6.24,0,10.64,4.88,10.64,13.64,0,6.1-2.32,10.34-6.01,12.42v.36c4.02,1.51,7.19,6.1,7.19,13.21,0,9.55-5.25,15.15-11.63,15.15-5.48,0-9.03-3.3-11.35-7.25Z"/>
    <path d="M221.03,84.57c0-18.31,4.4-27.21,11.25-27.21s11.25,8.98,11.25,27.21-4.45,27.57-11.25,27.57-11.25-9.19-11.25-27.57ZM238.33,84.57c0-15.15-2.51-20.68-6.05-20.68s-6.05,5.53-6.05,20.68,2.51,21.04,6.05,21.04,6.05-5.75,6.05-21.04Z"/>
  </g>
  <g>
    <path d="M64.81,28.14c-9.21-1.53-16.04-4.65-19.58-8.75-3.63,4.38-10.54,7.85-20.11,9.52l-4.43-3.65c12.58-2.17,19.76-7.53,19.76-13.08v-3.92h9.3v3.92c0,5.37,7.18,10.37,19.49,12.36l-4.43,3.61ZM34.15,31.93h52.36v14.97h-52.36v-14.97ZM43.1,43.21h34.46v-7.58h-34.46v7.58ZM86.51,6.72v23.09h-9.12V6.72h9.12Z"/>
    <path d="M174.57,34.23h-31.98v13.22h-9.12v-13.22h-31.45v-3.74h72.56v3.74ZM165.62,26.07h-54.84V8.25h9.12v5.14h36.59v-5.14h9.12v17.82ZM156.5,17.14h-36.59v5.19h36.59v-5.19Z"/>
    <path d="M256.07,27.51v3.7h-72.65v-3.7h72.65ZM237.91,11.18h-45.27v-3.61h54.31v10.19h-45.18v3.25h46.78v3.56h-55.72v-10.15h45.09v-3.25ZM192.99,34.32h54.13v12.58h-54.13v-12.58ZM201.94,43.21h36.23v-5.19h-36.23v5.19Z"/>
  </g>
</svg>