<?xml version="1.0" encoding="UTF-8"?>
<svg id="_레이어_1" data-name="레이어 1" xmlns="http://www.w3.org/2000/svg" viewBox="0 0 274.65 277.83">
  <defs>
    <style>
      .cls-1 {
        stroke: #fff;
        stroke-miterlimit: 10;
        stroke-width: 2px;
      }

      .cls-1, .cls-2 {
        fill: #1f8331;
      }

      .cls-3 {
        fill: #fff;
      }
    </style>
  </defs>
  <g>
    <path class="cls-1" d="M70.19,212.2l-5.28.22c.28-2.66.03-5.47-1.91-7.94-2.17-2.75-5.44-3.3-8.55-.85-3.07,2.42-3.38,5.56-1.27,8.25,1.24,1.57,2.31,2.12,4.52,2.87l.32,3.64-13.4,9.41-11.16-14.16,4.4-3.47,7.58,9.62,6.01-3.93c-1.32-.64-2.3-1.37-3.26-2.59-3.5-4.43-3.78-10.24,1.97-14.77,5.9-4.65,12.73-2.97,16.59,1.93,3.3,4.18,3.85,8.27,3.44,11.78Z"/>
    <path class="cls-1" d="M39.29,166.66l1.38,3.76,8.2-3.02,2.15,5.85-8.2,3.02,4.95,13.46-4.27,1.57-23.48-4.75-2.77-7.52,18.63-6.85-1.38-3.76,4.79-1.76ZM38.04,178.03l-6.45,2.37c-1.84.68-4.76,1.56-6.63,2.15l.06.17c1.95.16,4.02.37,6.05.63l9.67,2.02-2.7-7.35Z"/>
    <path class="cls-1" d="M39.2,154.57c1.27-1.28,2.24-3.41,2.17-5.41-.14-3.78-3.12-6.81-11.59-6.77,2.34,1.64,3.85,4.46,3.94,6.78.21,5.6-3.1,9.77-10.24,10.04-6.92.25-11.41-4.41-11.63-10.18-.24-6.37,4.56-12.29,16.25-12.72,12.74-.47,18.47,5.56,18.72,12.25.16,4.19-1.51,7.3-3.48,9.38l-4.13-3.36ZM25.09,142.66c-6.12.82-8.31,3.22-8.2,6.09.09,2.5,2.21,4.47,6.35,4.32,3.96-.15,5.75-2.08,5.65-4.99-.07-1.82-1.14-3.88-3.8-5.42Z"/>
    <path class="cls-1" d="M32.01,125.14l2.84-12.1,4.65,1.09-2.84,12.1-4.65-1.09Z"/>
    <path class="cls-1" d="M47.71,105.93l3.44-6.37-18.75-10.12-2.9,5.37-3.65-1.97c1.04-3.27,1.38-5.72,1.24-8.23l2.36-4.37,24.88,13.43,3.01-5.57,4.77,2.57-9.62,17.83-4.77-2.57Z"/>
    <path class="cls-1" d="M63.61,82.19c1.01-12.24.59-20.56-2.97-24.33-2.35-2.48-5.11-2.68-7.43-.49-1.79,1.69-2.18,4.26-2.12,6.77l-5.15-.14c0-4.51.92-7.9,4.26-11.06,4.63-4.38,10.52-4.32,14.84.24,4.2,4.43,5.03,12.67,4.7,21.25,1.1-1.29,2.59-2.96,3.72-4.02l5.32-5.04,3.88,4.1-16.4,15.53-2.66-2.81Z"/>
    <path class="cls-1" d="M80.78,50.41c-4.98-10.53-3.3-17.62,2.91-20.56,6.17-2.92,12.74.32,17.7,10.81s3.42,17.87-2.76,20.79c-6.21,2.94-12.9-.55-17.86-11.04ZM95.67,43.36c-4.03-8.52-7.17-10.05-9.76-8.83-2.63,1.25-3.44,4.65.59,13.17,4.05,8.56,7.27,10.26,9.9,9.01,2.59-1.23,3.32-4.79-.72-13.35Z"/>
    <path class="cls-1" d="M136.88,42.59l-3.97.51,1.11,8.67-6.19.79-1.11-8.67-14.22,1.82-.58-4.52,9.87-21.82,7.95-1.02,2.52,19.69,3.97-.51.65,5.06ZM126.07,38.84l-.87-6.82c-.25-1.94-.46-4.99-.61-6.94l-.18.02c-.59,1.87-1.25,3.83-1.97,5.76l-4.13,8.97,7.77-.99Z"/>
  </g>
  <g>
    <path class="cls-1" d="M204.76,74.67l6.21-.24c-.25,2.6.09,5.3,1.73,7.39,2,2.55,4.63,3.06,7.36.92,2.66-2.08,2.82-4.79,1.05-7.05-1.14-1.45-1.98-1.94-4.19-2.72l-.36-4.18,13.56-9.54,11.6,14.8-5.24,4.11-7.36-9.38-4.77,3.11c1.14.65,1.89,1.32,2.67,2.31,3.5,4.46,3.82,10.27-1.88,14.74-5.92,4.63-12.85,2.87-16.82-2.2-3.3-4.21-3.99-8.37-3.57-12.07Z"/>
    <path class="cls-1" d="M235.49,121.08l-1.28-3.51-7.86,2.87-2.56-7.02,7.86-2.87-4.81-13.19,5.2-1.9,22.39,4.25,3.38,9.26-17.89,6.52,1.28,3.51-5.71,2.08ZM237.35,108.47l4.61-1.68c1.99-.72,5.07-1.61,7.08-2.25l-.06-.17c-2.07-.16-4.2-.34-6.29-.58l-7.53-1.33,2.19,6Z"/>
    <path class="cls-1" d="M236.71,132.73c-1.18,1.17-2.18,3.27-2.12,5.21.12,3.42,2.64,6.03,9.98,6.09-2.21-1.54-3.53-4.33-3.59-6.27-.2-5.62,2.99-9.92,10.18-10.17,7.11-.25,11.51,4.64,11.72,10.62.22,6.34-4.38,12.67-16.52,13.09-12.14.42-17.99-5.77-18.22-12.6-.16-4.5,1.62-7.8,3.66-9.99l4.91,4.02ZM249.97,143.71c5.51-.87,7.01-3.04,6.94-5.1-.07-2.11-1.62-3.86-5.49-3.73-3.6.12-4.84,1.97-4.76,4.22.05,1.62.97,3.39,3.31,4.61Z"/>
    <path class="cls-1" d="M243.35,161.8l-2.92,12.4-5.48-1.29,2.92-12.4,5.48,1.29Z"/>
    <path class="cls-1" d="M228.44,180.99l-3.37,6.26,16.76,9.02,2.92-5.43,4.36,2.35c-1.11,3.49-1.43,5.98-1.27,8.72l-2.79,5.19-23.77-12.8-2.86,5.31-5.71-3.07,10.02-18.62,5.71,3.07Z"/>
    <path class="cls-1" d="M212.2,204.92c-.83,11.28-.72,19.56,2.63,23.08,2.11,2.22,4.5,2.25,6.42.42,1.66-1.58,1.91-3.93,1.88-6.25l6.14.12c0,4.77-1.03,8.12-4.49,11.41-4.7,4.46-10.81,4.56-15.21-.07-3.97-4.17-4.75-12.18-4.6-19.47-1.05,1.31-2.56,3.05-3.64,4.08l-4.47,4.25-4.65-4.89,16.83-16,3.16,3.33Z"/>
    <path class="cls-1" d="M194.78,236.17c4.95,10.4,3.08,17.57-3.29,20.61-6.38,3.04-13.2-.09-18.12-10.41-4.95-10.4-3.2-17.91,3.18-20.95,6.38-3.04,13.28.36,18.23,10.76ZM180.2,243.11c3.93,8.25,6.49,9.12,8.64,8.1,2.15-1.03,3.05-3.54-.88-11.79-3.95-8.29-6.58-9.42-8.74-8.4s-2.97,3.81.97,12.09Z"/>
    <path class="cls-1" d="M137.87,244.06l3.7-.48-1.08-8.3,7.41-.97,1.08,8.3,13.92-1.82.72,5.49-9.03,20.92-9.77,1.27-2.46-18.87-3.7.48-.79-6.02ZM149.77,248.63l.63,4.86c.27,2.1.46,5.29.65,7.4l.18-.02c.6-1.98,1.24-4.02,1.94-6.01l2.94-7.05-6.34.83Z"/>
  </g>
  <g>
    <path class="cls-2" d="M96.38,258.34l9.1-19.88-.44-.2-9.14,19.96-6.04-2.77,9.12-19.92-3.12-1.43-3.25,7.09c.96,2.91.69,6.24-.76,9.41-2.12,4.63-6.16,7.5-10.55,7.5-1.47,0-2.93-.32-4.32-.96-2.78-1.27-4.8-3.57-5.67-6.48-.86-2.84-.57-6.07.82-9.1,1.43-3.13,3.75-5.49,6.56-6.7l3.27-7.14-3.89-1.78,3.36-7.34,33.21,15.2-9.12,19.92.61.28,9.62-21.01,6.09,2.79-12.94,28.27-12.49-5.72ZM82.11,241.67c-1.5,0-2.84,1.02-3.65,2.81-.56,1.22-.7,2.38-.4,3.36.3.99,1.02,1.75,2.14,2.26.58.27,1.16.4,1.72.4,1.5,0,2.83-1.01,3.63-2.77,1.14-2.49.49-4.65-1.68-5.64-.6-.28-1.19-.42-1.76-.42ZM86.14,234.66c.33.11.64.23.96.38.28.13.55.26.79.4l1.88-4.11-1.74-.8-1.89,4.13Z"/>
    <path class="cls-3" d="M81.9,219.94l19.29,8.83-2.53,5.52-3.31-1.51-3.83,8.37c1,2.68.86,5.86-.6,9.04-1.99,4.34-5.71,6.92-9.65,6.92-1.3,0-2.62-.28-3.9-.87-5.23-2.39-7.01-8.47-4.36-14.25,1.44-3.14,3.75-5.32,6.39-6.34l3.85-8.41-3.89-1.78,2.53-5.52M88.31,236.9l2.78-6.07-3.56-1.63-2.8,6.11c.64.14,1.27.33,1.94.63.59.27,1.15.58,1.64.95M81.91,251.5c1.91,0,3.57-1.23,4.54-3.36,1.32-2.89.59-5.7-2.18-6.97-.75-.34-1.48-.51-2.17-.51-1.94,0-3.59,1.27-4.56,3.39-1.32,2.89-.61,5.64,2.24,6.95.73.33,1.45.49,2.13.49M102.83,229.52l10.46,4.79-9.12,19.92,2.43,1.11,9.62-21.01,4.27,1.95-12.11,26.45-10.67-4.89,9.1-19.88-2.26-1.03-9.14,19.96-4.23-1.93,11.65-25.44M80.92,217.29l-.83,1.82-2.53,5.52-.83,1.82,1.82.83,2.07.95-2.7,5.89c-2.87,1.34-5.24,3.81-6.72,7.04-1.49,3.25-1.8,6.73-.87,9.8.96,3.18,3.17,5.7,6.22,7.1,1.52.7,3.12,1.05,4.74,1.05,2.81,0,5.49-1.07,7.68-2.96l1.38.63,4.23,1.93,1.82.83.04-.08.44.2,10.67,4.89,1.82.83.83-1.82,12.11-26.45.83-1.82-1.82-.83-4.27-1.95-1.82-.83-.5,1.09-.61-.28-10.46-4.79-1.82-.83-19.11-8.75-1.82-.83h0ZM93.67,241.27l2.67-5.84,1.3.6-3.52,7.69c-.07-.84-.22-1.66-.45-2.45h0ZM81.91,249.5c-.41,0-.85-.1-1.3-.31-2.31-1.06-1.78-3.15-1.25-4.3.38-.83,1.24-2.23,2.74-2.23.42,0,.87.11,1.34.32,2.36,1.08,1.62,3.38,1.19,4.32-.37.82-1.23,2.19-2.73,2.19h0Z"/>
  </g>
  <g>
    <path class="cls-2" d="M178.4,68.42l.48-1.06c1.19-2.59,2.52-5.5,3.84-8.63l-6.53-2.99c.47,2.12.54,4.38.2,6.73l-.11.75-7.61.97.2-1.31c.96-6.16-1.42-11.04-6.53-13.38l-3.38-1.55,3.44-7.51,3.34,1.53c1.36.62,2.79.94,4.25.94,3.39,0,6.62-1.69,9.36-4.9l.82-.96-16.17-7.4,3.36-7.34,40.49,18.53-3.36,7.34-9.53-4.36-.17.73c-2.12,9.06-6.22,18.17-9.22,24.82l-.44.98-6.73-1.94ZM173.66,49.93c.97,1.41,1.71,2.94,2.2,4.56l2.88-6.29c-1.59.86-3.3,1.44-5.08,1.73ZM185.74,51.23c1.05-2.79,2.11-5.74,2.95-8.67l.29-1.03,4.46,1.61-13.19-6.04,4.24,6.21-.5.58c-1.51,1.77-3.22,3.19-5.08,4.22l6.82,3.12Z"/>
    <path class="cls-3" d="M167.86,23.64l38.67,17.7-2.53,5.52-38.67-17.7,2.53-5.52M180.11,38.67l3.12,4.57c-3.29,3.86-7.26,5.69-11.45,5.89,2.94,3.42,4.39,7.88,3.62,13.2l-5.54.7c1.15-7.37-2.25-12.22-7.11-14.44l-2.47-1.13,2.61-5.69,2.43,1.11c1.45.66,3.03,1.03,4.67,1.03,3.36,0,6.96-1.55,10.12-5.25M189.65,42.83l4.17,1.5c-2.12,9.05-6.23,18.15-9.24,24.83l-4.78-1.38c1.28-2.8,2.78-6.07,4.22-9.56l-7.24-3.31,2.53-5.52,6.99,3.2c1.25-3.28,2.43-6.53,3.35-9.75M166.87,20.99l-.83,1.82-2.53,5.52-.83,1.82,1.82.83,14.05,6.43c-2.53,2.94-5.49,4.5-8.55,4.5-1.32,0-2.61-.29-3.84-.85l-2.43-1.11-1.82-.83-.83,1.82-2.61,5.69-.83,1.82,1.82.83,2.47,1.13c4.67,2.14,6.85,6.63,5.96,12.31l-.41,2.63,2.64-.34,5.54-.7,1.51-.19.22-1.51c.26-1.78.29-3.52.1-5.18l3.93,1.8c-1.19,2.78-2.38,5.37-3.45,7.71l-.97,2.11,2.23.65,4.78,1.38,1.67.48.71-1.58.08-.19c2.96-6.58,7-15.54,9.17-24.55l7.51,3.44,1.82.83.83-1.82,2.53-5.52.83-1.82-1.82-.83-38.67-17.7-1.82-.83h0ZM181.02,47.97c1.34-.94,2.59-2.09,3.74-3.44l.99-1.16-.86-1.26-1.78-2.6,4.78,2.19-.17.59c-.73,2.55-1.63,5.12-2.54,7.59l-4.16-1.9h0ZM175.28,50.62c.49-.12.98-.27,1.46-.44l-.79,1.73c-.2-.44-.43-.87-.67-1.29h0Z"/>
  </g>
</svg>