<?xml version="1.0" encoding="UTF-8"?>
<svg id="_레이어_1" data-name="레이어 1" xmlns="http://www.w3.org/2000/svg" viewBox="0 0 567.19 230.28">
  <defs>
    <style>
      .cls-1 {
        stroke: #fff;
        stroke-width: 6.75px;
      }

      .cls-1, .cls-2 {
        fill: none;
        stroke-miterlimit: 10;
      }

      .cls-2 {
        stroke: #1f8331;
        stroke-width: 2.53px;
      }

      .cls-3 {
        fill: #fff;
      }

      .cls-4 {
        fill: #1f8331;
      }
    </style>
  </defs>
  <g>
    <rect class="cls-1" x="22.55" y="120.26" width="363.5" height="72.28" rx="6.88" ry="6.88"/>
    <rect class="cls-2" x="22.55" y="120.26" width="363.5" height="72.28" rx="6.88" ry="6.88"/>
  </g>
  <g>
    <g>
      <path class="cls-4" d="M117.57,65.09l-4.48-38.62,15.51,1.8,1.67,14.4,5.39.63,1.07,9.23-5.39-.62,1.74,14.98-15.51-1.8ZM100.98,62.03c-1.06,0-2.19-.07-3.37-.21-3.16-.37-6.03-1.15-8.54-2.33-2.54-1.19-4.62-2.71-6.17-4.52-1.6-1.85-2.54-3.93-2.8-6.17l-.39-3.37c-.27-2.31.24-4.31,1.52-5.92,1.24-1.57,3.1-2.7,5.52-3.35.72-.19,1.48-.34,2.28-.44l-11.3-1.31-1.08-9.33,9.27,1.08-.45-3.85,15.51,1.8.45,3.85,9.27,1.08,1.08,9.33-10.56-1.23c.82.28,1.62.6,2.37.96,2.54,1.19,4.61,2.71,6.17,4.51,1.6,1.85,2.54,3.93,2.8,6.18l.39,3.37c.27,2.31-.24,4.31-1.52,5.92-1.24,1.57-3.1,2.7-5.52,3.35-1.47.4-3.13.6-4.93.6h0ZM95.21,44.94c-.39,0-.6.08-.71.14-.07.06-.08.1-.07.19l.73,6.26c.02.16.08.38.43.62.35.26.83.42,1.42.49.16.02.31.03.45.03.39,0,.6-.08.71-.14.07-.05.08-.09.07-.19l-.73-6.26c-.02-.16-.08-.38-.43-.63-.35-.25-.83-.42-1.42-.49-.16-.02-.31-.03-.45-.03Z"/>
      <path class="cls-3" d="M86.58,23.43l13.51,1.57.45,3.85,9.27,1.08.85,7.32-32.04-3.72-.85-7.32,9.27,1.08-.45-3.85M114.21,27.59l13.51,1.57,1.67,14.4,5.39.63.84,7.23-5.39-.63,1.74,14.98-13.51-1.57-4.25-36.61M91.68,36.56c1.03,0,2.11.07,3.26.2,3.06.36,5.81,1.1,8.23,2.24,2.42,1.14,4.37,2.56,5.85,4.27,1.47,1.71,2.33,3.59,2.57,5.65l.39,3.37c.24,2.06-.2,3.79-1.31,5.19-1.11,1.41-2.78,2.41-5,3.01-1.39.37-2.95.56-4.68.56-1.03,0-2.11-.07-3.25-.2-3.07-.36-5.81-1.1-8.23-2.24-2.42-1.14-4.37-2.56-5.85-4.27-1.47-1.71-2.33-3.59-2.57-5.64l-.39-3.37c-.24-2.06.2-3.79,1.31-5.2,1.11-1.41,2.78-2.41,5-3.01,1.39-.37,2.95-.56,4.68-.56M97.45,53.66c.5,0,.9-.09,1.21-.28.42-.25.6-.64.54-1.15l-.73-6.26c-.06-.51-.33-.95-.83-1.31-.49-.36-1.12-.58-1.89-.67-.2-.02-.39-.03-.56-.03-.5,0-.9.09-1.21.28-.42.25-.6.64-.54,1.15l.73,6.26c.06.51.33.95.83,1.31.49.36,1.12.58,1.89.67.2.02.39.03.56.03M84.34,21.19l.29,2.47.16,1.38-6.8-.79-2.47-.29.29,2.47.85,7.32.18,1.55,1.55.18,5.6.65c-1.45.7-2.63,1.63-3.53,2.77-1.44,1.83-2.02,4.06-1.72,6.64l.39,3.37c.28,2.45,1.3,4.7,3.03,6.7,1.65,1.91,3.84,3.51,6.5,4.76,2.6,1.22,5.58,2.03,8.84,2.41,1.21.14,2.38.21,3.48.21,1.89,0,3.63-.21,5.19-.63,2.63-.71,4.66-1.95,6.04-3.69,1.44-1.82,2.02-4.06,1.72-6.64l-.39-3.37c-.28-2.44-1.3-4.7-3.03-6.7-1.02-1.18-2.25-2.25-3.67-3.19l3.6.42,2.47.29-.29-2.47-.85-7.32-.18-1.55-1.55-.18-7.72-.9-.27-2.31-.18-1.55-1.55-.18-13.51-1.57-2.47-.29h0ZM96.12,51.33l-.63-5.39s.03,0,.04,0c.42.05.75.15.95.31.02.01.03.02.04.03l.63,5.39s-.03,0-.04,0c-.42-.05-.74-.15-.95-.3-.02-.01-.03-.02-.04-.03h0ZM111.97,25.35l.29,2.47,4.25,36.61.18,1.55,1.55.18,13.51,1.57,2.47.29-.29-2.47-1.45-12.51,2.92.34,2.47.29-.29-2.47-.84-7.23-.18-1.55-1.55-.18-3.84-.45-1.49-12.86-.18-1.55-1.55-.18-13.51-1.57-2.47-.29h0Z"/>
    </g>
    <g>
      <path class="cls-4" d="M166.48,80.88l-.89-7.71-19.04-2.21-1.07-9.23,53.73,6.24,1.07,9.24-19.04-2.21.89,7.71-15.66-1.82ZM194.89,66.07c-5-.84-9.61-2.06-13.69-3.64-3.84-1.49-7.18-3.28-9.95-5.35-2.38,1.46-5.41,2.52-9,3.14-2.59.45-5.48.68-8.58.68-1.49,0-3.06-.05-4.67-.16l-.56-.04-4.71-9.13,1.75.12c1.13.08,2.22.12,3.25.12,3.8,0,6.96-.54,9.39-1.61,2.88-1.26,4.21-3.48,4.08-6.79l-.05-1.15,15.37,1.78.14.71c.67,3.54,2.69,6.28,6.16,8.38,3.56,2.16,8.09,3.69,13.48,4.56l1.13.18-2.71,8.31-.83-.14Z"/>
      <path class="cls-3" d="M163.19,43.39l13.51,1.57c.72,3.79,2.93,6.8,6.61,9.04,3.68,2.23,8.3,3.8,13.83,4.69l-2.09,6.41c-4.96-.83-9.46-2.02-13.49-3.59-4.03-1.56-7.45-3.44-10.26-5.63-2.37,1.6-5.44,2.72-9.21,3.38-2.55.44-5.35.66-8.42.66-1.47,0-3.01-.05-4.6-.15l-3.66-7.08c1.16.08,2.26.12,3.32.12,3.95,0,7.21-.56,9.78-1.69,3.26-1.43,4.82-4,4.67-7.73M146.59,62.85l51.73,6,.84,7.23-19.04-2.21.89,7.71-13.65-1.58-.9-7.71-19.04-2.21-.84-7.23M161.13,41.17l.09,2.3c.12,2.94-.96,4.74-3.49,5.85-2.31,1.01-5.34,1.52-8.99,1.52-1.01,0-2.08-.04-3.19-.12l-3.49-.24,1.61,3.11,3.66,7.08.16.3-.66-.08-2.47-.29.29,2.47.84,7.23.18,1.55,1.55.18,17.49,2.03.72,6.16.18,1.55,1.55.18,13.65,1.58,2.47.29-.29-2.47-.61-5.24,16.57,1.92,2.47.29-.29-2.47-.84-7.23-.18-1.55-1.55-.18-1.94-.23.31-.96,2.09-6.41.71-2.19-2.27-.37c-5.26-.85-9.68-2.34-13.13-4.43-3.21-1.95-5.08-4.47-5.7-7.72l-.27-1.42-1.44-.17-13.51-1.57-2.29-.27h0ZM155.2,61.87c2.58-.06,5.01-.29,7.22-.67,3.43-.6,6.37-1.58,8.77-2.94,2.73,1.96,5.97,3.67,9.65,5.09,2.34.91,4.85,1.7,7.5,2.36l-33.14-3.85h0Z"/>
    </g>
    <g>
      <path class="cls-4" d="M217.45,75.46l.23-8.77-19.16-4.85.23-9.06,53.94,13.66-.23,9.06-19.23-4.87-.23,8.77-15.55-3.94ZM235.81,60.65l.23-8.82-35.57-9.01.23-9.06,51.09,12.94-1.28,17.67-14.7-3.72Z"/>
      <path class="cls-3" d="M201.65,35.02l49.09,12.44-1.13,15.68-12.8-3.24.23-8.82-35.57-9.01.18-7.04M199.7,54.03l51.98,13.17-.18,7.04-19.23-4.87-.23,8.77-13.59-3.44.23-8.77-19.16-4.85.18-7.04M199.74,32.5l-.06,2.46-.18,7.04-.04,1.57,1.53.39,34.05,8.62-.19,7.25-.03,1.06-34.63-8.77-2.39-.6-.06,2.46-.18,7.04-.04,1.57,1.53.39,17.63,4.47-.19,7.2-.04,1.57,1.53.39,13.59,3.44,2.39.6.06-2.46.16-6.31,16.84,4.27,2.39.6.06-2.46.18-7.04.04-1.57-1.53-.39-.73-.19.13-1.83,1.13-15.68.12-1.65-1.6-.41-49.09-12.44-2.39-.6h0Z"/>
    </g>
    <g>
      <path class="cls-4" d="M301.19,84.6l-1.04-9.01-19.11-2.22-1.07-9.24,53.73,6.24,1.07,9.24-19.11-2.22,1.04,9.01-15.51-1.8ZM281.21,62.7l-2.12-18.29,15.44,1.79,1.05,9.06,35.42,4.11,1.07,9.24-50.86-5.9Z"/>
      <path class="cls-3" d="M280.21,45.53l13.43,1.56,1.05,9.06,35.42,4.11.84,7.23-48.85-5.67-1.89-16.28M281.08,65.26l51.73,6,.84,7.23-19.11-2.22,1.05,9.01-13.51-1.57-1.05-9.01-19.11-2.22-.84-7.23M277.97,43.29l.29,2.47,1.89,16.28.13,1.14-1.44-.17.29,2.47.84,7.23.18,1.55,1.55.18,17.56,2.04.87,7.46.18,1.55,1.55.18,13.51,1.57,2.47.29-.29-2.47-.76-6.54,16.64,1.93,2.47.29-.29-2.47-.84-7.23-.18-1.55-1.44-.17-.24-2.06-.84-7.23-.18-1.55-1.55-.18-33.87-3.93-.87-7.51-.18-1.55-1.55-.18-13.43-1.56-2.47-.29h0Z"/>
    </g>
    <g>
      <path class="cls-4" d="M356.66,106.3l-.9-7.71-19.04-2.21-1.07-9.24,53.73,6.24,1.07,9.23-19.04-2.21.89,7.71-15.66-1.82ZM385.07,91.49c-5-.84-9.61-2.06-13.69-3.64-3.84-1.49-7.19-3.29-9.95-5.35-2.39,1.46-5.41,2.52-9,3.14-2.59.45-5.48.68-8.58.68-1.49,0-3.06-.05-4.67-.16l-.56-.04-4.71-9.13,1.75.12c1.13.08,2.22.12,3.25.12,3.8,0,6.96-.54,9.39-1.61,2.88-1.26,4.21-3.48,4.08-6.79l-.05-1.15,15.37,1.78.14.71c.67,3.54,2.69,6.28,6.16,8.38,3.56,2.16,8.09,3.69,13.48,4.56l1.13.18-2.71,8.31-.83-.14Z"/>
      <path class="cls-3" d="M353.37,68.8l13.51,1.57c.72,3.79,2.93,6.8,6.61,9.04,3.68,2.23,8.3,3.8,13.83,4.69l-2.09,6.41c-4.96-.83-9.46-2.02-13.49-3.59-4.03-1.56-7.45-3.44-10.26-5.63-2.37,1.6-5.44,2.72-9.21,3.38-2.55.44-5.35.66-8.41.66-1.47,0-3.01-.05-4.6-.15l-3.66-7.08c1.16.08,2.26.12,3.32.12,3.95,0,7.21-.56,9.78-1.69,3.26-1.43,4.82-4,4.67-7.73M336.78,88.27l51.73,6,.84,7.23-19.04-2.21.89,7.71-13.65-1.58-.89-7.71-19.04-2.21-.84-7.23M351.32,66.58l.09,2.3c.12,2.93-.96,4.74-3.49,5.85-2.31,1.01-5.33,1.52-8.99,1.52-1.01,0-2.08-.04-3.19-.12l-3.49-.24,1.61,3.11,3.66,7.08.16.3-.66-.08-2.47-.29.29,2.47.84,7.23.18,1.55,1.55.18,17.49,2.03.71,6.16.18,1.55,1.55.18,13.65,1.58,2.47.29-.29-2.47-.61-5.24,16.57,1.92,2.47.29-.29-2.47-.84-7.23-.18-1.55-1.55-.18-1.94-.23.31-.96,2.09-6.41.71-2.19-2.27-.37c-5.26-.85-9.68-2.34-13.13-4.43-3.21-1.95-5.08-4.47-5.7-7.72l-.27-1.42-1.44-.17-13.51-1.57-2.29-.27h0ZM345.39,87.28c2.58-.06,5.01-.29,7.22-.67,3.43-.6,6.37-1.58,8.77-2.94,2.73,1.96,5.97,3.67,9.65,5.09,2.34.91,4.84,1.69,7.5,2.36l-33.14-3.85h0Z"/>
    </g>
  </g>
  <g>
    <g>
      <path class="cls-4" d="M310.13,131.5v-6.44l.26-.27c3.08-3.08,5.57-5.77,7.4-7.98,1.82-2.19,3.22-4.12,4.16-5.71.92-1.56,1.52-2.91,1.79-4.01.27-1.11.41-2.12.41-3.01,0-1.74-.36-3.14-1.07-4.16-.65-.93-1.55-1.39-2.78-1.39-1.64,0-3.05.35-4.17,1.03-1.22.74-2.3,1.54-3.22,2.39l-1.15,1.06-1.84-7.96.4-.36c1.52-1.36,3.29-2.42,5.26-3.16,1.97-.73,3.99-1.1,5.99-1.1s3.76.35,5.32,1.05c1.56.69,2.91,1.66,4.02,2.88,1.1,1.21,1.96,2.67,2.54,4.34.57,1.65.86,3.46.86,5.38s-.34,3.83-1.02,5.78c-.66,1.91-1.54,3.8-2.61,5.62-1.06,1.8-2.25,3.53-3.53,5.13-.78.97-1.55,1.88-2.32,2.72h10v8.16h-24.74Z"/>
      <path class="cls-3" d="M321.6,91.34c1.85,0,3.5.32,4.95.97,1.45.65,2.69,1.53,3.72,2.66,1.03,1.13,1.81,2.47,2.35,4.03.54,1.56.81,3.25.81,5.08s-.32,3.62-.97,5.48c-.65,1.86-1.49,3.68-2.53,5.46-1.04,1.77-2.19,3.45-3.45,5.03-1.26,1.58-2.51,2.98-3.74,4.19h11.22v6.34h-22.93s0-5.16,0-5.16c3.11-3.12,5.6-5.8,7.46-8.04,1.86-2.24,3.28-4.18,4.25-5.83.97-1.65,1.6-3.06,1.89-4.25.29-1.18.44-2.26.44-3.23,0-1.94-.41-3.49-1.23-4.68-.82-1.18-2-1.77-3.52-1.77-1.82,0-3.37.39-4.64,1.16-1.28.77-2.4,1.6-3.37,2.5l-1.36-5.91c1.44-1.29,3.09-2.28,4.97-2.98,1.88-.7,3.77-1.05,5.68-1.05M321.6,89.53c-2.11,0-4.24.39-6.31,1.16-2.08.78-3.95,1.9-5.55,3.33l-.8.71.24,1.04,1.36,5.91.7,3.04,2.29-2.12c.87-.81,1.91-1.58,3.07-2.28.98-.59,2.23-.89,3.71-.89.93,0,1.55.31,2.03,1,.6.87.91,2.09.91,3.64,0,.82-.13,1.75-.39,2.79-.25,1.01-.82,2.28-1.7,3.77-.92,1.56-2.29,3.44-4.08,5.59-1.82,2.19-4.29,4.85-7.35,7.92l-.53.53v7.72h24.74s1.81,0,1.81,0v-9.97h-8.91c.34-.41.69-.82,1.03-1.25,1.31-1.64,2.52-3.4,3.6-5.24,1.1-1.87,2-3.81,2.68-5.78.71-2.05,1.07-4.09,1.07-6.08s-.31-3.93-.92-5.68c-.62-1.78-1.54-3.35-2.72-4.66-1.19-1.31-2.65-2.35-4.32-3.1-1.68-.75-3.59-1.12-5.69-1.12h0Z"/>
    </g>
    <g>
      <path class="cls-4" d="M326.89,147.68v-6.44l.26-.27c3.08-3.09,5.57-5.77,7.4-7.98,1.82-2.19,3.22-4.11,4.16-5.71.92-1.57,1.52-2.91,1.79-4.01.27-1.11.41-2.12.41-3.01,0-1.74-.36-3.14-1.07-4.16-.65-.93-1.56-1.39-2.78-1.39-1.64,0-3.05.35-4.17,1.03-1.22.74-2.3,1.54-3.22,2.39l-1.15,1.06-1.84-7.96.4-.36c1.52-1.36,3.29-2.42,5.26-3.16,1.97-.73,3.98-1.1,5.99-1.1s3.76.35,5.32,1.05c1.56.69,2.91,1.66,4.02,2.88,1.1,1.21,1.96,2.68,2.54,4.34.57,1.65.87,3.46.87,5.38s-.34,3.83-1.02,5.78c-.66,1.91-1.54,3.8-2.6,5.62-1.06,1.8-2.24,3.53-3.53,5.13-.78.97-1.55,1.88-2.32,2.72h10v8.16h-24.74Z"/>
      <path class="cls-3" d="M338.36,107.52c1.85,0,3.5.32,4.95.97,1.45.65,2.69,1.53,3.72,2.66,1.03,1.13,1.81,2.47,2.35,4.03.54,1.56.81,3.25.81,5.08s-.32,3.62-.97,5.48c-.65,1.86-1.49,3.68-2.53,5.46-1.04,1.77-2.19,3.45-3.45,5.03-1.26,1.58-2.51,2.98-3.74,4.19h11.22v6.34h-22.93s0-5.16,0-5.16c3.11-3.12,5.6-5.8,7.46-8.04,1.86-2.24,3.28-4.18,4.25-5.83.97-1.65,1.6-3.06,1.89-4.25.29-1.18.44-2.26.44-3.23,0-1.94-.41-3.49-1.23-4.68-.82-1.18-2-1.77-3.52-1.77-1.82,0-3.37.39-4.64,1.16-1.28.77-2.4,1.6-3.37,2.5l-1.36-5.91c1.44-1.29,3.09-2.28,4.97-2.98,1.88-.7,3.77-1.05,5.68-1.05M338.36,105.71c-2.11,0-4.24.39-6.31,1.16-2.08.78-3.95,1.9-5.55,3.33l-.8.71.24,1.04,1.36,5.91.7,3.05,2.29-2.12c.87-.81,1.91-1.57,3.07-2.28.98-.59,2.23-.9,3.71-.9.93,0,1.55.31,2.03,1,.6.87.91,2.1.91,3.64,0,.82-.13,1.75-.39,2.79-.25,1.01-.82,2.28-1.7,3.77-.91,1.56-2.28,3.44-4.08,5.59-1.82,2.19-4.29,4.85-7.35,7.92l-.53.53v7.72h24.74s1.81,0,1.81,0v-9.97h-8.91c.34-.41.69-.82,1.03-1.25,1.31-1.64,2.52-3.4,3.6-5.24,1.1-1.87,2-3.82,2.68-5.78.71-2.05,1.07-4.09,1.07-6.08s-.31-3.93-.91-5.68c-.62-1.79-1.54-3.35-2.73-4.66-1.19-1.31-2.65-2.35-4.32-3.1-1.68-.75-3.59-1.12-5.69-1.12h0Z"/>
    </g>
    <g>
      <path class="cls-4" d="M377.89,147.12c-1.69,0-3.38-.16-5.03-.47-1.71-.33-3.26-.94-4.6-1.83-1.37-.9-2.49-2.17-3.32-3.75-.83-1.58-1.25-3.61-1.25-6.04,0-1.81.3-3.39.9-4.7.58-1.29,1.3-2.38,2.14-3.22.82-.83,1.68-1.49,2.54-1.96.08-.04.15-.08.22-.12-1.16-.71-2.11-1.63-2.86-2.75-1.11-1.67-1.67-3.65-1.67-5.9,0-3.36,1.12-6.14,3.31-8.26,2.19-2.11,5.42-3.18,9.61-3.18s7.42,1.07,9.61,3.18c2.2,2.12,3.31,4.9,3.31,8.26,0,2.25-.56,4.24-1.67,5.9-.75,1.12-1.7,2.04-2.86,2.75.07.04.15.08.22.12.86.47,1.72,1.13,2.54,1.96.83.84,1.55,1.93,2.14,3.22.59,1.31.89,2.9.89,4.7,0,2.43-.42,4.46-1.25,6.04-.83,1.58-1.95,2.84-3.32,3.75-1.34.89-2.89,1.5-4.6,1.83-1.65.31-3.34.47-5.03.47ZM377.89,128.84c-1.26,0-2.23.42-2.96,1.29-.76.9-1.15,2.24-1.15,3.99s.39,3.08,1.15,3.99c.74.87,1.7,1.29,2.96,1.29s2.22-.42,2.96-1.29c.76-.9,1.15-2.24,1.15-3.98s-.39-3.08-1.15-3.98c-.74-.87-1.7-1.29-2.96-1.29ZM377.94,112.71c-1.08,0-1.86.34-2.37,1.05-.57.79-.86,1.9-.86,3.31s.29,2.51.86,3.28c.51.69,1.29,1.03,2.37,1.03s1.87-.34,2.4-1.04c.58-.77.87-1.87.87-3.27s-.29-2.52-.88-3.31c-.53-.71-1.31-1.06-2.4-1.06Z"/>
      <path class="cls-3" d="M377.89,105.84c3.96,0,6.95.98,8.98,2.93,2.02,1.95,3.04,4.49,3.04,7.61,0,2.08-.51,3.88-1.52,5.4-1.01,1.52-2.44,2.63-4.29,3.31.53.14,1.19.43,1.98.86.79.43,1.57,1.03,2.33,1.8.76.77,1.42,1.76,1.96,2.96.54,1.2.81,2.64.81,4.33,0,2.29-.38,4.17-1.14,5.62-.76,1.45-1.77,2.59-3.01,3.41-1.25.82-2.67,1.39-4.27,1.69-1.6.3-3.22.46-4.86.46s-3.26-.15-4.86-.46c-1.6-.3-3.02-.87-4.27-1.69-1.25-.82-2.25-1.96-3.01-3.41-.76-1.45-1.14-3.32-1.14-5.62,0-1.68.27-3.13.81-4.33.54-1.2,1.19-2.19,1.96-2.96.76-.77,1.54-1.37,2.33-1.8.79-.43,1.45-.72,1.98-.86-1.85-.68-3.28-1.78-4.29-3.31-1.01-1.52-1.52-3.32-1.52-5.4,0-3.12,1.01-5.65,3.04-7.61,2.02-1.95,5.02-2.93,8.98-2.93M377.94,122.29c1.38,0,2.42-.47,3.12-1.4.7-.93,1.06-2.2,1.06-3.82s-.35-2.89-1.06-3.84c-.7-.95-1.75-1.42-3.12-1.42s-2.41.48-3.1,1.42c-.69.95-1.03,2.23-1.03,3.84s.34,2.89,1.03,3.82c.69.93,1.72,1.4,3.1,1.4M377.89,140.3c1.52,0,2.74-.54,3.65-1.61.91-1.08,1.36-2.6,1.36-4.57,0-1.97-.46-3.49-1.36-4.57-.91-1.08-2.13-1.61-3.65-1.61s-2.74.54-3.65,1.61c-.91,1.08-1.36,2.6-1.36,4.57s.45,3.49,1.36,4.57c.91,1.08,2.13,1.61,3.65,1.61M377.89,104.02c-4.43,0-7.87,1.16-10.23,3.44-2.38,2.3-3.59,5.3-3.59,8.91,0,2.43.61,4.59,1.82,6.41.55.83,1.21,1.56,1.97,2.19-.6.42-1.19.93-1.77,1.5-.91.92-1.69,2.09-2.32,3.49-.65,1.43-.97,3.14-.97,5.07,0,2.58.46,4.76,1.35,6.46.9,1.72,2.12,3.09,3.62,4.08,1.44.95,3.1,1.61,4.93,1.96,1.71.32,3.46.49,5.2.49s3.5-.16,5.2-.49c1.83-.35,3.49-1.01,4.93-1.96,1.5-.99,2.72-2.36,3.62-4.08.9-1.71,1.35-3.88,1.35-6.46,0-1.93-.33-3.64-.97-5.07-.63-1.39-1.41-2.56-2.32-3.49-.58-.58-1.17-1.08-1.77-1.51.76-.63,1.41-1.36,1.97-2.19,1.21-1.82,1.82-3.97,1.82-6.41,0-3.61-1.21-6.61-3.59-8.91-2.36-2.28-5.81-3.44-10.24-3.44h0ZM377.94,120.48c-1.02,0-1.42-.35-1.65-.66-.45-.61-.68-1.53-.68-2.74s.23-2.15.69-2.78c.23-.32.62-.68,1.64-.68s1.43.37,1.67.69c.46.63.7,1.56.7,2.77s-.23,2.12-.69,2.72c-.24.32-.65.68-1.68.68h0ZM377.89,138.49c-.99,0-1.71-.31-2.27-.97-.62-.73-.94-1.88-.94-3.4s.31-2.67.94-3.4c.56-.66,1.28-.97,2.27-.97s1.71.31,2.27.97c.62.73.94,1.88.94,3.4,0,1.52-.31,2.67-.94,3.4-.56.66-1.28.97-2.27.97h0Z"/>
    </g>
    <g>
      <path class="cls-4" d="M397.66,113.04v-6.44l.26-.27c3.08-3.08,5.57-5.77,7.4-7.98,1.82-2.19,3.22-4.12,4.16-5.71.92-1.56,1.52-2.91,1.79-4.01.27-1.11.41-2.12.41-3.01,0-1.74-.36-3.14-1.07-4.16-.65-.93-1.56-1.38-2.78-1.38-1.64,0-3.05.35-4.17,1.03-1.22.74-2.3,1.54-3.22,2.39l-1.15,1.06-1.84-7.96.4-.36c1.52-1.36,3.29-2.42,5.26-3.16,1.97-.73,3.99-1.1,5.99-1.1s3.76.35,5.32,1.05c1.56.69,2.91,1.66,4.02,2.88,1.1,1.21,1.96,2.68,2.54,4.34.57,1.65.87,3.46.87,5.38s-.34,3.83-1.02,5.78c-.66,1.91-1.54,3.8-2.61,5.62-1.06,1.81-2.25,3.53-3.53,5.13-.78.97-1.55,1.88-2.32,2.72h10v8.16h-24.74Z"/>
      <path class="cls-3" d="M409.12,72.88c1.85,0,3.5.32,4.95.97,1.45.65,2.69,1.53,3.72,2.66,1.03,1.13,1.81,2.47,2.35,4.03.54,1.56.81,3.25.81,5.08s-.32,3.62-.97,5.48c-.65,1.86-1.49,3.68-2.53,5.46-1.04,1.77-2.19,3.45-3.45,5.03-1.26,1.58-2.51,2.98-3.74,4.19h11.22v6.34h-22.93v-5.16c3.11-3.12,5.6-5.8,7.46-8.04,1.86-2.24,3.28-4.18,4.25-5.83.97-1.65,1.6-3.06,1.89-4.25.29-1.18.44-2.26.44-3.23,0-1.94-.41-3.49-1.23-4.68-.82-1.18-2-1.77-3.52-1.77-1.82,0-3.37.39-4.64,1.16-1.28.77-2.4,1.6-3.37,2.5l-1.36-5.91c1.44-1.29,3.09-2.28,4.97-2.98s3.77-1.05,5.68-1.05M409.12,71.07c-2.11,0-4.24.39-6.31,1.16-2.08.78-3.95,1.9-5.55,3.33l-.8.71.24,1.04,1.36,5.91.7,3.04,2.29-2.12c.87-.81,1.91-1.58,3.07-2.28.98-.59,2.23-.9,3.71-.9.93,0,1.55.31,2.03,1,.6.87.91,2.09.91,3.64,0,.82-.13,1.75-.39,2.79-.25,1.01-.82,2.28-1.7,3.77-.91,1.56-2.28,3.44-4.08,5.59-1.82,2.19-4.29,4.85-7.35,7.92l-.53.53v7.72h26.55v-9.97h-8.91c.34-.41.69-.82,1.03-1.25,1.31-1.64,2.52-3.4,3.6-5.24,1.1-1.87,2-3.82,2.68-5.78.71-2.05,1.07-4.09,1.07-6.08s-.31-3.93-.91-5.68c-.62-1.79-1.54-3.35-2.73-4.66-1.19-1.31-2.65-2.35-4.32-3.1-1.68-.75-3.59-1.12-5.69-1.12h0Z"/>
    </g>
    <g>
      <rect class="cls-4" x="425.06" y="104.25" width="21.17" height="8.1"/>
      <path class="cls-3" d="M445.33,105.15v6.29h-19.36v-6.29h19.36M447.14,103.34h-22.99v9.91h22.99v-9.91h0Z"/>
    </g>
    <g>
      <path class="cls-4" d="M451.03,131.55v-26.83h-5.9v-7.73h.91c2.43,0,4.25-.34,5.4-1.01,1-.58,1.49-1.77,1.49-3.63v-.91h8.28v40.09h-10.17Z"/>
      <path class="cls-3" d="M460.3,92.36v38.28s-8.36,0-8.36,0v-26.83h-5.9v-5.91c2.61,0,4.56-.38,5.85-1.13,1.29-.75,1.94-2.22,1.94-4.41h6.47M462.11,90.55h-10.09v1.81c0,1.49-.35,2.44-1.04,2.84-.69.4-2.11.88-4.94.88h-1.81v9.54h5.9v25.02s0,1.81,0,1.81h11.98v-40.09s0-1.81,0-1.81h0Z"/>
    </g>
    <g>
      <path class="cls-4" d="M487.69,141.06v-6.67h-15.89v-6.68l14.85-26.75h8.32c1.19,0,1.8.52,2.11.95.37.53.56,1.22.56,2.05v22.32h4.71s0,8.1,0,8.1h-4.71v6.67h-9.95ZM487.69,126.29v-11.62l-6.13,11.62h6.13Z"/>
      <path class="cls-3" d="M494.98,101.87c.65,0,1.1.19,1.36.56.26.38.4.89.4,1.53v23.23h4.71v6.29h-4.71v6.67h-8.14v-6.67h-15.89s0-5.54,0-5.54l14.48-26.08h7.79M480.06,127.2h8.54v-16.18l-8.54,16.18M494.98,100.06h-8.85l-.52.93-14.48,26.08-.23.41v7.82h15.89s0,4.86,0,4.86v1.81h11.76v-6.67h4.71v-9.91h-4.71v-21.42c0-1.02-.24-1.89-.73-2.57-.43-.61-1.27-1.34-2.85-1.34h0ZM483.06,125.39l3.72-7.06v7.06h-3.72Z"/>
    </g>
    <g>
      <path class="cls-4" d="M506.42,132.57c-.79,0-1.64-.05-2.56-.14-.89-.09-1.79-.21-2.69-.36-.89-.15-1.76-.31-2.58-.49-.83-.19-1.55-.37-2.13-.56l-.73-.23,1.13-7.96.99.28c.64.18,1.3.36,1.99.53.67.18,1.31.32,1.91.45.6.12,1.14.22,1.64.29.47.07.85.1,1.13.1,2.19,0,3.78-.38,4.72-1.12.88-.69,1.33-2.02,1.33-3.94,0-.76-.1-1.47-.31-2.12-.19-.58-.52-1.07-1.01-1.5-.51-.45-1.24-.81-2.17-1.08-.97-.28-2.23-.42-3.75-.42-.75,0-1.56.02-2.43.05-.87.04-1.89.11-3.03.21l-1.07.1,1.28-16.76h-.56c-.77,0-1.43-.26-1.99-.78-.57-.53-.86-1.35-.86-2.43s.29-1.9.86-2.43c.54-.51,1.23-.78,1.98-.78h22.16s0,8.1,0,8.1h-11.95l-.56,6.67c1.57.09,3.07.32,4.48.69,1.75.46,3.32,1.22,4.66,2.26,1.35,1.05,2.44,2.44,3.23,4.12.79,1.67,1.19,3.77,1.19,6.22,0,4.1-1.15,7.33-3.41,9.62-2.27,2.28-5.94,3.44-10.92,3.44Z"/>
      <path class="cls-3" d="M518.78,92.36v6.29h-11.88l-.7,8.44c1.85.04,3.59.27,5.24.7,1.64.43,3.09,1.13,4.33,2.1,1.25.97,2.24,2.23,2.97,3.79.73,1.56,1.1,3.5,1.1,5.83,0,3.87-1.05,6.86-3.15,8.98-2.1,2.11-5.52,3.17-10.28,3.17-.76,0-1.58-.05-2.46-.13-.88-.09-1.76-.21-2.64-.35-.88-.14-1.72-.3-2.53-.48-.81-.18-1.49-.36-2.05-.54l.88-6.18c.64.18,1.31.36,2,.54.69.18,1.34.33,1.96.46.62.13,1.18.22,1.69.3.51.07.93.11,1.25.11,2.41,0,4.17-.44,5.28-1.32,1.11-.88,1.67-2.43,1.67-4.65,0-.86-.12-1.66-.35-2.39-.23-.73-.66-1.37-1.28-1.91-.62-.54-1.45-.96-2.51-1.26-1.06-.3-2.39-.46-4-.46-.76,0-1.58.02-2.46.05-.88.04-1.91.11-3.08.21l1.28-16.67h-1.54c-.53,0-.98-.18-1.36-.54-.38-.36-.57-.95-.57-1.77s.19-1.42.57-1.77c.38-.36.84-.54,1.36-.54h21.25M520.59,90.55h-23.07c-.99,0-1.89.36-2.6,1.03-.76.71-1.14,1.75-1.14,3.09s.39,2.38,1.15,3.1c.61.58,1.36.92,2.19,1.01l-1.13,14.74-.16,2.14,2.13-.2c1.14-.1,2.14-.17,2.99-.21.86-.03,1.67-.05,2.39-.05,1.43,0,2.61.13,3.5.39.79.23,1.41.53,1.82.89.36.32.61.68.74,1.1.18.55.27,1.17.27,1.84,0,1.12-.17,2.59-.98,3.23-.54.42-1.7.93-4.16.93-.17,0-.48-.02-1-.09-.48-.07-1.01-.16-1.58-.28-.59-.12-1.22-.27-1.86-.44-.68-.18-1.34-.35-1.97-.53l-1.99-.55-.29,2.04-.88,6.18-.22,1.51,1.45.47c.61.2,1.33.39,2.21.58.84.19,1.72.36,2.63.5.92.15,1.84.27,2.75.36.94.1,1.83.14,2.65.14,5.23,0,9.12-1.25,11.56-3.71,2.44-2.46,3.67-5.91,3.67-10.26,0-2.59-.43-4.81-1.27-6.6-.85-1.81-2.03-3.31-3.5-4.45-1.44-1.11-3.11-1.93-4.99-2.42-1.19-.31-2.44-.53-3.74-.65l.41-4.93h12.03v-9.91h0Z"/>
    </g>
    <g>
      <path class="cls-4" d="M538.12,107.72c-2.13,0-4.07-.43-5.77-1.28-1.72-.86-3.2-2.2-4.38-4-1.15-1.75-2.05-3.97-2.66-6.58-.6-2.58-.9-5.7-.9-9.26s.3-6.64.9-9.24c.61-2.64,1.5-4.87,2.66-6.61,1.18-1.79,2.66-3.14,4.38-3.99,1.7-.85,3.65-1.28,5.77-1.28s4.07.43,5.79,1.28c1.74.86,3.22,2.2,4.4,4,1.15,1.75,2.05,3.97,2.66,6.61.6,2.6.9,5.71.9,9.24s-.3,6.68-.9,9.26c-.61,2.62-1.5,4.84-2.66,6.58-1.18,1.79-2.67,3.14-4.4,4-1.72.85-3.67,1.28-5.79,1.28ZM538.12,73.52c-.38,0-1.56,0-2.47,2.59-.71,2.03-1.07,5.55-1.07,10.48s.36,8.45,1.07,10.48c.91,2.59,2.08,2.59,2.47,2.59s1.56,0,2.49-2.6c.72-2.02,1.09-5.55,1.09-10.48s-.37-8.45-1.09-10.48c-.93-2.6-2.11-2.6-2.49-2.6Z"/>
      <path class="cls-3" d="M538.12,66.38c1.99,0,3.79.39,5.39,1.18,1.6.79,2.95,2.02,4.05,3.68,1.1,1.67,1.94,3.77,2.53,6.32.59,2.55.88,5.56.88,9.03s-.29,6.53-.88,9.06c-.59,2.53-1.43,4.62-2.53,6.29-1.1,1.67-2.45,2.89-4.05,3.68-1.6.79-3.4,1.18-5.39,1.18s-3.78-.39-5.37-1.18c-1.58-.79-2.93-2.02-4.03-3.68-1.1-1.67-1.94-3.76-2.53-6.29s-.88-5.55-.88-9.06.29-6.49.88-9.03c.59-2.54,1.43-4.65,2.53-6.32,1.1-1.67,2.44-2.89,4.03-3.68,1.58-.79,3.37-1.18,5.37-1.18h0M538.12,100.58c1.47,0,2.58-1.07,3.34-3.2.76-2.13,1.14-5.73,1.14-10.78s-.38-8.65-1.14-10.78c-.76-2.13-1.88-3.2-3.34-3.2s-2.57,1.07-3.32,3.2c-.75,2.13-1.12,5.73-1.12,10.78s.37,8.65,1.12,10.78c.75,2.13,1.86,3.2,3.32,3.2M538.12,64.57h0c-2.27,0-4.34.46-6.18,1.37-1.87.93-3.46,2.38-4.73,4.31-1.21,1.84-2.15,4.17-2.78,6.91-.61,2.67-.93,5.84-.93,9.44s.31,6.82.93,9.47c.63,2.73,1.57,5.04,2.78,6.88,1.27,1.93,2.86,3.38,4.73,4.31,1.83.91,3.91,1.37,6.18,1.37s4.35-.46,6.19-1.37c1.88-.93,3.49-2.38,4.76-4.31,1.21-1.84,2.15-4.15,2.78-6.88.62-2.65.93-5.84.93-9.47s-.31-6.77-.93-9.44c-.63-2.75-1.57-5.07-2.78-6.91-1.27-1.93-2.88-3.38-4.76-4.31-1.85-.91-3.93-1.37-6.19-1.37h0ZM538.12,98.76c-.61,0-1.15-.67-1.61-1.99-.68-1.93-1.02-5.35-1.02-10.18s.34-8.25,1.02-10.18c.46-1.32,1.01-1.99,1.61-1.99s1.16.67,1.64,2c.69,1.93,1.04,5.35,1.04,10.17s-.35,8.24-1.04,10.17c-.47,1.33-1.03,2-1.64,2h0Z"/>
    </g>
  </g>
</svg>