<?xml version="1.0" encoding="UTF-8"?>
<svg id="_레이어_1" data-name="레이어 1" xmlns="http://www.w3.org/2000/svg" viewBox="0 0 599.21 128.74">
  <defs>
    <style>
      .cls-1 {
        fill: #1f8331;
        stroke: #000;
        stroke-miterlimit: 10;
        stroke-width: .99px;
      }
    </style>
  </defs>
  <rect class="cls-1" x=".5" y=".5" width="244.58" height="128.24"/>
  <g>
    <path d="M13.94,89.26c0-19.33,3.94-28.74,10.09-28.74s10.09,9.48,10.09,28.74-3.99,29.12-10.09,29.12-10.09-9.71-10.09-29.12ZM29.46,89.26c0-16-2.25-21.84-5.43-21.84s-5.43,5.84-5.43,21.84,2.25,22.22,5.43,22.22,5.43-6.07,5.43-22.22Z"/>
    <path d="M37.98,112.31c9.2-14.56,13.95-25.4,13.95-34.57,0-6.07-1.82-10.24-5.3-10.24-2.46,0-4.5,2.81-6.15,6.22l-2.76-4.85c2.67-5.16,5.43-8.34,9.5-8.34,5.72,0,9.41,6.67,9.41,16.76,0,10.77-4.79,21.91-11.41,33.21,1.61-.3,3.56-.53,5.09-.53h7.8v7.43h-20.14v-5.08Z"/>
    <path d="M62.28,92.75h11.19v6.44h-11.19v-6.44Z"/>
    <path d="M79.07,110.19h6.83v-38.82h-5.6v-5.54c2.93-.99,5-2.27,6.78-4.25h3.69v48.6h6.11v7.2h-17.81v-7.2Z"/>
    <path d="M103.24,110.19h6.83v-38.82h-5.6v-5.54c2.93-.99,5-2.27,6.79-4.25h3.69v48.6h6.11v7.2h-17.81v-7.2Z"/>
    <path d="M125.75,89.26c0-19.33,3.94-28.74,10.09-28.74s10.09,9.48,10.09,28.74-3.99,29.12-10.09,29.12-10.09-9.71-10.09-29.12ZM141.27,89.26c0-16-2.25-21.84-5.43-21.84s-5.43,5.84-5.43,21.84,2.25,22.22,5.43,22.22,5.43-6.07,5.43-22.22Z"/>
    <path d="M149.92,92.75h11.19v6.44h-11.19v-6.44Z"/>
    <path d="M185.97,102.38h-3.99v15.01h-4.58v-15.01h-13.48v-5.84l12.42-34.95h5.64v34.04h3.99v6.75ZM177.4,95.63v-14.63c0-3.03.17-7.73.25-10.77h-.17c-.76,2.8-1.61,5.69-2.5,8.57l-6.15,16.83h8.57Z"/>
    <path d="M189.19,103.52c0-7.35,2.71-12.28,5.6-15.01v-.38c-2.33-2.96-4.2-7.13-4.2-13.04,0-8.72,3.77-14.41,8.91-14.41,5.43,0,8.82,6.07,8.82,14.79,0,5.69-2.16,10.54-4.11,13.12v.38c2.8,2.88,5.26,7.2,5.26,14.79,0,8.26-4.07,14.63-10.09,14.63s-10.18-6.22-10.18-14.86ZM204.84,103.52c0-6.82-3.43-9.4-7.68-12.51-2.16,2.65-3.65,6.82-3.65,11.68,0,5.53,2.59,9.4,5.94,9.4s5.39-3.34,5.39-8.57ZM204.2,75.99c0-5.16-1.74-9.02-4.79-9.02-2.54,0-4.45,3.11-4.45,8.11,0,6.07,2.97,8.87,6.45,11.3,1.87-3.11,2.8-6.67,2.8-10.39Z"/>
    <path d="M215.05,110.19h6.83v-38.82h-5.6v-5.54c2.93-.99,5-2.27,6.78-4.25h3.69v48.6h6.11v7.2h-17.81v-7.2Z"/>
    <path d="M237.57,89.26c0-19.33,3.94-28.74,10.09-28.74s10.09,9.48,10.09,28.74-3.99,29.12-10.09,29.12-10.09-9.71-10.09-29.12ZM253.09,89.26c0-16-2.25-21.84-5.43-21.84s-5.43,5.84-5.43,21.84,2.25,22.22,5.43,22.22,5.43-6.07,5.43-22.22Z"/>
  </g>
  <g>
    <path d="M43.62,17.63c0,7.67,6.67,15.43,17.48,18.62l-5.01,3.9c-7.71-2.38-13.43-7.05-16.53-12.67-3.1,5.95-9.14,10.95-17.32,13.48l-5-3.95c11.2-3.29,18.19-11.43,18.19-19.38v-7.05h8.18v7.05ZM85.25,28.11h-11.2v21.91h-8.18V7.01h8.18v17.05h11.2v4.05Z"/>
    <path d="M134.19,29.35c-10.81,1.14-20.18,1.38-33.93,1.38h-5.8v-12.86h24.31v-4.62h-24.47v-4h32.58v12.38h-24.39v5.1c12.31-.05,20.98-.29,30.83-1.38l.87,4ZM101.77,34.63h45.84v14.86h-45.84v-14.86ZM109.8,45.59h29.79v-7.1h-29.79v7.1ZM157.79,21.73h-10.17v10.91h-8.18V7.06h8.18v10.62h10.17v4.05Z"/>
    <path d="M203.31,30.78c-8.18-1.38-14.14-4.29-17.24-8-3.26,4.1-9.3,7.29-17.8,8.76l-3.81-3.81c11.04-1.86,17.32-6.67,17.32-11.86v-.33h-15.1v-3.91h15.1v-4.81h8.26v4.81h15.02v3.91h-15.1v.33c0,4.76,6.2,9.33,17.08,11.1l-3.73,3.81ZM202.6,37.78c1.51,3.81,10.01,7.38,22.09,8.43l-3.02,3.71c-10.88-.95-19.47-3.95-23.52-7.91-4.13,4-12.71,6.86-23.68,7.86l-3.1-3.76c12.24-.95,20.74-4.43,22.17-8.33h-19.15v-3.91h47.35v3.91h-19.15ZM230.88,17.2v4.05h-10.17v10.52h-8.18V7.01h8.18v10.19h10.17Z"/>
    <path d="M275.29,25.35c0,9.29-7.71,15.14-18.43,15.14s-18.43-5.86-18.43-15.14,7.71-15.19,18.43-15.19,18.43,5.91,18.43,15.19ZM267.43,25.35c0-6.71-4.37-10.76-10.57-10.76s-10.57,4.05-10.57,10.76,4.29,10.76,10.57,10.76,10.57-4.05,10.57-10.76ZM304.53,27.87h-11.2v22.19h-8.18V7.01h8.18v16.81h11.2v4.05Z"/>
    <path d="M375.96,40.44v4.05h-65.07v-4.05h65.07ZM368.57,31.25h-49.74V10.78h49.18v4h-41v12.53h41.55v3.95Z"/>
    <path d="M428.39,28.68c-11.28,1.1-20.98,1.29-34.72,1.29h-6.04v-12.48h24.63v-4.48h-24.79v-4h32.81v12.19h-24.55v4.76c12.32,0,21.29-.24,31.7-1.29l.95,4ZM434.99,32.78h8.1v16.72h-47.04v-16.72h8.18v4.43h30.75v-4.43ZM434.99,41.06h-30.75v4.48h30.75v-4.48ZM443.09,7.01v23.76h-8.18V7.01h8.18Z"/>
    <path d="M469.39,34.97c10.17-.05,20.9-.57,32.18-1.95l.87,4.09c-12.31,1.52-23.92,2.05-35.04,2.05h-6.12V11.2h8.1v23.76ZM516.34,7.01v43h-8.18V7.01h8.18Z"/>
    <path d="M541.21,35.4c11.6-.05,20.34-.33,30.35-1.38l.87,4.05c-10.88,1.19-20.58,1.43-33.53,1.43h-5.88V11.06h33.37v4h-25.19v20.33ZM596.91,27.59h-11.2v22.48h-8.18V6.97h8.18v16.57h11.2v4.05Z"/>
  </g>
</svg>