<?xml version="1.0" encoding="UTF-8"?>
<svg id="_레이어_1" data-name="레이어 1" xmlns="http://www.w3.org/2000/svg" viewBox="0 0 356.29 261.37">
  <defs>
    <style>
      .cls-1 {
        fill: #fff;
      }

      .cls-2 {
        fill: #1f8331;
      }
    </style>
  </defs>
  <g>
    <path class="cls-2" d="M83.13,251.14v-127.51h16.15v127.51h-16.15ZM65.73,246.06v-34.84l-6.54,14.04-1.11-1c-5.47-4.91-9.59-12.27-12.53-22.44-3.11,11.3-7.7,19.78-13.67,25.24l-1.04.96-9.83-18.17.65-.58c10.54-9.51,15.67-27.33,15.67-54.48v-20.61h16.51v19.54c0,18.14,1.46,38.12,11.91,50.28v-20.05h-8.84v-19.44h8.84v-39.14h15.88v120.69h-15.88Z"/>
    <path class="cls-1" d="M98.17,124.74v125.29h-13.94v-125.29h13.94M80.5,126.47v118.48h-13.66v-62.11h-8.84v-17.23h8.84v-39.14h13.66M52.72,135.29v18.43c0,20.57,2.09,41.14,13.94,52.9l-7.83,16.83c-6.56-5.88-10.66-15.09-13.3-26.05-2.82,12.29-7.38,22.44-14.39,28.85l-8.74-16.16c13.02-11.75,16.03-34.2,16.03-55.3v-19.5h14.3M100.38,122.52h-18.36v1.74h-17.4v39.14h-8.84v9.58c-.68-6.36-.86-12.92-.86-19.25v-20.65h-18.72v21.71c0,26.81-5,44.37-15.3,53.66l-1.29,1.17.83,1.53,8.74,16.16,1.35,2.49,2.09-1.91c5.49-5.02,9.83-12.49,12.95-22.26,2.91,8.6,6.79,15.01,11.77,19.47l2.22,1.99,1.26-2.71,3.8-8.16v30.94h17.4v5.08h18.36V122.52h0ZM57.85,185.05h6.77v15.72c-3.16-4.5-5.32-9.88-6.77-15.72h0Z"/>
  </g>
  <g>
    <path class="cls-2" d="M127.11,219.68v-43.62h16.97v24.44h45.36v19.18h-62.33ZM170.46,186.02v-91.98h16.97v91.98h-16.97ZM113.09,155.77l1.01-.45c15.52-6.97,18.72-23.87,19.16-34.08h-15.81v-19.04h48.57v19.04h-15.44c.45,9.52,3.58,25.25,18.53,32.08l1,.46-8.37,18.71-1.01-.46c-8.09-3.64-14.34-10.48-18.62-20.36-4.25,10.93-10.82,18.45-19.55,22.36l-1,.45-8.47-18.71Z"/>
    <path class="cls-1" d="M186.32,95.15v89.76h-14.75v-89.76h14.75M164.92,103.3v16.83h-15.48c.36,13.36,5.19,27.78,19.22,34.2l-7.47,16.7c-9.2-4.14-15.3-12.29-19.13-22.44-3.73,11.09-10.11,20.04-19.95,24.44l-7.56-16.7c14.57-6.54,19.49-21.91,19.86-36.2h-15.85v-16.83h46.36M142.97,177.17v24.44h45.36v16.96h-60.11v-41.41h14.75M188.53,92.94h-19.18v59.27c-13.66-6.38-16.97-20.59-17.6-29.87h15.38v-21.26h-50.79v21.26h15.75c-.62,10.02-4.03,25.49-18.45,31.97l-2.02.91.92,2.02,7.56,16.7.91,2.01,2.01-.9c8.36-3.75,14.79-10.67,19.15-20.61,4.34,8.89,10.42,15.14,18.11,18.6l2.02.91.91-2.02,6.15-13.75v28.95h19.18v-94.19h0ZM145.18,174.95h-19.18v45.83h64.54v-21.39h-45.36v-24.44h0Z"/>
  </g>
  <g>
    <path class="cls-2" d="M214.73,240.25v-38.81h42.63v-2.33h-42.72v-18.51h59.5v38.41h-42.63v2.6h44.72v18.64h-61.51ZM257.17,178.14v-9.08h-15.56c-4.32,5.52-10.35,8.55-17.03,8.55-13.66,0-23.97-13.05-23.97-30.36s10.3-30.36,23.97-30.36c6.59,0,12.58,2.98,16.93,8.42h15.66v-11.22h16.97v64.06h-16.97ZM224.58,136.46c-4.97,0-7.82,3.93-7.82,10.78s2.85,10.92,7.82,10.92,7.82-3.98,7.82-10.92-2.85-10.78-7.82-10.78ZM257.17,150.41v-6.47h-8.78c.1,1.1.15,2.21.15,3.3s-.05,2.16-.11,3.17h8.73Z"/>
    <path class="cls-1" d="M273.03,115.19v61.85h-14.75v-9.08h-17.21c-4.1,5.48-9.84,8.55-16.49,8.55-13.02,0-22.86-12.29-22.86-29.25s9.84-29.25,22.86-29.25c6.56,0,12.3,3.07,16.39,8.42h17.31v-11.22h14.75M224.58,159.27c5.28,0,8.93-4.01,8.93-12.02s-3.64-11.89-8.93-11.89-8.93,4.01-8.93,11.89,3.64,12.02,8.93,12.02M247.26,151.52h11.02v-8.68h-11.11c.18,1.47.27,2.94.27,4.41s-.09,2.94-.18,4.27M273.03,181.71v36.2h-42.63v4.81h44.72v16.43h-59.29v-36.6h42.63v-4.54h-42.72v-16.3h57.29M275.25,112.97h-19.18v11.22h-14.03c-4.54-5.44-10.69-8.42-17.46-8.42s-13.43,3.23-18.05,9.11c-4.53,5.75-7.02,13.69-7.02,22.36s2.49,16.6,7.02,22.36c4.62,5.87,11.04,9.11,18.05,9.11s13.06-3.03,17.56-8.55h13.92v9.08h19.18v-66.27h0ZM224.58,157.05c-5.84,0-6.71-6.15-6.71-9.81s.87-9.68,6.71-9.68,6.71,6.06,6.71,9.68-.87,9.81-6.71,9.81h0ZM249.59,145.05h6.48v4.26h-6.46c.03-.67.05-1.37.05-2.06,0-.73-.02-1.46-.06-2.2h0ZM275.25,179.49h-61.71v20.72h42.72v.12h-42.63v41.02h63.72v-20.85h-44.72v-.38h42.63v-40.62h0Z"/>
  </g>
  <g>
    <path class="cls-2" d="M325.48,148.28V20.24h16.97v128.04h-16.97ZM268.07,105.2h1.22c5.63,0,11.97,0,18.66-.34v-21.61c-3.27,3.37-7.07,5.97-11.4,7.78l-1.02.43-7.97-19.03,1.05-.41c8.74-3.45,19.16-12.2,19.16-34.24v-8.45h17.33v8.32c0,9.21,2.43,25.62,18.7,32.1l1.04.41-7.77,18.88-1.02-.41c-8.51-3.45-14.99-9.94-19.29-19.31-2.17,5.32-4.96,9.8-8.35,13.44h16.5v20.98c6.95-.75,12.31-1.54,17.26-2.53l1.24-.25,1.14,17.64-.85.25c-18.57,5.47-39.09,5.66-52.67,5.79h-1.01s-1.95-19.44-1.95-19.44Z"/>
    <path class="cls-1" d="M341.34,21.35v125.83h-14.76V21.35h14.76M303.99,30.43v7.21c0,13.09,4.65,27.25,19.4,33.13l-6.92,16.83c-9.56-3.87-15.85-11.35-19.76-21.24-3.83,10.82-10.38,19.37-20.58,23.64l-7.1-16.96c15.21-6.01,19.86-20.97,19.86-35.26v-7.35h15.12M303.81,83.86v21.11c6.38-.67,12.57-1.47,18.58-2.67l1,15.5c-18.13,5.34-37.89,5.61-52.37,5.74l-1.73-17.23c5.83,0,12.66,0,19.76-.4v-22.04h14.76M343.55,19.14h-19.18v49.64l-.16-.06c-15.67-6.24-18.01-22.15-18.01-31.07v-9.43h-19.54v9.56c0,21.42-10.04,29.88-18.46,33.21l-2.1.83.87,2.08,7.1,16.96.85,2.04,2.04-.86c3.66-1.53,6.95-3.6,9.87-6.21v17.96c-6.28.29-12.23.29-17.55.29h-2.45l.24,2.43,1.73,17.23.2,2.01,2.02-.02c13.64-.13,34.26-.32,52.98-5.83l.35-.1v29.58h19.18V19.14h0ZM290.85,81.65c2.3-2.81,4.29-6.04,5.97-9.69,1.93,3.72,4.24,6.95,6.9,9.69h-12.87ZM317.68,90.48l.84-2.03,5.85-14.23v25.43l-2.41.48c-4.62.92-9.61,1.67-15.93,2.38v-18.69c2.85,2.45,6.06,4.4,9.62,5.84l2.04.83h0Z"/>
  </g>
</svg>