<?xml version="1.0" encoding="UTF-8"?>
<svg id="_레이어_1" data-name="레이어 1" xmlns="http://www.w3.org/2000/svg" viewBox="0 0 373.57 121.96">
  <defs>
    <style>
      .cls-1 {
        fill: #1f8331;
        stroke: #000;
        stroke-miterlimit: 10;
        stroke-width: 1.19px;
      }
    </style>
  </defs>
  <rect class="cls-1" x=".7" y=".51" width="372.18" height="121.45"/>
  <g>
    <path d="M47.4,37.65c0,12.9-9.53,21.8-26.37,25.76l-3.28-5.52c12.44-2.81,19.43-8.22,20.67-14.78h-18.01v-5.46h26.98ZM63.68,72.67c0,6.04-7.61,9.83-19.12,9.83s-19.12-3.8-19.12-9.83,7.61-9.83,19.12-9.83,19.12,3.85,19.12,9.83ZM55.63,72.67c0-2.97-4.15-4.48-11.08-4.48s-11.08,1.51-11.08,4.48,4.15,4.47,11.08,4.47,11.08-1.51,11.08-4.47ZM70.61,45.72v5.67h-7.55v10.82h-8.17v-27.73h8.17v11.24h7.55Z"/>
    <path d="M108.3,57.11c-9.28,1.56-18.01,2.03-26.06,2.03h-4.83v-22.37h8.17v16.65c6.81-.1,14.11-.57,21.79-1.82l.93,5.52ZM82.87,63.72h37.13v18.16h-37.13v-18.16ZM90.91,76.52h21.1v-7.44h-21.1v7.44ZM127.55,50.24h-7.55v11.24h-8.17v-26.95h8.17v10.09h7.55v5.62Z"/>
    <path d="M183.56,57.48v5.46h-51.49v-5.46h21.6v-5.78h8.17v5.78h21.72ZM134.23,49.05c10.65-.73,16.22-3.85,17.64-7.08h-15.1v-5.46h42.15v5.46h-15.16c1.42,3.23,6.99,6.35,17.64,7.08l-2.85,5.41c-10.71-.88-17.76-4.21-20.73-8.79-3.03,4.58-10.03,7.91-20.79,8.79l-2.79-5.41ZM177.49,74.02c0,5.41-7.43,8.48-19.8,8.48s-19.74-3.07-19.74-8.48,7.36-8.48,19.74-8.48,19.8,3.07,19.8,8.48ZM169.2,74.02c0-2.29-3.84-3.33-11.51-3.33s-11.51,1.04-11.51,3.33,3.84,3.33,11.51,3.33,11.51-.99,11.51-3.33Z"/>
    <path d="M222.55,44.1h-33.61v-5.36h12.69v-4.58h8.23v4.58h12.75l-.06,5.36ZM205.78,62.37c-8.23,0-13.99-3.43-13.99-8.48s5.76-8.48,13.99-8.48,13.99,3.38,13.99,8.48-5.75,8.48-13.99,8.48ZM225.77,64.4h8.11v17.54h-37.07v-17.54h8.11v3.64h20.86v-3.64ZM205.78,57.37c3.65,0,6.19-1.2,6.19-3.49s-2.54-3.49-6.19-3.49-6.19,1.2-6.19,3.49,2.54,3.49,6.19,3.49ZM225.77,73.24h-20.86v3.33h20.86v-3.33ZM241.42,51.65h-7.55v10.93h-8.17v-28.05h8.17v11.5h7.55v5.62Z"/>
    <path d="M297.37,55.97v5.41h-51.31v-5.41h19v-8.38h8.17v8.38h24.14ZM291.62,73.45c0,5.57-7.92,9-20.24,9s-20.18-3.43-20.18-9,7.92-9.05,20.18-9.05,20.24,3.43,20.24,9.05ZM281.65,52.74c1.3-4.27,1.49-7.49,1.49-10.67h-31.32v-5.41h39.49v3.95c0,3.8,0,7.86-1.61,12.8l-8.05-.68ZM283.51,73.45c0-2.6-4.39-3.9-12.13-3.9s-12.07,1.3-12.07,3.9,4.39,3.85,12.07,3.85,12.13-1.3,12.13-3.85Z"/>
    <path d="M323.86,45.2c0,8.64,4.02,17.33,13.18,21.12l-4.95,5.41c-5.94-2.55-9.96-7.18-12.32-12.9-2.48,6.09-6.75,11.13-13.18,13.79l-4.89-5.57c9.59-3.8,13.92-12.96,13.92-21.85v-6.97h8.23v6.97ZM355.79,58.67h-8.29v23.78h-8.17v-47.92h8.17v18.42h8.29v5.72Z"/>
  </g>
  <g>
    <path d="M16.49,109.12l1.58-1.72c1.21.97,2.72,1.82,4.93,1.82,2.38,0,4.19-1.36,4.19-3.61s-1.61-3.54-4.02-3.54c-1.35,0-2.15.32-3.38.97l-1.61-.85.63-8.03h10.7v2.23h-7.83l-.49,4.35c.89-.37,1.75-.6,2.9-.6,3.53,0,6.43,1.68,6.43,5.38s-3.41,5.86-7.11,5.86c-3.33,0-5.42-1.08-6.91-2.25Z"/>
    <path d="M40.08,108.89h4.62v-11.77h-3.79v-1.68c1.98-.3,3.38-.69,4.59-1.29h2.5v14.74h4.13v2.18h-12.05v-2.18Z"/>
    <path d="M61.98,108.89h4.62v-11.77h-3.79v-1.68c1.98-.3,3.38-.69,4.59-1.29h2.5v14.74h4.13v2.18h-12.05v-2.18Z"/>
    <path d="M82.76,103.6h7.57v1.95h-7.57v-1.95Z"/>
    <path d="M99.67,108.89h4.62v-11.77h-3.79v-1.68c1.98-.3,3.38-.69,4.59-1.29h2.5v14.74h4.13v2.18h-12.05v-2.18Z"/>
    <path d="M121.57,108.89h4.62v-11.77h-3.79v-1.68c1.98-.3,3.38-.69,4.59-1.29h2.5v14.74h4.13v2.18h-12.05v-2.18Z"/>
    <path d="M156.49,106.52h-2.7v4.55h-3.1v-4.55h-9.12v-1.77l8.4-10.6h3.82v10.32h2.7v2.05ZM150.69,104.47v-4.44c0-.92.11-2.35.17-3.27h-.11c-.52.85-1.09,1.72-1.69,2.6l-4.16,5.1h5.79Z"/>
    <path d="M166.25,107.94c.83.76,2.12,1.26,3.47,1.26,2.55,0,4.76-1.66,4.96-6.48-1.23,1.22-3.04,1.98-4.65,1.98-3.53,0-5.91-1.77-5.91-5.31,0-3.36,2.87-5.56,6.28-5.56,4.04,0,7.32,2.62,7.32,8.21,0,6.67-3.79,9.34-7.86,9.34-2.44,0-4.16-.78-5.39-1.79l1.78-1.63ZM174.63,100.72c-.32-3.33-1.89-4.85-4.19-4.85-1.81,0-3.24,1.31-3.24,3.52s1.21,3.4,3.41,3.4c1.29,0,2.75-.6,4.02-2.07Z"/>
  </g>
  <g>
    <path d="M194.68,109.12l1.58-1.72c1.21.97,2.72,1.82,4.93,1.82,2.38,0,4.19-1.36,4.19-3.61s-1.61-3.54-4.02-3.54c-1.35,0-2.15.32-3.38.97l-1.61-.85.63-8.03h10.7v2.23h-7.83l-.49,4.35c.89-.37,1.75-.6,2.9-.6,3.53,0,6.43,1.68,6.43,5.38s-3.41,5.86-7.11,5.86c-3.33,0-5.42-1.08-6.91-2.25Z"/>
    <path d="M216.53,109.05l1.61-1.7c1.23,1.01,2.81,1.86,4.99,1.86,2.38,0,4.02-1.06,4.02-2.81,0-1.89-1.49-3.1-6.25-3.1v-1.95c4.16,0,5.54-1.26,5.54-2.97,0-1.49-1.23-2.44-3.24-2.46-1.64.02-3.01.67-4.22,1.61l-1.72-1.66c1.66-1.2,3.61-2.05,6.05-2.05,3.79,0,6.45,1.56,6.45,4.37,0,1.95-1.41,3.31-3.64,3.98v.11c2.44.48,4.36,1.95,4.36,4.23,0,3.06-3.18,4.85-7.06,4.85-3.33,0-5.48-1.06-6.88-2.32Z"/>
    <path d="M238.35,109.05l1.61-1.7c1.23,1.01,2.81,1.86,4.99,1.86,2.38,0,4.02-1.06,4.02-2.81,0-1.89-1.49-3.1-6.25-3.1v-1.95c4.16,0,5.54-1.26,5.54-2.97,0-1.49-1.23-2.44-3.24-2.46-1.64.02-3.01.67-4.22,1.61l-1.72-1.66c1.66-1.2,3.61-2.05,6.05-2.05,3.79,0,6.45,1.56,6.45,4.37,0,1.95-1.41,3.31-3.64,3.98v.11c2.44.48,4.36,1.95,4.36,4.23,0,3.06-3.18,4.85-7.06,4.85-3.33,0-5.48-1.06-6.88-2.32Z"/>
    <path d="M260.71,103.6h7.57v1.95h-7.57v-1.95Z"/>
    <path d="M276.33,109.53c6.22-4.42,9.44-7.7,9.44-10.49,0-1.84-1.23-3.1-3.59-3.1-1.66,0-3.04.85-4.16,1.89l-1.87-1.47c1.81-1.56,3.67-2.53,6.43-2.53,3.87,0,6.37,2.02,6.37,5.08,0,3.27-3.24,6.65-7.72,10.07,1.09-.09,2.41-.16,3.44-.16h5.28v2.25h-13.63v-1.54Z"/>
    <path d="M298.15,109.53c6.23-4.42,9.44-7.7,9.44-10.49,0-1.84-1.23-3.1-3.59-3.1-1.66,0-3.04.85-4.16,1.89l-1.87-1.47c1.81-1.56,3.67-2.53,6.43-2.53,3.87,0,6.37,2.02,6.37,5.08,0,3.27-3.24,6.65-7.72,10.07,1.09-.09,2.41-.16,3.44-.16h5.28v2.25h-13.63v-1.54Z"/>
    <path d="M334.19,106.52h-2.7v4.55h-3.1v-4.55h-9.12v-1.77l8.4-10.6h3.82v10.32h2.7v2.05ZM328.4,104.47v-4.44c0-.92.11-2.35.17-3.27h-.11c-.52.85-1.09,1.72-1.69,2.6l-4.16,5.1h5.79Z"/>
    <path d="M341.87,102.54c0-5.86,2.67-8.71,6.83-8.71s6.83,2.87,6.83,8.71-2.7,8.83-6.83,8.83-6.83-2.94-6.83-8.83ZM352.37,102.54c0-4.85-1.52-6.62-3.67-6.62s-3.67,1.77-3.67,6.62,1.52,6.74,3.67,6.74,3.67-1.84,3.67-6.74Z"/>
  </g>
  <g>
    <path d="M26.36,16.52c-2.08-.4-3.64-1.28-4.47-2.45-.81,1.28-2.38,2.27-4.55,2.71l-.89-1.26c2.73-.54,4.35-1.95,4.35-3.54v-.21h-3.76v-1.31h3.76v-1.39h2.06v1.39h3.74v1.31h-3.76v.21c0,1.47,1.66,2.8,4.39,3.28l-.87,1.26ZM31.94,22.17v1.28h-12.21v-3.75h9.6v-1.14h-9.62v-1.26h11.64v3.6h-9.6v1.26h10.19ZM29.29,12.61v-3.51h2.06v7.56h-2.06v-2.71h-3.17v-1.34h3.17Z"/>
    <path d="M57.99,15.73v1.33h-16.11v-1.33h6.33v-2.66h2.06v2.66h7.72ZM56.13,20.87c0,1.68-2.45,2.71-6.25,2.71s-6.29-1.02-6.29-2.71,2.43-2.69,6.29-2.69,6.25,1.02,6.25,2.69ZM53.52,14.69c.46-1.42.47-2.47.47-3.55h-10.25v-1.33h12.27v1.22c0,1.15,0,2.35-.49,3.84l-2-.18ZM54.09,20.87c0-.9-1.58-1.42-4.22-1.42s-4.27.53-4.27,1.42,1.62,1.44,4.27,1.44,4.22-.53,4.22-1.44Z"/>
    <path d="M69.75,17.22c0-.67.59-1.15,1.32-1.15s1.35.48,1.35,1.15c0,.63-.59,1.12-1.35,1.12s-1.32-.49-1.32-1.12Z"/>
    <path d="M106.46,20.36v1.36h-16.19v-1.36h16.19ZM104.87,17.54c-2.91-.48-5.42-1.98-6.59-3.97-1.17,1.98-3.68,3.49-6.59,3.97l-.87-1.36c3.52-.53,6.39-2.75,6.39-5.04v-1.09h2.16v1.09c0,2.31,2.87,4.53,6.39,5.04l-.89,1.36Z"/>
    <path d="M124.02,17.37c-2.04.3-3.74.35-6.51.35h-1.17v-7.43h6.75v1.33h-4.79v1.7h4.12v1.28h-4.12v1.81c2.26-.02,3.76-.08,5.52-.35l.2,1.31ZM131.2,21.96v1.34h-12.21v-4.53h2.06v3.19h10.15ZM125.32,14.48h-2.12v-1.34h2.12v-3.73h1.9v10.2h-1.9v-5.12ZM130.71,19.96h-1.94v-10.84h1.94v10.84Z"/>
    <path d="M143.48,17.22c0-.67.59-1.15,1.32-1.15s1.35.48,1.35,1.15c0,.63-.59,1.12-1.35,1.12s-1.32-.49-1.32-1.12Z"/>
    <path d="M180.2,18.63h-4.04v4.95h-2.08v-4.95h-4.08v4.95h-2.08v-4.95h-3.96v-1.36h16.21l.02,1.36ZM165.7,12.84c0-1.94,2.57-3.19,6.35-3.19s6.33,1.25,6.33,3.19-2.57,3.2-6.33,3.2-6.35-1.25-6.35-3.2ZM167.79,12.84c0,1.17,1.68,1.87,4.25,1.87s4.24-.7,4.24-1.87-1.68-1.86-4.24-1.86-4.25.7-4.25,1.86Z"/>
    <path d="M192.38,18.81c2.83-.02,5.3-.13,8.13-.5l.22,1.34c-3.07.43-5.74.51-8.89.51h-1.52v-5.73h6.23v-2.69h-6.27v-1.34h8.33v5.36h-6.23v3.04ZM204.06,9.09v14.52h-2.06v-14.52h2.06Z"/>
    <path d="M217.21,17.22c0-.67.59-1.15,1.32-1.15s1.35.48,1.35,1.15c0,.63-.59,1.12-1.35,1.12s-1.32-.49-1.32-1.12Z"/>
    <path d="M243.09,11.48h3.34v1.33h-8.75v-1.33h3.38v-1.94h2.02v1.94ZM245.95,16.98c0,1.98-1.62,3.36-3.88,3.36s-3.88-1.38-3.88-3.36,1.62-3.36,3.88-3.36,3.88,1.36,3.88,3.36ZM244.13,16.98c0-1.2-.85-2-2.06-2s-2.06.8-2.06,2,.85,1.98,2.06,1.98,2.06-.78,2.06-1.98ZM252.94,9.12v14.45h-1.94v-7.11h-1.9v6.43h-1.9v-13.48h1.9v5.68h1.9v-5.99h1.94Z"/>
    <path d="M265.97,10v2.06h4.45v-2.06h2.04v6.79h-8.51v-6.79h2.02ZM277.84,20.84c0,1.73-2.32,2.74-6.08,2.74s-6.04-1.01-6.04-2.74,2.32-2.74,6.04-2.74,6.08,1.02,6.08,2.74ZM265.97,15.48h4.45v-2.11h-4.45v2.11ZM267.77,20.84c0,.93,1.46,1.46,4,1.46s4.04-.53,4.04-1.46-1.46-1.46-4.04-1.46-4,.53-4,1.46ZM277.77,9.14v8.71h-2.04v-8.71h2.04Z"/>
    <path d="M290.94,17.22c0-.67.59-1.15,1.32-1.15s1.35.48,1.35,1.15c0,.63-.59,1.12-1.35,1.12s-1.32-.49-1.32-1.12Z"/>
    <path d="M320.93,16.29c-1.94-.53-3.36-1.6-4.12-2.95-.79,1.5-2.28,2.67-4.37,3.27l-1.05-1.3c2.79-.74,4.35-2.54,4.35-4.53v-1.22h2.04v1.22c0,1.82,1.54,3.52,4.21,4.23l-1.07,1.28ZM326.87,22.1v1.3h-12.21v-3.75h9.58v-1.15h-9.62v-1.28h11.64v3.65h-9.58v1.23h10.19ZM324.21,12.85h-3.62v-1.33h3.62v-2.42h2.04v7.43h-2.04v-3.68Z"/>
    <path d="M339.74,10.31v3.68h4.53v-3.68h2.04v9.86h-8.59v-9.86h2.02ZM339.74,18.84h4.53v-3.54h-4.53v3.54ZM351.47,9.11v14.5h-2.06v-14.5h2.06Z"/>
  </g>
</svg>