<?xml version="1.0" encoding="UTF-8"?>
<svg id="_레이어_1" data-name="레이어 1" xmlns="http://www.w3.org/2000/svg" viewBox="0 0 633.41 403.27">
  <defs>
    <style>
      .cls-1 {
        stroke: #fff;
        stroke-width: 11.4px;
      }

      .cls-1, .cls-2 {
        fill: none;
        stroke-miterlimit: 10;
      }

      .cls-2 {
        stroke: #1f8331;
        stroke-width: 4.27px;
      }

      .cls-3 {
        fill: #fff;
      }

      .cls-4 {
        fill: #1f8331;
      }
    </style>
  </defs>
  <g>
    <rect class="cls-1" x="151.78" y="208.36" width="450.39" height="166.38" rx="6.88" ry="6.88"/>
    <rect class="cls-2" x="151.78" y="208.36" width="450.39" height="166.38" rx="6.88" ry="6.88"/>
  </g>
  <g>
    <g>
      <path class="cls-4" d="M257.77,244.61v-127.51h16.15v127.51h-16.15ZM240.37,239.53v-34.84l-6.54,14.04-1.11-1c-5.47-4.91-9.59-12.27-12.53-22.44-3.11,11.3-7.7,19.78-13.67,25.24l-1.04.96-9.83-18.17.65-.58c10.54-9.51,15.67-27.33,15.67-54.48v-20.61h16.51v19.54c0,18.14,1.46,38.12,11.91,50.28v-20.05h-8.84v-19.44h8.84v-39.14h15.88v120.69h-15.88Z"/>
      <path class="cls-3" d="M272.81,118.21v125.29h-13.94v-125.29h13.94M255.14,119.95v118.48h-13.66v-62.11h-8.84v-17.23h8.84v-39.14h13.66M227.36,128.76v18.43c0,20.57,2.09,41.14,13.94,52.9l-7.83,16.83c-6.56-5.88-10.66-15.09-13.3-26.05-2.82,12.29-7.38,22.44-14.39,28.85l-8.74-16.16c13.02-11.75,16.03-34.2,16.03-55.3v-19.5h14.3M275.03,116h-18.36v1.74h-17.4v39.14h-8.84v9.58c-.68-6.36-.86-12.92-.86-19.25v-20.65h-18.72v21.71c0,26.81-5,44.37-15.3,53.66l-1.29,1.17.83,1.53,8.74,16.16,1.35,2.49,2.09-1.91c5.49-5.02,9.83-12.49,12.95-22.26,2.91,8.6,6.79,15.01,11.77,19.47l2.22,1.99,1.26-2.71,3.8-8.16v30.94h17.4v5.08h18.36V116h0ZM232.5,178.53h6.77v15.72c-3.16-4.5-5.32-9.88-6.77-15.72h0Z"/>
    </g>
    <g>
      <path class="cls-4" d="M301.75,213.15v-43.62h16.97v24.44h45.36v19.18h-62.33ZM345.1,179.49v-91.98h16.97v91.98h-16.97ZM287.73,149.24l1.01-.45c15.52-6.97,18.72-23.87,19.16-34.08h-15.81v-19.04h48.57v19.04h-15.44c.45,9.52,3.58,25.25,18.53,32.08l1,.46-8.37,18.71-1.01-.46c-8.09-3.64-14.34-10.48-18.62-20.36-4.25,10.93-10.82,18.45-19.55,22.36l-1,.45-8.47-18.71Z"/>
      <path class="cls-3" d="M360.97,88.62v89.76h-14.75v-89.76h14.75M339.56,96.77v16.83h-15.48c.36,13.36,5.19,27.78,19.22,34.2l-7.47,16.7c-9.2-4.14-15.3-12.29-19.13-22.44-3.73,11.09-10.11,20.04-19.95,24.44l-7.56-16.7c14.57-6.54,19.49-21.91,19.86-36.2h-15.85v-16.83h46.36M317.61,170.64v24.44h45.36v16.96h-60.11v-41.41h14.75M363.18,86.41h-19.18v59.27c-13.66-6.38-16.97-20.59-17.6-29.87h15.38v-21.26h-50.79v21.26h15.75c-.62,10.02-4.03,25.49-18.45,31.97l-2.02.91.92,2.02,7.56,16.7.91,2.01,2.01-.9c8.36-3.75,14.79-10.67,19.15-20.61,4.34,8.89,10.42,15.14,18.11,18.6l2.02.91.91-2.02,6.15-13.75v28.95h19.18v-94.19h0ZM319.82,168.43h-19.18v45.83h64.54v-21.39h-45.36v-24.44h0Z"/>
    </g>
    <g>
      <path class="cls-4" d="M389.37,233.72v-38.81h42.63v-2.33h-42.72v-18.51h59.5v38.41h-42.63v2.6h44.72v18.64h-61.51ZM431.82,171.61v-9.08h-15.56c-4.32,5.52-10.35,8.55-17.03,8.55-13.66,0-23.97-13.05-23.97-30.36s10.3-30.36,23.97-30.36c6.59,0,12.58,2.98,16.93,8.42h15.66v-11.22h16.97v64.06h-16.97ZM399.22,129.93c-4.97,0-7.82,3.93-7.82,10.78s2.85,10.92,7.82,10.92,7.82-3.98,7.82-10.92-2.85-10.78-7.82-10.78ZM431.82,143.88v-6.47h-8.78c.1,1.1.15,2.21.15,3.3s-.05,2.16-.11,3.17h8.73Z"/>
      <path class="cls-3" d="M447.68,108.66v61.85h-14.75v-9.08h-17.21c-4.1,5.48-9.84,8.55-16.49,8.55-13.02,0-22.86-12.29-22.86-29.25s9.84-29.25,22.86-29.25c6.56,0,12.3,3.07,16.39,8.42h17.31v-11.22h14.75M399.22,152.74c5.28,0,8.93-4.01,8.93-12.02s-3.64-11.89-8.93-11.89-8.93,4.01-8.93,11.89,3.64,12.02,8.93,12.02M421.9,144.99h11.02v-8.68h-11.11c.18,1.47.27,2.94.27,4.41s-.09,2.94-.18,4.27M447.68,175.18v36.2h-42.63v4.81h44.72v16.43h-59.29v-36.6h42.63v-4.54h-42.72v-16.3h57.29M449.89,106.45h-19.18v11.22h-14.03c-4.54-5.44-10.69-8.42-17.46-8.42s-13.43,3.23-18.05,9.11c-4.53,5.75-7.02,13.69-7.02,22.36s2.49,16.6,7.02,22.36c4.62,5.87,11.04,9.11,18.05,9.11s13.06-3.03,17.56-8.55h13.92v9.08h19.18v-66.27h0ZM399.22,150.53c-5.84,0-6.71-6.15-6.71-9.81s.87-9.68,6.71-9.68,6.71,6.06,6.71,9.68-.87,9.81-6.71,9.81h0ZM424.23,138.52h6.48v4.26h-6.46c.03-.67.05-1.37.05-2.06,0-.73-.02-1.46-.06-2.2h0ZM449.89,172.97h-61.71v20.72h42.72v.12h-42.63v41.02h63.72v-20.85h-44.72v-.38h42.63v-40.62h0Z"/>
    </g>
    <g>
      <path class="cls-4" d="M500.12,141.76V13.72h16.97v128.04h-16.97ZM442.71,98.67h1.22c5.63,0,11.97,0,18.66-.34v-21.61c-3.27,3.37-7.07,5.97-11.4,7.78l-1.02.43-7.97-19.03,1.05-.41c8.74-3.45,19.16-12.2,19.16-34.24v-8.45h17.33v8.32c0,9.21,2.43,25.62,18.7,32.1l1.04.41-7.77,18.88-1.02-.41c-8.51-3.45-14.99-9.94-19.29-19.31-2.17,5.32-4.96,9.8-8.35,13.44h16.5v20.98c6.95-.75,12.31-1.54,17.26-2.53l1.24-.25,1.14,17.64-.85.25c-18.57,5.47-39.09,5.66-52.67,5.79h-1.01s-1.95-19.44-1.95-19.44Z"/>
      <path class="cls-3" d="M515.98,14.82v125.83h-14.76V14.82h14.76M478.64,23.91v7.21c0,13.09,4.65,27.25,19.4,33.13l-6.92,16.83c-9.56-3.87-15.85-11.35-19.76-21.24-3.83,10.82-10.38,19.37-20.58,23.64l-7.1-16.96c15.21-6.01,19.86-20.97,19.86-35.26v-7.35h15.12M478.46,77.33v21.11c6.38-.67,12.57-1.47,18.58-2.67l1,15.5c-18.13,5.34-37.89,5.61-52.37,5.74l-1.73-17.23c5.83,0,12.66,0,19.76-.4v-22.04h14.76M518.19,12.61h-19.18v49.64l-.16-.06c-15.67-6.24-18.01-22.15-18.01-31.07v-9.43h-19.54v9.56c0,21.42-10.04,29.88-18.46,33.21l-2.1.83.87,2.08,7.1,16.96.85,2.04,2.04-.86c3.66-1.53,6.95-3.6,9.87-6.21v17.96c-6.28.29-12.23.29-17.55.29h-2.45l.24,2.43,1.73,17.23.2,2.01,2.02-.02c13.64-.13,34.26-.32,52.98-5.83l.35-.1v29.58h19.18V12.61h0ZM465.5,75.12c2.3-2.81,4.29-6.04,5.97-9.69,1.93,3.72,4.24,6.95,6.9,9.69h-12.87ZM492.33,83.95l.84-2.03,5.85-14.23v25.43l-2.41.48c-4.62.92-9.61,1.67-15.93,2.38v-18.69c2.85,2.45,6.06,4.4,9.62,5.84l2.04.83h0Z"/>
    </g>
  </g>
  <g>
    <g>
      <path class="cls-4" d="M80.06,283.82c-1.43,0-3-.12-4.66-.34-1.62-.22-3.28-.52-4.91-.88-1.62-.36-3.21-.77-4.71-1.22-1.52-.46-2.82-.92-3.86-1.38l-.74-.32,1.84-17.59,1.34.51c1.17.44,2.38.89,3.64,1.33,1.22.43,2.4.81,3.51,1.11,1.08.3,2.1.54,3.01.71.86.16,1.56.25,2.09.25,4.06,0,7.03-.98,8.84-2.92,1.83-1.96,2.76-5.59,2.76-10.8,0-2.04-.21-3.96-.61-5.69-.39-1.65-1.09-3.09-2.1-4.28-1-1.19-2.39-2.14-4.14-2.82-1.79-.7-4.12-1.06-6.92-1.06-1.34,0-2.84.04-4.44.13-1.58.09-3.45.27-5.55.53l-1.32.16,2.34-41.56h-1.64c-1.3,0-2.46-.61-3.37-1.76-.86-1.1-1.28-2.76-1.28-5.09s.42-3.99,1.28-5.09c.9-1.15,2.07-1.76,3.36-1.76h39.95v17.84h-21.78l-1.15,18.81c3.07.18,6.01.77,8.77,1.75,3.15,1.12,5.96,2.97,8.35,5.49,2.38,2.51,4.29,5.81,5.67,9.82,1.38,3.98,2.07,8.97,2.07,14.85,0,9.81-2.01,17.54-5.96,22.96-4.04,5.53-10.66,8.33-19.67,8.33Z"/>
      <path class="cls-3" d="M102.66,185.07v15.63h-21.72l-1.29,20.97c3.38.09,6.57.67,9.57,1.74,3,1.07,5.64,2.8,7.92,5.21,2.28,2.4,4.09,5.54,5.43,9.42,1.34,3.87,2.01,8.71,2.01,14.49,0,9.62-1.92,17.05-5.75,22.31-3.83,5.25-10.09,7.88-18.78,7.88-1.39,0-2.9-.11-4.5-.33-1.61-.22-3.22-.51-4.83-.87-1.61-.36-3.15-.76-4.62-1.2-1.48-.45-2.72-.89-3.74-1.34l1.61-15.36c1.18.45,2.4.89,3.66,1.34,1.26.45,2.45.82,3.58,1.14,1.13.31,2.16.56,3.1.73.94.18,1.7.27,2.29.27,4.4,0,7.61-1.09,9.65-3.27,2.04-2.18,3.06-6.03,3.06-11.55,0-2.14-.22-4.12-.64-5.94-.43-1.82-1.21-3.41-2.33-4.74-1.13-1.34-2.65-2.38-4.58-3.14-1.93-.76-4.37-1.14-7.32-1.14-1.39,0-2.9.05-4.5.13-1.61.09-3.49.27-5.63.53l2.33-41.41h-2.81c-.97,0-1.8-.44-2.49-1.34-.7-.89-1.05-2.36-1.05-4.41s.35-3.52,1.05-4.41c.7-.89,1.53-1.34,2.49-1.34h38.85M104.87,182.86h-41.06c-1.15,0-2.82.38-4.23,2.18-1.02,1.3-1.52,3.19-1.52,5.77s.5,4.47,1.52,5.77c1.41,1.8,3.08,2.18,4.23,2.18h.47l-2.2,39.07-.15,2.65,2.63-.33c2.08-.26,3.92-.43,5.48-.52,1.58-.09,3.06-.13,4.38-.13,2.66,0,4.85.33,6.51.98,1.57.62,2.82,1.46,3.7,2.51.91,1.07,1.52,2.32,1.87,3.82.39,1.65.58,3.48.58,5.44,0,4.85-.85,8.32-2.46,10.04-1.59,1.71-4.3,2.57-8.04,2.57-.32,0-.9-.04-1.88-.23-.88-.17-1.87-.4-2.92-.69-1.08-.3-2.24-.67-3.43-1.09-1.25-.44-2.46-.88-3.62-1.32l-2.68-1.02-.3,2.85-1.61,15.36-.17,1.61,1.48.65c1.1.48,2.41.95,3.99,1.43,1.53.46,3.14.88,4.79,1.24,1.67.37,3.35.67,5,.9,1.71.24,3.33.35,4.81.35,9.39,0,16.31-2.96,20.57-8.79,4.1-5.62,6.18-13.56,6.18-23.61,0-6.01-.72-11.12-2.13-15.22-1.44-4.16-3.43-7.59-5.91-10.22-2.51-2.65-5.47-4.59-8.79-5.77-2.52-.9-5.19-1.48-7.97-1.73l1.02-16.68h21.85v-20.05h0Z"/>
    </g>
    <g>
      <path class="cls-4" d="M128.72,359.3c-8.39,0-14.8-4.04-19.03-12.01-4.12-7.74-6.2-18.68-6.2-32.51,0-11.62,1.07-21.38,3.18-29.01,2.12-7.69,5.08-13.82,8.78-18.25,3.74-4.47,8.17-7.51,13.15-9.03,3.32-1.02,6.83-1.53,10.44-1.53,1.74,0,3.54.12,5.35.36l.96.13v17.71h-1.11c-3,0-5.78.33-8.25.97-2.42.63-4.61,1.71-6.51,3.21-1.91,1.5-3.6,3.59-5.02,6.2-.98,1.8-1.83,3.96-2.56,6.46,1.22-.98,2.51-1.74,3.84-2.27,2.38-.94,4.68-1.41,6.84-1.41,3,0,5.79.85,8.3,2.52,2.46,1.65,4.59,3.99,6.33,6.97,1.71,2.93,3.05,6.52,3.99,10.67.92,4.12,1.39,8.8,1.39,13.94,0,5.41-.58,10.42-1.72,14.9-1.15,4.5-2.79,8.43-4.89,11.68-2.12,3.29-4.67,5.85-7.59,7.62-2.95,1.79-6.2,2.7-9.66,2.7ZM128.72,306.13c-1.56,0-3.03.78-4.49,2.38-1.5,1.65-2.54,4.53-3.1,8.56-.05.4-.09.94-.11,1.56-.03.65-.04,1.38-.04,2.16.1,7.38.87,12.81,2.28,16.13,1.3,3.05,3.08,4.54,5.46,4.54,1.78,0,3.23-1.33,4.41-4.07,1.3-3,1.96-8.05,1.96-14.99,0-3.03-.2-5.67-.58-7.82-.38-2.11-.9-3.83-1.55-5.11-.61-1.21-1.29-2.08-2.02-2.6-.7-.49-1.43-.73-2.22-.73Z"/>
      <path class="cls-3" d="M139.03,258.06c1.7,0,3.44.12,5.21.35v15.63c-3.11,0-5.95.33-8.53,1-2.57.67-4.88,1.8-6.92,3.41-2.04,1.6-3.81,3.79-5.31,6.54-1.5,2.76-2.71,6.28-3.62,10.55,1.93-2.31,4.02-3.92,6.27-4.81,2.25-.89,4.4-1.34,6.43-1.34,2.79,0,5.35.78,7.68,2.34,2.33,1.56,4.33,3.76,5.99,6.61,1.66,2.85,2.95,6.3,3.86,10.35.91,4.05,1.37,8.62,1.37,13.69,0,5.34-.56,10.22-1.69,14.63-1.13,4.41-2.71,8.19-4.75,11.35-2.04,3.16-4.45,5.59-7.24,7.28-2.79,1.69-5.82,2.54-9.09,2.54-7.99,0-14.01-3.81-18.06-11.42-4.05-7.61-6.07-18.28-6.07-31.99,0-11.58,1.05-21.15,3.14-28.72,2.09-7.57,4.95-13.51,8.57-17.83,3.62-4.32,7.83-7.21,12.63-8.68,3.23-.99,6.6-1.48,10.12-1.48M128.72,342.56c2.25,0,4.06-1.58,5.43-4.74,1.37-3.16,2.05-8.3,2.05-15.43,0-3.12-.2-5.79-.6-8.01-.4-2.23-.95-4.03-1.65-5.41-.7-1.38-1.49-2.38-2.37-3.01-.88-.62-1.84-.93-2.86-.93-1.88,0-3.65.91-5.31,2.74-1.66,1.83-2.79,4.88-3.38,9.15-.05.45-.09,1-.12,1.67-.03.67-.04,1.4-.04,2.2.11,7.57.9,13.09,2.37,16.56,1.47,3.47,3.63,5.21,6.47,5.21M139.03,255.84h0c-3.72,0-7.34.53-10.76,1.58-5.19,1.59-9.79,4.74-13.68,9.38-3.81,4.54-6.84,10.82-9,18.66-2.13,7.73-3.22,17.59-3.22,29.31,0,14.02,2.13,25.13,6.33,33.03,4.44,8.36,11.18,12.59,20.01,12.59,3.66,0,7.11-.96,10.24-2.86,3.07-1.86,5.74-4.54,7.95-7.97,2.16-3.35,3.85-7.39,5.03-12.01,1.17-4.57,1.76-9.67,1.76-15.17,0-5.21-.48-9.98-1.42-14.18-.96-4.25-2.34-7.95-4.11-10.98-1.83-3.13-4.07-5.6-6.67-7.34-2.69-1.8-5.69-2.71-8.91-2.71-2.31,0-4.74.5-7.25,1.49-.47.18-.92.39-1.38.63.46-1.2.95-2.29,1.48-3.26,1.35-2.48,2.94-4.46,4.73-5.86,1.79-1.41,3.84-2.42,6.11-3,2.38-.62,5.06-.93,7.97-.93h2.21v-19.78l-1.92-.25c-1.86-.24-3.7-.37-5.5-.37h0ZM128.72,340.35c-1.2,0-2.97-.4-4.44-3.86-1.36-3.19-2.09-8.48-2.2-15.73,0-.77.01-1.46.04-2.08.02-.6.06-1.11.11-1.5.52-3.76,1.47-6.44,2.82-7.92,1.24-1.36,2.44-2.02,3.67-2.02.56,0,1.07.17,1.58.53.57.4,1.15,1.16,1.67,2.19.6,1.19,1.08,2.8,1.45,4.81.38,2.09.57,4.65.57,7.62,0,6.79-.63,11.68-1.87,14.55-1.47,3.41-2.92,3.41-3.4,3.41h0Z"/>
    </g>
    <g>
      <path class="cls-4" d="M175.77,323.92c-3.08,0-6.16-.39-9.17-1.17-3.08-.8-5.86-2.3-8.26-4.46-2.4-2.15-4.35-5.15-5.8-8.91-1.44-3.71-2.17-8.54-2.17-14.36,0-4.29.52-8.02,1.54-11.1,1.02-3.08,2.28-5.65,3.73-7.65,1.46-2,2.97-3.58,4.5-4.71.7-.52,1.35-.96,1.95-1.32-2.72-1.81-4.91-4.38-6.51-7.66-1.92-3.92-2.89-8.6-2.89-13.91,0-7.96,1.94-14.54,5.78-19.57,3.9-5.12,9.72-7.72,17.29-7.72s13.38,2.6,17.29,7.71c3.83,5.03,5.78,11.62,5.78,19.57,0,5.31-.97,9.99-2.89,13.91-1.61,3.29-3.79,5.85-6.51,7.66.6.36,1.25.8,1.95,1.32,1.53,1.13,3.04,2.71,4.5,4.71,1.45,2,2.71,4.57,3.74,7.65,1.02,3.09,1.54,6.82,1.54,11.1,0,5.81-.73,10.64-2.17,14.36-1.45,3.75-3.4,6.75-5.8,8.91-2.41,2.16-5.19,3.66-8.26,4.46-3,.78-6.09,1.17-9.17,1.17ZM175.77,278.51c-2.4,0-4.28,1.14-5.74,3.49-1.54,2.48-2.33,6.1-2.33,10.77s.78,8.29,2.33,10.77c1.46,2.35,3.33,3.49,5.74,3.49s4.28-1.14,5.74-3.49c1.54-2.48,2.33-6.11,2.33-10.77s-.78-8.29-2.33-10.77c-1.46-2.35-3.34-3.49-5.74-3.49ZM175.85,238.43c-2.1,0-3.63.97-4.69,2.95-1.17,2.19-1.76,5.23-1.76,9.03s.59,6.82,1.76,8.95c1.06,1.95,2.6,2.9,4.7,2.9s3.66-.95,4.74-2.9c1.19-2.14,1.79-5.15,1.79-8.95s-.6-6.83-1.8-9.02c-1.09-1.99-2.64-2.96-4.74-2.96Z"/>
      <path class="cls-3" d="M175.77,222.5c7.24,0,12.71,2.43,16.41,7.28,3.7,4.86,5.55,11.15,5.55,18.9,0,5.17-.92,9.64-2.77,13.42-1.85,3.79-4.46,6.52-7.84,8.22.96.36,2.17,1.07,3.62,2.14s2.87,2.56,4.26,4.47c1.39,1.92,2.59,4.36,3.58,7.35.99,2.98,1.49,6.57,1.49,10.75,0,5.7-.7,10.35-2.09,13.96-1.39,3.61-3.23,6.43-5.51,8.48-2.28,2.05-4.88,3.45-7.8,4.21-2.92.76-5.89,1.14-8.89,1.14s-5.97-.38-8.89-1.14c-2.92-.76-5.52-2.16-7.8-4.21-2.28-2.05-4.12-4.88-5.51-8.48-1.4-3.61-2.09-8.26-2.09-13.96,0-4.18.5-7.77,1.49-10.75.99-2.98,2.18-5.43,3.58-7.35,1.39-1.91,2.81-3.41,4.26-4.47,1.45-1.07,2.65-1.78,3.62-2.14-3.38-1.69-5.99-4.43-7.84-8.22-1.85-3.78-2.77-8.26-2.77-13.42,0-7.75,1.85-14.05,5.55-18.9,3.7-4.85,9.17-7.28,16.41-7.28M175.85,263.37c2.52,0,4.42-1.16,5.71-3.47,1.29-2.31,1.93-5.48,1.93-9.48s-.64-7.19-1.93-9.55c-1.29-2.36-3.19-3.54-5.71-3.54s-4.41,1.18-5.67,3.54c-1.26,2.36-1.89,5.54-1.89,9.55s.63,7.17,1.89,9.48c1.26,2.32,3.15,3.47,5.67,3.47M175.77,308.12c2.79,0,5.01-1.34,6.68-4.01,1.66-2.67,2.49-6.46,2.49-11.35s-.83-8.68-2.49-11.35c-1.66-2.67-3.89-4.01-6.68-4.01s-5.01,1.34-6.68,4.01c-1.66,2.67-2.49,6.46-2.49,11.35s.83,8.68,2.49,11.35c1.66,2.67,3.89,4.01,6.68,4.01M175.77,220.29c-7.93,0-14.04,2.74-18.17,8.15-3.98,5.23-6,12.04-6,20.24,0,5.48,1.01,10.32,3,14.4,1.42,2.92,3.29,5.3,5.56,7.12-.22.15-.44.31-.66.48-1.62,1.2-3.21,2.86-4.74,4.95-1.52,2.09-2.83,4.77-3.89,7.95-1.06,3.19-1.6,7.05-1.6,11.45,0,5.95.75,10.91,2.24,14.76,1.51,3.92,3.56,7.06,6.09,9.33,2.54,2.28,5.47,3.86,8.73,4.7,3.09.8,6.27,1.21,9.44,1.21s6.35-.41,9.44-1.21c3.25-.84,6.19-2.42,8.73-4.7,2.53-2.27,4.58-5.41,6.09-9.33,1.49-3.85,2.24-8.81,2.24-14.76,0-4.4-.54-8.25-1.6-11.45-1.06-3.19-2.37-5.86-3.89-7.95-1.53-2.09-3.12-3.76-4.74-4.95-.23-.17-.45-.33-.66-.48,2.27-1.82,4.14-4.21,5.56-7.12,1.99-4.07,3-8.91,3-14.4,0-8.21-2.02-15.02-6-20.24-4.12-5.41-10.24-8.15-18.17-8.15h0ZM175.85,261.16c-1.71,0-2.86-.71-3.73-2.32-1.08-1.98-1.62-4.81-1.62-8.43s.55-6.48,1.63-8.51c.87-1.64,2.02-2.37,3.72-2.37s2.87.74,3.77,2.39c1.1,2.02,1.66,4.88,1.66,8.49s-.56,6.44-1.65,8.41c-.9,1.62-2.06,2.34-3.78,2.34h0ZM175.77,305.91c-2.02,0-3.54-.94-4.8-2.96-1.43-2.3-2.16-5.73-2.16-10.19s.73-7.88,2.16-10.18c1.26-2.02,2.78-2.96,4.8-2.96s3.54.94,4.8,2.96c1.43,2.3,2.16,5.73,2.16,10.18s-.73,7.88-2.16,10.19c-1.26,2.02-2.78,2.96-4.8,2.96h0Z"/>
    </g>
    <g>
      <rect class="cls-4" x="225.94" y="275.56" width="37.6" height="17.84"/>
      <path class="cls-3" d="M262.44,276.66v15.63h-35.39v-15.63h35.39M264.65,274.45h-39.81v20.05h39.81v-20.05h0Z"/>
    </g>
    <g>
      <path class="cls-4" d="M288.07,341.42v-66.66h-10.78v-16.91h1.11c4.5,0,7.86-.86,10.01-2.57,2.07-1.64,3.12-5.03,3.12-10.09v-1.11h14.04v97.32h-17.5Z"/>
      <path class="cls-3" d="M304.46,245.21v95.11h-15.28v-66.66h-10.78v-14.69c4.77,0,8.34-.93,10.7-2.8,2.36-1.87,3.54-5.52,3.54-10.95h11.82M306.67,242.99h-16.25v2.21c0,4.63-.93,7.82-2.7,9.22-1.95,1.54-5.08,2.33-9.32,2.33h-2.21v19.12h10.78v66.66h19.71v-99.53h0Z"/>
    </g>
    <g>
      <path class="cls-4" d="M339.13,305.35c-1.96,0-3.95-.26-5.91-.77-1.93-.5-3.82-1.18-5.61-2-1.79-.82-3.48-1.77-5.03-2.83-1.55-1.06-2.94-2.21-4.11-3.42l-.42-.44,3.76-15.77,1.36,1.08c2.18,1.72,4.56,3.21,7.07,4.41,2.44,1.17,4.91,1.76,7.36,1.76,7,0,10.4-4.23,10.4-12.92,0-2.53-.29-4.66-.86-6.32-.56-1.62-1.29-2.9-2.16-3.8-.86-.88-1.87-1.5-3.02-1.85-1.23-.37-2.53-.55-3.87-.55h-11.24v-17.84h11.08c1.08,0,2.12-.14,3.12-.42.9-.25,1.69-.8,2.44-1.66.78-.9,1.42-2.2,1.91-3.86.5-1.72.76-4.06.76-6.97,0-3.63-.72-6.31-2.15-7.96-1.4-1.63-3.15-2.42-5.35-2.42-1.71,0-3.58.44-5.54,1.31-2.02.89-4.53,2.49-7.45,4.74l-1.37,1.06-3.75-16.53.54-.43c2.39-1.9,5.24-3.71,8.46-5.39,3.31-1.72,7.11-2.6,11.29-2.6,3.58,0,6.84.69,9.69,2.04,2.85,1.36,5.28,3.28,7.22,5.72,1.93,2.42,3.42,5.3,4.42,8.58.99,3.25,1.5,6.8,1.5,10.54,0,3.99-.45,7.71-1.32,11.04-.81,3.08-2.33,5.92-4.52,8.43,2.18,2.28,3.98,5.35,5.38,9.14,1.54,4.2,2.32,9.36,2.32,15.34,0,4.99-.64,9.49-1.9,13.37-1.27,3.91-3.08,7.25-5.36,9.92-2.3,2.7-5.11,4.78-8.37,6.18-3.23,1.39-6.84,2.09-10.73,2.09Z"/>
      <path class="cls-3" d="M340.82,204.06c3.43,0,6.5.65,9.21,1.94,2.71,1.29,4.99,3.1,6.84,5.41,1.85,2.32,3.26,5.05,4.22,8.21.97,3.16,1.45,6.57,1.45,10.22,0,3.92-.43,7.5-1.29,10.75-.86,3.25-2.52,6.17-4.99,8.75,2.41,2.23,4.37,5.39,5.87,9.48,1.5,4.1,2.25,9.08,2.25,14.96,0,4.9-.62,9.24-1.85,13.02-1.23,3.79-2.95,6.97-5.15,9.55-2.2,2.58-4.85,4.54-7.96,5.88-3.11,1.34-6.54,2-10.3,2-1.88,0-3.75-.25-5.63-.73-1.88-.49-3.69-1.14-5.43-1.94-1.74-.8-3.37-1.72-4.87-2.74-1.5-1.02-2.82-2.11-3.94-3.27l3.22-13.49c2.25,1.78,4.68,3.3,7.28,4.54,2.6,1.25,5.21,1.87,7.84,1.87,7.67,0,11.5-4.68,11.5-14.03,0-2.67-.31-4.9-.92-6.68-.62-1.78-1.42-3.18-2.41-4.21-.99-1.02-2.16-1.74-3.5-2.14-1.34-.4-2.73-.6-4.18-.6h-10.13v-15.63h9.97c1.18,0,2.32-.15,3.42-.47,1.1-.31,2.09-.98,2.98-2,.88-1.02,1.59-2.45,2.13-4.27.54-1.82.8-4.25.8-7.28,0-3.92-.8-6.81-2.41-8.68-1.61-1.87-3.67-2.81-6.19-2.81-1.88,0-3.87.47-5.99,1.4-2.12.93-4.68,2.56-7.68,4.88l-3.22-14.16c2.36-1.87,5.12-3.63,8.28-5.28,3.16-1.65,6.76-2.47,10.78-2.47M340.82,201.85c-4.36,0-8.33.92-11.8,2.72-3.28,1.71-6.19,3.56-8.64,5.51l-1.09.87.31,1.36,3.22,14.16.77,3.37,2.74-2.11c2.85-2.2,5.28-3.75,7.22-4.6,1.83-.81,3.54-1.22,5.1-1.22,1.89,0,3.32.65,4.52,2.04,1.25,1.45,1.88,3.88,1.88,7.24,0,2.8-.24,5.04-.71,6.66-.44,1.51-1.01,2.67-1.68,3.45-.6.7-1.23,1.13-1.91,1.32-.89.25-1.84.38-2.82.38h-12.19v20.05h12.35c1.23,0,2.42.17,3.55.51.98.29,1.81.8,2.55,1.56.76.78,1.4,1.93,1.91,3.39.53,1.54.8,3.55.8,5.95,0,10.47-4.96,11.81-9.29,11.81-2.28,0-4.6-.56-6.88-1.65-2.44-1.17-4.75-2.61-6.86-4.28l-2.72-2.15-.8,3.37-3.22,13.49-.28,1.18.85.87c1.23,1.26,2.67,2.46,4.28,3.56,1.6,1.09,3.34,2.07,5.19,2.92,1.85.85,3.8,1.55,5.79,2.07,2.06.54,4.14.81,6.19.81,4.04,0,7.79-.73,11.17-2.18,3.41-1.46,6.36-3.64,8.77-6.48,2.38-2.79,4.25-6.26,5.57-10.3,1.3-3.99,1.96-8.6,1.96-13.71,0-6.11-.8-11.4-2.39-15.72-1.3-3.55-2.96-6.5-4.95-8.79,1.96-2.45,3.35-5.17,4.12-8.11.9-3.42,1.36-7.23,1.36-11.32,0-3.85-.52-7.51-1.54-10.86-1.04-3.41-2.59-6.42-4.61-8.95-2.05-2.57-4.61-4.59-7.61-6.03-3-1.43-6.42-2.15-10.16-2.15h0Z"/>
    </g>
    <g>
      <path class="cls-4" d="M383.63,247.28l-8.39,6.76-10.61-13.17.86-.69c3.5-2.82,5.58-5.6,6.19-8.28.58-2.58-.73-5.88-3.9-9.81l-.69-.86,10.93-8.8,61.05,75.79-13.62,10.97-41.81-51.91Z"/>
      <path class="cls-3" d="M377.85,213.98l59.66,74.07-11.9,9.59-41.81-51.91-8.39,6.76-9.22-11.44c3.72-2.99,5.91-5.96,6.57-8.89.66-2.94-.71-6.52-4.12-10.75l9.21-7.42M378.18,210.87l-1.72,1.39-9.21,7.42-1.72,1.39,1.39,1.72c2.91,3.61,4.18,6.68,3.68,8.87-.55,2.42-2.5,5-5.8,7.66l-1.72,1.39,1.39,1.72,9.22,11.44,1.39,1.72,1.72-1.39,6.67-5.37,40.43,50.19,1.39,1.72,1.72-1.39,11.9-9.59,1.72-1.39-1.39-1.72-59.66-74.07-1.39-1.72h0Z"/>
    </g>
    <g>
      <path class="cls-4" d="M455.81,333.91c-1.96,0-3.95-.26-5.91-.77-1.93-.5-3.82-1.18-5.61-2-1.79-.82-3.48-1.77-5.03-2.83-1.55-1.06-2.94-2.21-4.11-3.42l-.42-.44,3.76-15.77,1.36,1.08c2.18,1.72,4.56,3.21,7.07,4.41,2.44,1.17,4.91,1.76,7.36,1.76,7,0,10.4-4.23,10.4-12.92,0-2.53-.29-4.66-.86-6.32-.56-1.62-1.29-2.9-2.16-3.8-.86-.88-1.87-1.5-3.02-1.85-1.23-.37-2.53-.55-3.87-.55h-11.24v-17.84h11.08c1.08,0,2.12-.14,3.12-.42.88-.25,1.71-.81,2.44-1.66.78-.9,1.42-2.2,1.91-3.86.5-1.72.76-4.06.76-6.97,0-3.63-.72-6.31-2.14-7.96-1.4-1.63-3.15-2.42-5.36-2.42-1.71,0-3.58.44-5.54,1.31-2.03.89-4.53,2.49-7.45,4.74l-1.37,1.06-3.75-16.53.54-.43c2.4-1.9,5.24-3.71,8.46-5.39,3.31-1.72,7.11-2.6,11.29-2.6,3.58,0,6.84.69,9.69,2.04,2.85,1.36,5.28,3.28,7.22,5.72,1.93,2.42,3.42,5.3,4.42,8.58.99,3.25,1.5,6.8,1.5,10.54,0,3.99-.45,7.71-1.32,11.04-.81,3.08-2.33,5.91-4.52,8.43,2.18,2.28,3.98,5.35,5.38,9.14,1.54,4.21,2.32,9.37,2.32,15.34,0,4.99-.64,9.49-1.9,13.37-1.27,3.91-3.08,7.25-5.36,9.92-2.3,2.7-5.11,4.78-8.37,6.18-3.23,1.39-6.85,2.09-10.73,2.09Z"/>
      <path class="cls-3" d="M457.5,232.62c3.43,0,6.5.65,9.21,1.94,2.71,1.29,4.99,3.1,6.84,5.41,1.85,2.32,3.26,5.05,4.22,8.21.97,3.16,1.45,6.57,1.45,10.22,0,3.92-.43,7.5-1.29,10.75-.86,3.25-2.52,6.17-4.99,8.75,2.41,2.23,4.37,5.39,5.87,9.48,1.5,4.1,2.25,9.08,2.25,14.96,0,4.9-.62,9.24-1.85,13.02-1.23,3.79-2.95,6.97-5.15,9.55-2.2,2.58-4.85,4.54-7.96,5.88-3.11,1.34-6.54,2-10.3,2-1.88,0-3.75-.25-5.63-.73-1.88-.49-3.69-1.14-5.43-1.94-1.74-.8-3.37-1.72-4.87-2.74-1.5-1.02-2.82-2.11-3.94-3.27l3.22-13.49c2.25,1.78,4.68,3.3,7.28,4.54,2.6,1.25,5.21,1.87,7.84,1.87,7.67,0,11.5-4.68,11.5-14.03,0-2.67-.31-4.9-.92-6.68-.62-1.78-1.42-3.18-2.41-4.21-.99-1.02-2.16-1.74-3.5-2.14-1.34-.4-2.73-.6-4.18-.6h-10.13v-15.63h9.97c1.18,0,2.32-.15,3.42-.47,1.1-.31,2.09-.98,2.98-2,.88-1.02,1.59-2.45,2.13-4.27.54-1.82.8-4.25.8-7.28,0-3.92-.8-6.81-2.41-8.68-1.61-1.87-3.67-2.81-6.19-2.81-1.88,0-3.87.47-5.99,1.4-2.12.93-4.68,2.56-7.68,4.88l-3.22-14.16c2.36-1.87,5.12-3.63,8.28-5.28,3.16-1.65,6.76-2.47,10.78-2.47M457.5,230.41c-4.36,0-8.33.92-11.8,2.72-3.28,1.71-6.19,3.56-8.64,5.51l-1.09.87.31,1.36,3.22,14.16.77,3.37,2.74-2.11c2.85-2.2,5.28-3.75,7.22-4.6,1.83-.81,3.54-1.22,5.1-1.22,1.89,0,3.32.65,4.52,2.04,1.25,1.45,1.88,3.88,1.88,7.24,0,2.8-.24,5.04-.71,6.66-.44,1.51-1.01,2.67-1.68,3.45-.6.7-1.23,1.13-1.91,1.32-.89.25-1.84.38-2.82.38h-12.19v20.05h12.35c1.23,0,2.42.17,3.55.51.98.29,1.81.8,2.55,1.56.76.78,1.4,1.93,1.91,3.39.53,1.54.8,3.55.8,5.95,0,10.47-4.96,11.81-9.29,11.81-2.28,0-4.6-.56-6.88-1.65-2.44-1.17-4.75-2.61-6.86-4.28l-2.72-2.15-.8,3.37-3.22,13.49-.28,1.18.85.87c1.23,1.26,2.67,2.46,4.28,3.56,1.6,1.09,3.34,2.07,5.19,2.92,1.85.85,3.8,1.55,5.79,2.07,2.06.54,4.14.81,6.19.81,4.04,0,7.8-.73,11.17-2.18,3.41-1.46,6.36-3.64,8.77-6.48,2.38-2.79,4.25-6.26,5.57-10.3,1.3-3.99,1.96-8.6,1.96-13.71,0-6.11-.8-11.4-2.39-15.72-1.3-3.55-2.96-6.5-4.95-8.79,1.96-2.45,3.35-5.17,4.12-8.11.9-3.42,1.36-7.23,1.36-11.32,0-3.85-.52-7.51-1.54-10.86-1.04-3.41-2.59-6.42-4.61-8.95-2.05-2.57-4.61-4.59-7.61-6.03-3-1.43-6.42-2.15-10.16-2.15h0Z"/>
    </g>
  </g>
</svg>