<?xml version="1.0" encoding="UTF-8"?>
<svg id="_레이어_1" data-name="레이어 1" xmlns="http://www.w3.org/2000/svg" viewBox="0 0 145.37 157.08">
  <defs>
    <style>
      .cls-1 {
        fill: #fff;
      }

      .cls-2 {
        fill: #1f8331;
      }
    </style>
  </defs>
  <path class="cls-2" d="M89.34,127.62V29.46h18.55v36.32h16.59v13.55h-16.59v48.29h-18.55ZM20.89,105.87V37.37h55.81v13.35h-37.26v13.4h35.65v12.93h-35.65v15.58c14.85-.12,27.9-.6,42.82-2.48l1.09-.14,1.78,13.12-1.11.14c-17.23,2.17-32.82,2.61-52.37,2.61h-10.76Z"/>
  <path class="cls-1" d="M106.79,30.56v36.32h16.59v11.34h-16.59v48.29h-16.34V30.56h16.34M75.6,38.47v11.13h-37.26v15.61h35.65v10.72h-35.65v17.79c16.09-.1,29.21-.62,44.07-2.5l1.48,10.93c-17.33,2.19-32.68,2.6-52.23,2.6h-9.65V38.47h53.6M109,28.35h-20.76v100.37h20.76v-48.29h16.59v-15.77h-16.59V28.35h0ZM77.81,36.26H19.79v70.71h11.87c19.6,0,35.22-.44,52.51-2.62l2.22-.28-.3-2.21-1.48-10.93-.29-2.17-2.17.27c-14.49,1.83-27.23,2.33-41.58,2.46v-13.35h35.65v-15.14h-35.65v-11.19h37.26v-15.56h0Z"/>
</svg>