<?xml version="1.0" encoding="UTF-8"?>
<svg id="_레이어_1" data-name="레이어 1" xmlns="http://www.w3.org/2000/svg" viewBox="0 0 145.37 157.08">
  <defs>
    <style>
      .cls-1 {
        fill: #fff;
      }

      .cls-2 {
        fill: #1f8331;
      }
    </style>
  </defs>
  <path class="cls-2" d="M102.96,127.57V29.51h18.55v98.06h-18.55ZM55.77,104.47l.93-1.02c12.84-14.17,18.38-28.49,19.59-50.81h-12.07v-13.24h29.82v1.11c0,28.62-3.82,51.8-22.45,71.93l-.59.64-15.21-8.6ZM23.17,97.7l1.04-.98c13.19-12.4,18.92-24.84,20.25-44.08h-15.15v-13.24h33.04v1.11c0,15.1-1.39,26.12-4.51,35.74-3.71,11.42-10.12,21.24-19.61,30.01l-.62.58-14.43-9.13Z"/>
  <path class="cls-1" d="M120.4,30.62v95.84h-16.34V30.62h16.34M92.93,40.5c0,27.27-3.47,50.99-22.16,71.18l-13.25-7.49c14.24-15.71,18.94-31.53,19.93-52.66h-12.13v-11.03h27.6M61.24,40.5c0,26.12-3.96,46.62-23.77,64.94l-12.5-7.91c14.61-13.74,19.56-27.06,20.67-46h-15.22v-11.03h30.82M122.62,28.4h-20.76v100.27h20.76V28.4h0ZM95.14,38.29H28.2v15.46h15.07c-1.46,18.26-7.13,30.24-19.82,42.17l-2.08,1.96,2.41,1.53,12.5,7.91,1.44.91,1.25-1.15c17.18-15.89,22.81-33.66,24.14-54.72v1.4h12.01c-1.32,21.37-6.81,35.24-19.23,48.96l-1.86,2.05,2.41,1.36,13.25,7.49,1.52.86,1.19-1.28c18.88-20.39,22.75-43.8,22.75-72.68v-2.21h0Z"/>
</svg>