<?xml version="1.0" encoding="UTF-8"?>
<svg id="_레이어_1" data-name="레이어 1" xmlns="http://www.w3.org/2000/svg" viewBox="0 0 145.37 157.08">
  <defs>
    <style>
      .cls-1 {
        fill: #fff;
      }

      .cls-2 {
        fill: #1f8331;
      }
    </style>
  </defs>
  <path class="cls-2" d="M19.96,118.2v-13.24h43.2v-14.85H28.63v-13.14h14.85v-24.95h-15.47v-13.14h88.86v13.14h-15.47v24.95h15.1v13.14h-34.78v14.85h43.7v13.24H19.96ZM82.97,76.96v-24.95h-21.06v24.95h21.06Z"/>
  <path class="cls-1" d="M115.76,39.98v10.93h-15.47v27.16h15.1v10.93h-34.78v17.07h43.7v11.03H21.07v-11.03h43.2v-17.07H29.73v-10.93h14.85v-27.16h-15.47v-10.93h86.65M60.8,78.07h23.27v-27.16h-23.27v27.16M117.97,37.77H26.9v15.35h15.47v22.74h-14.85v15.35h34.54v12.64H18.86v15.46h107.66v-15.46h-43.7v-12.64h34.78v-15.35h-15.1v-22.74h15.47v-15.35h0ZM63.02,53.12h18.85v22.74h-18.85v-22.74h0Z"/>
</svg>