<?xml version="1.0" encoding="UTF-8"?>
<svg id="_레이어_1" data-name="레이어 1" xmlns="http://www.w3.org/2000/svg" viewBox="0 0 415.95 415.95">
  <defs>
    <style>
      .cls-1 {
        fill: #040000;
      }

      .cls-2 {
        fill: #1f8331;
        stroke: #000;
        stroke-miterlimit: 10;
        stroke-width: 1.15px;
      }
    </style>
  </defs>
  <path class="cls-2" d="M298.21,84.09c17.36-16.09,13.36-43.17-8.11-54.23-24.57-12.66-52.85-19.87-82.95-19.87s-57.06,6.88-81.22,18.99c-20.84,10.45-25.37,36.41-9.6,52.8h0c11.29,11.75,29.85,15.07,44.78,7.59,13.7-6.86,29.38-10.76,46.04-10.76s32.84,4.02,46.69,11.09c14.56,7.43,32.62,5.28,44.37-5.61h0Z"/>
  <g>
    <path class="cls-1" d="M124.11,65.62l5.02-2.79-8.04-12.49-4.35,2.42-2.09-3.25c2.26-1.86,3.53-3.37,4.57-5.23l4.16-2.32,11.41,17.72,4.26-2.37,2.74,4.25-14.94,8.31-2.74-4.25Z"/>
    <path class="cls-1" d="M143.71,57.13l1.3-4.62c2.14.81,4.32,1.08,6.32.35,2.38-.87,3.53-2.37,2.77-4.16-.87-2.05-2.56-2.84-7.93-.86l-1.7-4c4.37-1.61,5.22-3.36,4.42-5.25-.69-1.63-2.11-2.15-4-1.46-1.72.63-2.72,1.85-3.74,3.67l-4.58-2.35c1.59-2.73,3.67-4.75,6.7-5.87,5.3-1.95,9.76-.92,11.57,3.34,1.01,2.37.42,4.73-1.9,6.77l.07.16c3.2-.25,6.12.9,7.42,3.97,1.89,4.45-1.42,8.55-6.52,10.43-4.06,1.49-7.48,1.23-10.2-.11Z"/>
    <path class="cls-1" d="M174.24,29.74l-11.58,2.33-1.16-4.98,18.46-3.72.85,3.63c-4.62,8.15-4.17,12.99-2.36,22.88l-6.48,1.3c-1.41-8.34-1.27-13.9,2.28-21.45Z"/>
    <path class="cls-1" d="M189,36.02l10.45-.76.36,4.29-10.45.76-.36-4.29Z"/>
    <path class="cls-1" d="M224.87,41.72l-3.07-.17-.4,6.39-6.14-.33.4-6.39-11.54-.63.27-4.23,10.51-14.43,8.1.44-.91,14.54,3.07.17-.29,4.64ZM215.95,36.58l.24-3.75c.1-1.62.44-4.05.61-5.66h-.15c-.79,1.4-1.63,2.84-2.49,4.24l-3.46,4.88,5.25.29Z"/>
    <path class="cls-1" d="M248.44,46.43l-3-.63-1.53,6.25-6-1.27,1.53-6.25-11.27-2.38,1.01-4.13,12.93-12.63,7.91,1.67-3.48,14.2,3,.63-1.11,4.53ZM240.55,39.99l.9-3.66c.39-1.58,1.15-3.92,1.61-5.49l-.14-.03c-1.03,1.27-2.11,2.56-3.21,3.81l-4.28,4.29,5.13,1.08Z"/>
    <path class="cls-1" d="M254.9,41.54c3.58-8.16,8.98-10.8,14.36-8.76,5.38,2.04,7.26,7.51,3.71,15.61-3.58,8.16-9.12,11.04-14.51,9-5.38-2.04-7.14-7.69-3.57-15.85ZM267.21,46.21c2.84-6.47,1.95-8.37.14-9.06-1.82-.69-3.85.1-6.68,6.58-2.85,6.5-2.08,8.58-.27,9.27,1.82.69,3.96-.28,6.81-6.79Z"/>
    <path class="cls-1" d="M272.04,58.89l4.75-1.82c.59,2.07,1.67,3.86,3.5,4.9,2.18,1.24,4.16,1.2,5.25-.45,1.24-1.88.9-3.61-4.03-6.41l2.42-3.67c4.01,2.28,6.03,1.86,7.17.12.99-1.5.58-2.86-1.16-3.85-1.58-.9-3.23-.91-5.4-.57l-.74-4.82c3.3-.46,6.3-.13,9.08,1.45,4.86,2.77,6.66,6.7,4.09,10.6-1.43,2.17-3.82,3.16-6.96,2.66l-.1.15c2.14,2.23,2.9,5.08,1.05,7.9-2.69,4.08-8.21,4.09-12.88,1.43-3.73-2.12-5.56-4.82-6.04-7.64Z"/>
  </g>
  <g>
    <path class="cls-1" d="M140.45,83.1c1.52-4.18,2.37-7.33,1.48-9.02-.56-1.07-1.46-1.33-2.38-.85-.8.42-1.15,1.28-1.38,2.17l-2.31-.7c.51-1.81,1.26-2.96,2.92-3.84,2.26-1.19,4.58-.57,5.75,1.66,1.05,2.01.49,5.12-.35,7.86.54-.38,1.3-.88,1.81-1.15l2.15-1.13,1.24,2.35-8.08,4.25-.84-1.6Z"/>
    <path class="cls-1" d="M169.02,69.49l-1.4.45,1.01,3.13-2.8.9-1.01-3.13-5.25,1.7-.67-2.07,2-8.73,3.69-1.19,2.3,7.12,1.4-.45.73,2.27ZM164.09,68.57l-.59-1.84c-.25-.79-.56-2.01-.78-2.82l-.07.02c-.09.81-.19,1.64-.32,2.47l-.63,2.94,2.39-.77Z"/>
    <path class="cls-1" d="M186.94,57.46c.37,3.09,1.66,5.98,4.84,6.88l-1.36,2.48c-1.92-.59-3.27-1.87-4.21-3.59-.46,2.07-1.5,3.83-3.36,4.95l-1.95-2.15c2.94-1.66,3.57-4.97,3.18-8.22l-.25-2.07,2.86-.34.25,2.07ZM193.62,53.31l2,16.56-2.85.34-1.99-16.56,2.84-.34Z"/>
    <path class="cls-1" d="M218.5,55.03c-.44,4.61-3.36,7.45-8.52,8.32l-.95-2.33c3.61-.58,5.58-2.08,6.16-4.05l-4.98-.48.21-2.24,8.08.77ZM213.72,67.53l8.51.81-.21,2.24-11.36-1.08.55-5.76,2.85.27-.34,3.52ZM224.75,58.84l-.22,2.31-2.08-.2-.48,5-2.85-.27,1.12-11.71,2.85.27-.42,4.4,2.08.2Z"/>
    <path class="cls-1" d="M250.84,72.73l-5.86-1.89-1.68,5.22-2.73-.88,1.68-5.22-5.73-1.84.7-2.17,14.3,4.61-.68,2.18ZM250.35,69.23c-2.72-1.32-4.16-3.13-4.66-5.03-1.52,1.26-3.75,1.88-6.72,1.37l-.34-2.51c4.22.76,6.15-.97,6.68-2.61l.22-.67,2.9.93-.22.67c-.53,1.63.03,4.17,3.9,6.02l-1.74,1.84Z"/>
    <path class="cls-1" d="M266.1,79.32c2.07,1.16,3.8,2.01,5.78,2.73l-.91,2.13c-2.4-.86-4.55-2-7.24-3.56l-1.32-.76,3.54-6.12,4.32,2.5,1.11-1.91-4.33-2.51,1.13-1.94,6.86,3.97-3.35,5.79-4.32-2.5-1.27,2.19ZM280.18,75.27l-8.35,14.44-2.48-1.44,8.35-14.43,2.48,1.43Z"/>
  </g>
</svg>