<?xml version="1.0" encoding="UTF-8"?>
<svg id="_레이어_1" data-name="레이어 1" xmlns="http://www.w3.org/2000/svg" viewBox="0 0 145.37 157.08">
  <defs>
    <style>
      .cls-1 {
        fill: #fff;
      }

      .cls-2 {
        fill: #1f8331;
      }
    </style>
  </defs>
  <path class="cls-2" d="M100.86,127.72V29.35h18.55v98.37h-18.55ZM57.03,106.8c-18.58,0-31.06-14.25-31.06-35.45s12.48-35.24,31.06-35.24,31.06,14.16,31.06,35.24-12.48,35.45-31.06,35.45ZM57.03,50.71c-8.22,0-13.13,7.72-13.13,20.64s4.91,20.75,13.13,20.75,13.13-7.76,13.13-20.75-4.91-20.64-13.13-20.64Z"/>
  <path class="cls-1" d="M118.3,30.46v96.16h-16.34V30.46h16.34M57.03,37.22c17.21,0,29.95,13.11,29.95,34.13s-12.75,34.34-29.95,34.34-29.96-13.22-29.96-34.34,12.75-34.13,29.96-34.13M57.03,93.21c8.42,0,14.23-7.6,14.23-21.85s-5.82-21.75-14.23-21.75-14.23,7.6-14.23,21.75,5.82,21.85,14.23,21.85M120.51,28.25h-20.76v100.58h20.76V28.25h0ZM57.03,35.01c-9.1,0-17.29,3.52-23.07,9.91-5.95,6.58-9.1,15.72-9.1,26.43s3.14,19.95,9.09,26.57c5.78,6.44,13.98,9.98,23.08,9.98s17.29-3.55,23.07-9.98c5.95-6.62,9.09-15.81,9.09-26.57s-3.15-19.85-9.1-26.43c-5.78-6.39-13.97-9.91-23.07-9.91h0ZM57.03,91c-7.53,0-12.02-7.34-12.02-19.64s4.49-19.54,12.02-19.54,12.02,7.3,12.02,19.54-4.49,19.64-12.02,19.64h0Z"/>
</svg>