<?xml version="1.0" encoding="UTF-8"?>
<svg id="_레이어_1" data-name="레이어 1" xmlns="http://www.w3.org/2000/svg" viewBox="0 0 246.61 54.91">
  <defs>
    <style>
      .cls-1 {
        fill: #1f8331;
        stroke: #000;
        stroke-miterlimit: 10;
        stroke-width: .66px;
      }
    </style>
  </defs>
  <rect class="cls-1" x=".33" y=".33" width="245.95" height="56.23"/>
  <g>
    <path d="M6.76,42.33c0-8.48,3.78-12.6,9.68-12.6s9.68,4.16,9.68,12.6-3.82,12.77-9.68,12.77-9.68-4.26-9.68-12.77ZM21.65,42.33c0-7.02-2.16-9.58-5.21-9.58s-5.21,2.56-5.21,9.58,2.16,9.74,5.21,9.74,5.21-2.66,5.21-9.74Z"/>
    <path d="M29.83,52.44c8.83-6.38,13.38-11.14,13.38-15.16,0-2.66-1.75-4.49-5.08-4.49-2.36,0-4.31,1.23-5.9,2.73l-2.64-2.13c2.56-2.26,5.21-3.66,9.11-3.66,5.49,0,9.03,2.93,9.03,7.35,0,4.72-4.6,9.61-10.94,14.56,1.55-.13,3.42-.23,4.88-.23h7.49v3.26h-19.32v-2.23Z"/>
    <path d="M53.14,43.86h10.74v2.83h-10.74v-2.83Z"/>
    <path d="M69.26,51.51h6.55v-17.02h-5.37v-2.43c2.81-.43,4.8-1,6.51-1.86h3.54v21.31h5.86v3.16h-17.09v-3.16Z"/>
    <path d="M92.45,51.51h6.55v-17.02h-5.37v-2.43c2.81-.43,4.8-1,6.51-1.86h3.54v21.31h5.86v3.16h-17.09v-3.16Z"/>
    <path d="M114.05,42.33c0-8.48,3.78-12.6,9.68-12.6s9.68,4.16,9.68,12.6-3.82,12.77-9.68,12.77-9.68-4.26-9.68-12.77ZM128.94,42.33c0-7.02-2.16-9.58-5.21-9.58s-5.21,2.56-5.21,9.58,2.16,9.74,5.21,9.74,5.21-2.66,5.21-9.74Z"/>
    <path d="M137.24,43.86h10.74v2.83h-10.74v-2.83Z"/>
    <path d="M171.82,48.08h-3.82v6.58h-4.39v-6.58h-12.94v-2.56l11.92-15.33h5.41v14.93h3.82v2.96ZM163.61,45.12v-6.42c0-1.33.16-3.39.24-4.72h-.16c-.73,1.23-1.55,2.49-2.4,3.76l-5.9,7.38h8.22Z"/>
    <path d="M174.92,48.58c0-3.22,2.6-5.39,5.37-6.58v-.17c-2.24-1.3-4.03-3.12-4.03-5.72,0-3.82,3.62-6.32,8.54-6.32,5.21,0,8.46,2.66,8.46,6.48,0,2.49-2.07,4.62-3.95,5.75v.17c2.69,1.26,5.04,3.16,5.04,6.48,0,3.62-3.91,6.42-9.68,6.42s-9.76-2.73-9.76-6.52ZM189.93,48.58c0-2.99-3.29-4.12-7.36-5.49-2.08,1.16-3.5,2.99-3.5,5.12,0,2.43,2.48,4.12,5.7,4.12s5.17-1.46,5.17-3.76ZM189.32,36.51c0-2.26-1.67-3.96-4.6-3.96-2.44,0-4.27,1.36-4.27,3.56,0,2.66,2.85,3.89,6.18,4.95,1.79-1.36,2.68-2.93,2.68-4.56Z"/>
    <path d="M199.74,51.51h6.55v-17.02h-5.37v-2.43c2.81-.43,4.8-1,6.51-1.86h3.54v21.31h5.86v3.16h-17.09v-3.16Z"/>
    <path d="M221.34,42.33c0-8.48,3.78-12.6,9.68-12.6s9.68,4.16,9.68,12.6-3.82,12.77-9.68,12.77-9.68-4.26-9.68-12.77ZM236.23,42.33c0-7.02-2.16-9.58-5.21-9.58s-5.21,2.56-5.21,9.58,2.16,9.74,5.21,9.74,5.21-2.66,5.21-9.74Z"/>
  </g>
  <g>
    <path d="M17.66,10.92c0,3.36,2.7,6.77,7.07,8.17l-2.02,1.71c-3.12-1.04-5.43-3.09-6.68-5.56-1.25,2.61-3.7,4.8-7,5.91l-2.02-1.73c4.53-1.44,7.36-5.01,7.36-8.5v-3.09h3.31v3.09ZM34.5,15.52h-4.53v9.61h-3.31V6.26h3.31v7.48h4.53v1.78Z"/>
    <path d="M54.3,16.06c-4.37.5-8.16.61-13.72.61h-2.35v-5.64h9.83v-2.03h-9.9v-1.75h13.18v5.43h-9.87v2.24c4.98-.02,8.48-.12,12.47-.61l.35,1.75ZM41.19,18.38h18.54v6.52h-18.54v-6.52ZM44.44,23.18h12.05v-3.11h-12.05v3.11ZM63.85,12.72h-4.11v4.78h-3.31V6.28h3.31v4.66h4.11v1.78Z"/>
    <path d="M82.27,16.69c-3.31-.61-5.72-1.88-6.97-3.51-1.32,1.8-3.76,3.2-7.2,3.84l-1.54-1.67c4.47-.81,7.01-2.92,7.01-5.2v-.15h-6.11v-1.71h6.11v-2.11h3.34v2.11h6.07v1.71h-6.11v.15c0,2.09,2.51,4.09,6.91,4.87l-1.51,1.67ZM81.98,19.76c.61,1.67,4.05,3.24,8.93,3.7l-1.22,1.63c-4.4-.42-7.87-1.73-9.51-3.47-1.67,1.75-5.14,3.01-9.58,3.45l-1.25-1.65c4.95-.42,8.39-1.94,8.97-3.66h-7.74v-1.71h19.15v1.71h-7.74ZM93.42,10.73v1.78h-4.11v4.62h-3.31V6.26h3.31v4.47h4.11Z"/>
    <path d="M111.38,14.3c0,4.07-3.12,6.64-7.46,6.64s-7.46-2.57-7.46-6.64,3.12-6.66,7.46-6.66,7.46,2.59,7.46,6.66ZM108.2,14.3c0-2.95-1.77-4.72-4.27-4.72s-4.27,1.78-4.27,4.72,1.74,4.72,4.27,4.72,4.27-1.78,4.27-4.72ZM123.21,15.41h-4.53v9.73h-3.31V6.26h3.31v7.37h4.53v1.78Z"/>
    <path d="M152.11,20.93v1.78h-26.32v-1.78h26.32ZM149.12,16.89h-20.12V7.91h19.89v1.75h-16.58v5.49h16.81v1.73Z"/>
    <path d="M173.32,15.77c-4.56.48-8.48.56-14.04.56h-2.44v-5.47h9.96v-1.96h-10.03v-1.75h13.27v5.35h-9.93v2.09c4.98,0,8.61-.1,12.82-.56l.39,1.75ZM175.99,17.56h3.28v7.33h-19.02v-7.33h3.31v1.94h12.44v-1.94ZM175.99,21.2h-12.44v1.96h12.44v-1.96ZM179.26,6.26v10.42h-3.31V6.26h3.31Z"/>
    <path d="M189.91,18.52c4.11-.02,8.45-.25,13.01-.86l.35,1.8c-4.98.67-9.67.9-14.17.9h-2.47v-12.26h3.28v10.42ZM208.9,6.26v18.86h-3.31V6.26h3.31Z"/>
    <path d="M218.96,18.71c4.69-.02,8.23-.15,12.28-.61l.35,1.78c-4.4.52-8.32.63-13.56.63h-2.38v-12.47h13.5v1.75h-10.19v8.92ZM241.49,15.29h-4.53v9.86h-3.31V6.24h3.31v7.27h4.53v1.78Z"/>
  </g>
</svg>