<?xml version="1.0" encoding="UTF-8"?>
<svg id="_레이어_1" data-name="레이어 1" xmlns="http://www.w3.org/2000/svg" viewBox="0 0 373.57 238.34">
  <defs>
    <style>
      .cls-1 {
        stroke-width: 1.19px;
      }

      .cls-1, .cls-2, .cls-3 {
        fill: #1f8331;
        stroke: #000;
        stroke-miterlimit: 10;
      }

      .cls-2 {
        stroke-width: 1.13px;
      }

      .cls-3 {
        stroke-width: 1.12px;
      }
    </style>
  </defs>
  <rect class="cls-1" x=".91" y=".08" width="372.67" height="238.26" rx="7.58" ry="7.58"/>
  <rect class="cls-2" x="9.97" y="11.2" width="353.64" height="47.73" rx="7.58" ry="7.58"/>
  <rect class="cls-2" x="9.97" y="62.51" width="353.64" height="33.35" rx="7.58" ry="7.58"/>
  <rect class="cls-2" x="9.97" y="99.32" width="353.64" height="47.51" rx="7.58" ry="7.58"/>
  <rect class="cls-3" x="9.97" y="149.52" width="353.64" height="33.41" rx="7.58" ry="7.58"/>
  <rect class="cls-2" x="9.97" y="185.67" width="211.02" height="42.46" rx="7.58" ry="7.58"/>
  <rect class="cls-2" x="224.41" y="185.67" width="139.2" height="42.46" rx="7.58" ry="7.58"/>
  <g>
    <path d="M19.48,47.28c-.72-10.47,1.66-15.81,5.73-16.1,4.06-.28,7.19,4.76,7.91,15.15.72,10.47-1.67,16.14-5.73,16.42-4.06.28-7.18-5.01-7.91-15.48ZM28.77,46.64c-.57-8.3-1.8-9.94-3.18-9.85s-2.34,1.89-1.77,10.19c.58,8.34,1.8,10.23,3.17,10.14s2.35-2.14,1.77-10.48Z"/>
    <path d="M48.89,54.79l4.09-.28-1.2-17.3-3.55.24-.31-4.5c2.03-.76,3.32-1.67,4.57-3.07l3.39-.23,1.7,24.54,3.47-.24.41,5.89-12.16.84-.41-5.89Z"/>
    <path d="M75.07,43.44c-.72-10.47,1.66-15.81,5.73-16.1s7.19,4.76,7.91,15.15c.72,10.47-1.67,16.14-5.73,16.42-4.06.28-7.18-5.01-7.91-15.48ZM84.36,42.8c-.57-8.3-1.8-9.94-3.18-9.85s-2.34,1.89-1.77,10.19c.58,8.34,1.8,10.23,3.17,10.14s2.35-2.14,1.77-10.48Z"/>
    <path d="M103.17,42.49l7.32-.51.35,5.11-7.32.51-.35-5.11Z"/>
    <path d="M135.26,31.56c-.7-1.02-1.96-2-3.02-1.93-1.99.14-3.42,2.5-3.14,9.14.82-1.99,2.38-3.16,3.47-3.24,3.21-.22,5.85,2.55,6.3,9.18.45,6.46-2.19,10.51-5.63,10.75-3.62.25-7.5-3.96-8.27-15.05-.76-11,2.57-16.29,6.55-16.56,2.54-.18,4.52,1.37,5.87,3.25l-2.14,4.46ZM134.65,45c-.23-3.35-1.34-4.39-2.61-4.3-.96.07-1.89.87-2.53,2.93.74,5.05,2.03,6.48,3.25,6.39s2.13-1.59,1.89-5.02Z"/>
    <path d="M163.05,29.64c-.7-1.02-1.96-2-3.02-1.93-1.99.14-3.42,2.5-3.14,9.14.82-1.99,2.38-3.16,3.47-3.24,3.21-.22,5.85,2.55,6.3,9.18.45,6.46-2.19,10.51-5.63,10.75-3.62.25-7.5-3.96-8.27-15.05s2.57-16.29,6.55-16.56c2.54-.18,4.52,1.37,5.87,3.25l-2.14,4.46ZM162.45,43.08c-.23-3.35-1.34-4.39-2.61-4.3-.96.07-1.89.87-2.53,2.93.74,5.05,2.03,6.48,3.25,6.39s2.13-1.59,1.89-5.02Z"/>
    <path d="M181.13,43.97c-.26-3.8.95-6.27,2.63-7.91v-.2c-1.64-1.66-2.81-3.92-3.03-7.15-.35-5.07,1.97-8.4,5.54-8.64,3.47-.24,5.99,2.79,6.33,7.74.2,2.9-.75,5.39-1.97,6.92v.2c1.96,1.39,3.53,3.83,3.82,8,.32,4.7-2.12,8.45-6.16,8.73-3.78.26-6.83-2.86-7.16-7.68ZM190.16,42.93c-.18-2.66-1.74-3.7-4.2-5.13-.69,1.24-1.09,3.12-.95,5.04.17,2.5,1.54,3.84,3.04,3.74,1.32-.09,2.28-1.23,2.11-3.64ZM188.9,28.55c-.15-2.21-1.05-3.54-2.42-3.45-1.04.07-1.87,1.16-1.72,3.32.17,2.41,1.45,3.64,3.42,4.7.63-1.44.83-3.02.72-4.57Z"/>
    <path d="M208.6,46.01l1.78-4.73c1.2,1.56,2.63,2.74,4.16,2.63,1.86-.13,2.92-1.8,2.7-4.95s-1.49-4.62-3.15-4.51c-1.06.07-1.56.44-2.62,1.66l-2.16-1.95-.55-15.09,10.82-.75.42,6.05-6.86.47.07,5.17c.67-.5,1.23-.7,1.95-.75,3.26-.23,6.21,2.61,6.67,9.2.47,6.83-2.51,11.02-6.22,11.28-3.08.21-5.33-1.48-7.02-3.75Z"/>
    <path d="M236.3,33.29l7.32-.51.35,5.11-7.32.51-.35-5.11Z"/>
    <path d="M259.56,40.23l4.09-.28-1.2-17.3-3.55.24-.31-4.5c2.03-.76,3.32-1.67,4.57-3.07l3.39-.23,1.7,24.54,3.47-.24.41,5.89-12.16.84-.41-5.89Z"/>
    <path d="M286.11,40.62l1.81-4.73c1.29,1.68,2.71,2.77,4.21,2.67,1.79-.12,2.87-1.39,2.71-3.68-.18-2.62-1.17-4.11-5.21-3.83l-.35-5.11c3.29-.23,4.21-1.89,4.04-4.31-.14-2.09-1-3.18-2.42-3.08-1.29.09-2.21,1.1-3.27,2.77l-2.64-4.3c1.62-2.5,3.44-4.02,5.72-4.18,3.98-.28,6.8,2.49,7.18,7.93.21,3.03-.66,5.47-2.64,6.92v.2c2.23.87,3.98,3.22,4.25,7.15.39,5.69-2.67,9.1-6.5,9.37-3.05.21-5.32-1.32-6.89-3.8Z"/>
    <path d="M328.1,33.77l-2.15.15.53,7.61-4.3.3-.53-7.61-8.07.56-.35-5.03,5.47-18.26,5.67-.39,1.2,17.3,2.15-.15.38,5.52ZM321.28,28.7l-.31-4.46c-.13-1.92-.2-4.84-.28-6.76h-.1c-.37,1.76-.77,3.55-1.19,5.31l-1.78,6.16,3.67-.25Z"/>
    <path d="M341.34,25.05c-.72-10.47,1.66-15.81,5.73-16.1,4.06-.28,7.19,4.76,7.91,15.15.72,10.47-1.67,16.14-5.73,16.42-4.06.28-7.18-5.01-7.91-15.48ZM350.63,24.41c-.57-8.3-1.8-9.94-3.18-9.85s-2.34,1.89-1.77,10.19c.58,8.34,1.8,10.23,3.17,10.14,1.37-.09,2.35-2.14,1.77-10.48Z"/>
  </g>
  <g>
    <path d="M16.51,205.62c0-5.86,2.67-8.71,6.83-8.71s6.83,2.87,6.83,8.71-2.7,8.83-6.83,8.83-6.83-2.94-6.83-8.83ZM27.01,205.62c0-4.85-1.52-6.62-3.67-6.62s-3.67,1.77-3.67,6.62,1.52,6.74,3.67,6.74,3.67-1.84,3.67-6.74Z"/>
    <path d="M34.6,211.97h4.62v-11.77h-3.79v-1.68c1.98-.3,3.38-.69,4.59-1.29h2.5v14.74h4.13v2.18h-12.05v-2.18Z"/>
    <path d="M50.45,205.62c0-5.86,2.67-8.71,6.83-8.71s6.83,2.87,6.83,8.71-2.7,8.83-6.83,8.83-6.83-2.94-6.83-8.83ZM60.95,205.62c0-4.85-1.52-6.62-3.67-6.62s-3.67,1.77-3.67,6.62,1.52,6.74,3.67,6.74,3.67-1.84,3.67-6.74Z"/>
    <path d="M67.42,206.68h7.57v1.95h-7.57v-1.95Z"/>
    <path d="M89.9,200.33c-.77-.74-2.06-1.26-3.3-1.26-2.7,0-4.93,1.63-5.08,6.46,1.23-1.22,3.07-1.95,4.59-1.95,3.56,0,5.94,1.75,5.94,5.33,0,3.36-2.87,5.54-6.31,5.54-4.02,0-7.29-2.69-7.29-8.44,0-6.51,3.82-9.11,7.97-9.11,2.35,0,4.07.8,5.28,1.82l-1.81,1.61ZM88.98,208.91c0-2.18-1.2-3.4-3.47-3.4-1.23,0-2.67.53-3.93,1.98.34,3.36,1.86,4.94,4.13,4.94,1.84,0,3.27-1.33,3.27-3.52Z"/>
    <path d="M95.22,209.95c0-2.23,1.84-3.73,3.79-4.55v-.11c-1.58-.9-2.84-2.16-2.84-3.96,0-2.64,2.55-4.37,6.02-4.37,3.67,0,5.97,1.84,5.97,4.48,0,1.72-1.46,3.2-2.78,3.98v.12c1.89.87,3.56,2.18,3.56,4.48,0,2.51-2.75,4.44-6.83,4.44s-6.88-1.89-6.88-4.51ZM105.81,209.95c0-2.07-2.32-2.85-5.19-3.79-1.46.81-2.47,2.07-2.47,3.54,0,1.68,1.75,2.85,4.02,2.85s3.64-1.01,3.64-2.6ZM105.38,201.6c0-1.56-1.18-2.74-3.24-2.74-1.72,0-3.01.94-3.01,2.46,0,1.84,2.01,2.69,4.36,3.43,1.26-.94,1.89-2.02,1.89-3.15Z"/>
    <path d="M111.65,212.2l1.58-1.72c1.21.97,2.72,1.82,4.93,1.82,2.38,0,4.19-1.36,4.19-3.61s-1.61-3.54-4.02-3.54c-1.35,0-2.15.32-3.38.97l-1.61-.85.63-8.03h10.7v2.23h-7.83l-.49,4.35c.89-.37,1.75-.6,2.9-.6,3.53,0,6.43,1.68,6.43,5.38s-3.41,5.86-7.11,5.86c-3.33,0-5.42-1.08-6.91-2.25Z"/>
    <path d="M128.65,212.13l1.61-1.7c1.23,1.01,2.81,1.86,4.99,1.86,2.38,0,4.02-1.06,4.02-2.81,0-1.89-1.49-3.1-6.25-3.1v-1.95c4.16,0,5.54-1.26,5.54-2.97,0-1.49-1.23-2.44-3.24-2.46-1.63.02-3.01.67-4.22,1.61l-1.72-1.66c1.66-1.2,3.61-2.05,6.05-2.05,3.79,0,6.45,1.56,6.45,4.37,0,1.95-1.41,3.31-3.64,3.98v.11c2.44.48,4.36,1.95,4.36,4.23,0,3.06-3.18,4.85-7.06,4.85-3.33,0-5.48-1.06-6.88-2.32Z"/>
    <path d="M146.16,206.68h7.57v1.95h-7.57v-1.95Z"/>
    <path d="M158.14,211.97h4.62v-11.77h-3.79v-1.68c1.98-.3,3.38-.69,4.59-1.29h2.5v14.74h4.13v2.18h-12.05v-2.18Z"/>
    <path d="M173.91,212.61c6.22-4.42,9.44-7.7,9.44-10.49,0-1.84-1.23-3.1-3.59-3.1-1.66,0-3.04.85-4.16,1.89l-1.87-1.47c1.81-1.56,3.67-2.53,6.43-2.53,3.87,0,6.37,2.02,6.37,5.08,0,3.27-3.24,6.65-7.72,10.07,1.09-.09,2.41-.16,3.44-.16h5.28v2.25h-13.63v-1.54Z"/>
    <path d="M190.96,205.62c0-5.86,2.67-8.71,6.83-8.71s6.83,2.87,6.83,8.71-2.7,8.83-6.83,8.83-6.83-2.94-6.83-8.83ZM201.46,205.62c0-4.85-1.52-6.62-3.67-6.62s-3.67,1.77-3.67,6.62,1.52,6.74,3.67,6.74,3.67-1.84,3.67-6.74Z"/>
    <path d="M222.08,209.6h-2.7v4.55h-3.1v-4.55h-9.12v-1.77l8.41-10.6h3.82v10.32h2.7v2.05ZM216.28,207.55v-4.44c0-.92.11-2.35.17-3.27h-.12c-.52.85-1.09,1.72-1.69,2.6l-4.16,5.1h5.79Z"/>
  </g>
  <g>
    <path d="M34.93,80.37h-7.01v4.82h-2.61v-4.82h-6.89v-1.7h16.51v1.7ZM20.04,74.24c0-2,2.69-3.31,6.59-3.31s6.59,1.31,6.59,3.31-2.71,3.33-6.59,3.33-6.59-1.3-6.59-3.33ZM22.72,74.24c0,1.07,1.52,1.65,3.92,1.65s3.9-.58,3.9-1.65-1.52-1.63-3.9-1.63-3.92.58-3.92,1.63Z"/>
    <path d="M45.57,80c1.72-.03,3.34-.11,5.19-.35l.22,1.7c-2.36.34-4.37.38-6.65.38h-1.29v-5.87h3.9v-2.3h-3.92v-1.68h6.45v5.65h-3.9v2.48ZM52,70.68h2.42v13.8h-2.42v-7.31h-1.8v-1.73h1.8v-4.75ZM58.17,70.41v14.74h-2.47v-14.74h2.47Z"/>
    <path d="M77.12,78.96c-2.41.37-4.63.42-8.27.42h-1.52v-7.83h8.55v1.68h-5.96v1.39h5.58v1.63h-5.58v1.46c2.93-.02,4.83-.08,6.93-.38l.28,1.63ZM71.86,83.23h9.8v1.68h-12.41v-4.56h2.61v2.88ZM83.42,74.8v1.73h-2.41v4.83h-2.61v-10.93h2.61v4.37h2.41Z"/>
    <path d="M100.03,78.29h-8.73v-6.91h2.57v1.82h3.58v-1.82h2.57v6.91ZM105.32,82.32c0,1.79-2.38,2.88-6.17,2.88s-6.16-1.09-6.16-2.88,2.38-2.88,6.16-2.88,6.17,1.07,6.17,2.88ZM97.46,74.81h-3.58v1.82h3.58v-1.82ZM102.72,82.32c0-.83-1.25-1.23-3.58-1.23s-3.56.4-3.56,1.23,1.25,1.23,3.56,1.23,3.58-.4,3.58-1.23ZM107.53,73.87v1.73h-2.41v3.52h-2.61v-8.68h2.61v3.43h2.41Z"/>
    <path d="M131.37,80.16h-6.99v5.03h-2.61v-5.03h-6.87v-1.71h16.47v1.71ZM129.79,77.36c-3.19-.38-5.46-1.58-6.63-3.17-1.17,1.58-3.46,2.79-6.65,3.17l-.99-1.7c4.16-.46,6.23-2.37,6.23-4.1v-.7h2.79v.7c0,1.71,2.1,3.63,6.23,4.1l-.99,1.7Z"/>
    <path d="M141.65,78.6c0-.77.69-1.36,1.59-1.36s1.58.59,1.58,1.36-.68,1.33-1.58,1.33-1.59-.59-1.59-1.33Z"/>
    <path d="M164.52,78.26c-2.06-.48-3.46-1.49-4.29-2.75-.83,1.38-2.3,2.48-4.43,3.01l-1.31-1.66c2.89-.69,4.22-2.29,4.35-3.95h-3.64v-1.66h9.92v1.66h-3.58c.14,1.55,1.48,3.07,4.25,3.73l-1.27,1.63ZM166.97,79.06h2.59v5.94h-12.11v-5.94h2.59v1.34h6.93v-1.34ZM166.97,82.02h-6.93v1.3h6.93v-1.3ZM169.56,70.44v7.99h-2.63v-7.99h2.63Z"/>
    <path d="M195.02,80.16h-6.99v5.03h-2.61v-5.03h-6.87v-1.71h16.47v1.71ZM193.44,77.36c-3.19-.38-5.46-1.58-6.63-3.17-1.17,1.58-3.46,2.79-6.65,3.17l-.99-1.7c4.16-.46,6.23-2.37,6.23-4.1v-.7h2.79v.7c0,1.71,2.1,3.63,6.23,4.1l-.99,1.7Z"/>
    <path d="M206.29,80.03c2.77-.02,5.07-.13,7.64-.48l.28,1.71c-2.97.42-5.64.51-8.95.51h-1.64v-6.07h5.92v-2.35h-5.94v-1.68h8.61v5.7h-5.92v2.66ZM217.81,70.41v14.79h-2.61v-14.79h2.61Z"/>
    <path d="M229.42,78.6c0-.77.69-1.36,1.59-1.36s1.58.59,1.58,1.36-.68,1.33-1.58,1.33-1.59-.59-1.59-1.33Z"/>
    <path d="M258.7,80.08h-7.03v5.11h-2.61v-5.11h-6.87v-1.71h16.51v1.71ZM256.97,76.7h-12.73v-5.62h2.61v3.94h10.11v1.68Z"/>
    <path d="M282.79,80.16h-6.99v5.03h-2.61v-5.03h-6.87v-1.71h16.47v1.71ZM281.21,77.36c-3.19-.38-5.46-1.58-6.63-3.17-1.17,1.58-3.46,2.79-6.65,3.17l-.99-1.7c4.16-.46,6.23-2.37,6.23-4.1v-.7h2.79v.7c0,1.71,2.1,3.63,6.23,4.1l-.99,1.7Z"/>
    <path d="M300.89,78.14c-2.43.35-4.65.42-8.27.42h-1.52v-7.28h8.55v1.68h-5.96v1.12h5.58v1.63h-5.58v1.18c2.93-.02,4.81-.08,6.93-.4l.28,1.65ZM292.92,79.68h11.85v5.31h-11.85v-5.31ZM295.49,83.35h6.73v-2h-6.73v2ZM307.18,75.61h-2.41v3.44h-2.61v-8.61h2.61v3.44h2.41v1.73Z"/>
    <path d="M321.58,74.4c0,2.4,1.46,4.95,4.51,5.97l-1.43,1.66c-2.12-.74-3.56-2.18-4.37-3.95-.81,1.92-2.28,3.54-4.41,4.32l-1.48-1.68c3.05-1.1,4.53-3.81,4.53-6.32v-.82h-3.8v-1.75h10.21v1.75h-3.76v.82ZM329.64,70.43v14.74h-2.61v-14.74h2.61Z"/>
    <path d="M348.41,71.95c0,4.51-1.88,8.2-8.35,10.72l-1.37-1.66c4.65-1.81,6.67-4.11,7.05-7.38h-6.08v-1.68h8.75ZM353.83,70.41v14.74h-2.63v-14.74h2.63Z"/>
  </g>
  <g>
    <path d="M248.3,208.69h-14.03v-13.5h14.03v13.5ZM241.81,217.21h15.82v3.19h-20.04v-9.09h4.22v5.9ZM244.14,198.35h-5.75v7.18h5.75v-7.18ZM260.47,200.97v3.29h-3.9v9.06h-4.22v-20.44h4.22v8.09h3.9Z"/>
    <path d="M280.02,207.14v1.76h7.99v7.18h-16.1v1.58h16.87v3.01h-21.06v-7.36h16.14v-1.46h-16.17v-2.95h8.12v-1.76h-11.15v-3.16h26.59v3.16h-11.22ZM287.84,202.49h-19.91v-8.79h19.91v8.79ZM283.72,196.77h-11.66v2.65h11.66v-2.65Z"/>
    <path d="M322.54,214.38v3.25h-26.65v-3.25h11.18v-5.14h-8.37v-14.63h4.19v4.35h12.59v-4.35h4.15v14.63h-8.34v5.14h11.25ZM302.88,206.05h12.59v-3.92h-12.59v3.92Z"/>
    <path d="M353.74,211.37h-11.28v9.55h-4.22v-9.55h-11.09v-3.25h26.59v3.25ZM351.18,206.05c-5.14-.73-8.82-3.01-10.7-6.02-1.88,3.01-5.59,5.29-10.74,6.02l-1.6-3.22c6.71-.88,10.07-4.5,10.07-7.79v-1.34h4.5v1.34c0,3.25,3.39,6.9,10.07,7.79l-1.6,3.22Z"/>
  </g>
  <g>
    <path d="M25.78,147.17l3.76.16-.17,4.08-10.74-.46.17-4.08,3.78.16.16-3.69,3.2.14-.16,3.69ZM28.44,159.99c-.18,4.27-2.37,7.23-5.12,7.12s-4.67-3.26-4.49-7.53,2.37-7.23,5.12-7.12c2.75.12,4.68,3.26,4.49,7.53ZM25.4,159.86c.09-2.09-.58-3.18-1.63-3.22-1.03-.04-1.8.98-1.89,3.07-.09,2.09.6,3.18,1.62,3.22,1.05.04,1.81-.98,1.89-3.07ZM35.57,159.04l-2.45-.1-.62,14.42-3.2-.14,1.28-30.09,3.2.14-.49,11.43,2.45.1-.18,4.24Z"/>
    <path d="M81.16,165.52l-6.88-.29-.42,9.95-3.2-.14.42-9.95-6.72-.29.18-4.14,16.79.72-.16,4.14ZM79.69,159.67c-3.31-.91-5.37-3.32-6.42-6.39-1.31,2.97-3.57,5.19-6.94,5.82l-1.05-4.19c4.79-.82,6.43-4.84,6.56-7.96l.05-1.28,3.4.15-.05,1.28c-.13,3.11,1.16,7.26,5.86,8.49l-1.4,4.09Z"/>
    <path d="M127.35,165.82l-6.88-.29-.49,11.59-3.24-.14.49-11.59-6.66-.28.18-4.14,11.33.48c.54-3.48.72-6.21.85-8.68l-9.99-.43.17-4.08,13.13.56-.12,2.7c-.12,2.79-.25,5.91-.88,10.06l2.29.1-.18,4.14Z"/>
    <path d="M159.5,165.16c.07-1.74.91-3.09,1.97-3.04s1.78,1.46,1.7,3.2-.91,3.06-1.97,3.01-1.78-1.46-1.7-3.17Z"/>
    <path d="M205.14,160.58c-.17,3.88.6,8.58,3.35,10.78l-1.67,3.5c-1.71-1.34-2.77-3.78-3.37-6.65-.81,3.15-2.13,5.71-4.03,7.01l-1.4-3.64c2.95-2.04,4.12-6.89,4.31-11.13l.02-.48-3.17-.14.16-3.71,9,.38-.16,3.71-3.01-.13-.02.48ZM213.63,167.78l-2.18-.09-.55,12.93-2.8-.12,1.12-26.36,2.8.12-.41,9.72,2.18.09-.16,3.71Z"/>
    <path d="M260.69,168.41l-.15,3.57-14.72-.63.15-3.57,5.95.25.07-1.71-4.22-.18.4-9.27,11.28.48-.15,3.54-8.5-.36-.09,2.19,8.57.37-.15,3.54-4.33-.18-.07,1.71,5.97.25ZM258.54,177.81c-.13,3.12-2.37,4.82-5.9,4.67s-5.6-2.04-5.47-5.16c.13-3.15,2.37-4.85,5.89-4.7s5.62,2.04,5.48,5.19ZM255.7,177.69c.05-1.1-.82-1.55-2.79-1.64s-2.86.3-2.9,1.4.8,1.53,2.77,1.61,2.87-.27,2.92-1.37Z"/>
    <path d="M302.87,172.27c-3.19.74-6.76.7-9.52.58l-.1-3.64,1.49.06.28-6.46-1.11-.05.15-3.57,8.67.37-.15,3.57-1.11-.05-.26,6.07c.54-.03,1.1-.09,1.62-.18l.05,3.3ZM295.79,174.25l10.99.47-.41,9.69-10.99-.47.41-9.69ZM297.42,169.31c.36.02.73,0,1.09,0l.27-6.32-1.09-.05-.27,6.38ZM298.27,180.55l5.5.23.11-2.67-5.5-.23-.11,2.67ZM307.47,158.33l-.66,15.37-2.8-.12.24-5.59-1.94-.08.15-3.57,1.94.08.27-6.21,2.8.12Z"/>
    <path d="M354.9,180.2l-.16,3.65-14.69-.63.16-3.65,14.69.63ZM343.9,165.52l-2.04-.09.15-3.57,12.54.54-.15,3.57-2.04-.09-.31,7.25,1.97.08-.15,3.57-12.37-.53.15-3.57,1.94.08.31-7.25ZM349.58,165.76l-2.89-.12-.31,7.25,2.89.12.31-7.25Z"/>
  </g>
  <g>
    <path d="M26.66,112.95v1.5h-14.44v-1.5h6.06v-2.37h-4.54v-6.74h2.27v2h6.82v-2h2.25v6.74h-4.52v2.37h6.1ZM16.01,109.11h6.82v-1.81h-6.82v1.81Z"/>
    <path d="M38.3,109.32c-2.44,0-4.28-1.23-4.28-2.96s1.84-2.94,4.28-2.94,4.24,1.23,4.24,2.94-1.82,2.96-4.24,2.96ZM38.3,107.82c1.18,0,2.03-.53,2.03-1.46s-.85-1.46-2.03-1.46-2.06.55-2.06,1.46.88,1.46,2.06,1.46ZM47.44,114.36v1.44h-11.01v-3.57h8.35v-.78h-8.37v-1.41h10.63v3.52h-8.35v.81h8.75ZM47.04,109.5h-2.3v-6.46h2.3v6.46Z"/>
    <path d="M58.18,111.48c2.16-.01,3.98-.1,5.99-.36l.21,1.5c-2.37.31-4.49.38-7.13.38h-1.32v-5.46h4.88v-1.92h-4.92v-1.47h7.19v4.83h-4.9v2.51ZM68.72,103.03v12.94h-2.3v-6.79h-2.49v-1.5h2.49v-4.65h2.3Z"/>
    <path d="M79.7,109.54c0-.77.69-1.36,1.59-1.36s1.58.59,1.58,1.36-.68,1.33-1.58,1.33-1.59-.59-1.59-1.33Z"/>
    <path d="M107.29,112.93v1.48h-14.44v-1.48h6.01v-2.89h2.29v2.89h6.15ZM105.87,110.46c-2.81-.41-4.85-1.61-5.89-3.21-1.04,1.58-3.07,2.8-5.85,3.21l-.94-1.53c3.6-.48,5.58-2.45,5.58-4.24v-.92h2.44v.92c0,1.83,1.96,3.77,5.59,4.24l-.93,1.53Z"/>
    <path d="M122.63,110.57h-7.53v-6.67h2.27v1.96h3.03v-1.96h2.23v1.29h2.84v-2.14h2.29v9.52h-2.29v-3.14h-2.84v1.13ZM128.1,114.25v1.47h-10.88v-4.08h2.29v2.61h8.59ZM120.4,107.28h-3.03v1.82h3.03v-1.82ZM122.63,106.67v1.29h2.84v-1.29h-2.84Z"/>
    <path d="M144.54,104.38c0,3.95-1.65,7.17-7.31,9.39l-1.2-1.46c4.07-1.58,5.84-3.6,6.17-6.46h-5.32v-1.47h7.66ZM149.28,103.03v12.9h-2.3v-12.9h2.3Z"/>
    <path d="M160.33,109.54c0-.77.69-1.36,1.59-1.36s1.58.59,1.58,1.36-.68,1.33-1.58,1.33-1.59-.59-1.59-1.33Z"/>
    <path d="M181.68,110.57h-7.53v-6.67h2.27v1.96h3.03v-1.96h2.23v1.29h2.84v-2.14h2.29v9.52h-2.29v-3.14h-2.84v1.13ZM187.15,114.25v1.47h-10.88v-4.08h2.29v2.61h8.59ZM179.45,107.28h-3.03v1.82h3.03v-1.82ZM181.68,106.67v1.29h2.84v-1.29h-2.84Z"/>
    <path d="M203.59,104.38c0,3.95-1.65,7.17-7.31,9.39l-1.2-1.46c4.07-1.58,5.84-3.6,6.17-6.46h-5.32v-1.47h7.66ZM208.33,103.03v12.9h-2.3v-12.9h2.3Z"/>
    <path d="M219.38,109.54c0-.77.69-1.36,1.59-1.36s1.58.59,1.58,1.36-.68,1.33-1.58,1.33-1.59-.59-1.59-1.33Z"/>
    <path d="M237.61,106.27c0,2.09.69,4.23,2.86,5.39l-1.25,1.43c-1.35-.67-2.2-1.77-2.7-3.07-.55,1.43-1.49,2.66-2.93,3.36l-1.37-1.39c2.34-1.15,3.19-3.46,3.19-5.66v-2.17h2.2v2.1ZM240.8,103.26h2.13v12.12h-2.13v-6.47h-1.99v-1.5h1.99v-4.15ZM246.2,103.05v12.9h-2.17v-12.9h2.17Z"/>
    <path d="M262.27,110.39h-7.52v-6.3h7.52v.99h2.88v-2.03h2.29v9.4h-2.29v-3.12h-2.88v1.06ZM267.78,114.25v1.47h-10.88v-4.16h2.29v2.69h8.59ZM260.04,105.52h-3.03v3.4h3.03v-3.4ZM262.27,106.55v1.3h2.88v-1.3h-2.88Z"/>
    <path d="M278.38,111.52c1.49-.03,2.84-.1,4.36-.32l.17,1.5c-1.94.29-3.64.35-5.68.35h-1.11v-8.52h5.91v1.5h-3.65v5.49ZM289.36,103.03v12.92h-2.17v-6.46h-1.44v5.86h-2.13v-12.06h2.13v4.72h1.44v-4.97h2.17Z"/>
    <path d="M300,109.54c0-.77.69-1.36,1.59-1.36s1.58.59,1.58,1.36-.68,1.33-1.58,1.33-1.59-.59-1.59-1.33Z"/>
    <path d="M316.06,111.55c2.25-.01,4.09-.08,6.17-.34l.21,1.47c-2.42.29-4.57.35-7.31.35h-1.35v-8.92h7.5v1.5h-5.21v2.1h4.99v1.44h-4.99v2.4ZM327.95,109.46h-2.32v6.5h-2.29v-12.92h2.29v4.89h2.32v1.53Z"/>
    <path d="M339.23,109.32c-2.44,0-4.28-1.23-4.28-2.96s1.84-2.94,4.28-2.94,4.24,1.23,4.24,2.94-1.82,2.96-4.24,2.96ZM339.23,107.82c1.18,0,2.03-.53,2.03-1.46s-.85-1.46-2.03-1.46-2.06.55-2.06,1.46.88,1.46,2.06,1.46ZM348.37,114.36v1.44h-11.01v-3.57h8.35v-.78h-8.37v-1.41h10.63v3.52h-8.35v.81h8.75ZM347.97,109.5h-2.3v-6.46h2.3v6.46Z"/>
  </g>
  <g>
    <path d="M21.54,131.27c-2.62.43-5.06.56-7.31.56h-1.37v-6.33h2.29v4.79c1.9-.03,3.97-.15,6.11-.5l.28,1.48ZM16.79,135.85h8.5v1.47h-10.79v-4.26h2.29v2.79ZM26.89,128.26v1.56h-2.11v4.1h-2.29v-9.27h2.29v3.61h2.11Z"/>
    <path d="M39.5,130.87h-7.64v-5.66h2.25v1.54h3.13v-1.54h2.25v5.66ZM35.71,136.02h8.69v1.43h-10.96v-3.56h8.26v-.78h-8.28v-1.4h10.53v3.5h-8.24v.81ZM37.25,128.13h-3.13v1.29h3.13v-1.29ZM46.05,127.14v1.5h-2.1v2.56h-2.29v-6.56h2.29v2.49h2.1Z"/>
    <path d="M53.33,131.15c0-.77.69-1.36,1.59-1.36s1.58.59,1.58,1.36-.68,1.33-1.58,1.33-1.59-.59-1.59-1.33Z"/>
    <path d="M68.72,125.78h2.1v8.71h-6.29v-8.71h2.15v2.91h2.04v-2.91ZM68.72,130.14h-2.04v2.89h2.04v-2.89ZM77.76,124.63v12.9h-2.17v-6.49h-1.33v5.93h-2.13v-12.13h2.13v4.72h1.33v-4.93h2.17Z"/>
    <path d="M92.97,132.01c-3.29.49-7,.55-9.73.56l-.21-1.47c.88,0,1.87,0,2.91-.01v-2.51h2.23v2.44c1.58-.06,3.17-.15,4.66-.32l.14,1.32ZM89.54,129.97c.26-1.2.33-2.14.35-2.91h-5.94v-1.47h8.19v.8c0,.9,0,2.17-.36,3.8l-2.23-.21ZM87.64,135.85h8.85v1.47h-11.14v-3.88h2.29v2.41ZM97.89,128.57v1.53h-1.91v4.2h-2.29v-9.67h2.29v3.94h1.91Z"/>
    <path d="M105.19,131.15c0-.77.69-1.36,1.59-1.36s1.58.59,1.58,1.36-.68,1.33-1.58,1.33-1.59-.59-1.59-1.33Z"/>
    <path d="M130.38,131.26v1.46h-5.89v2.03h-2.29v-2.03h-6.29v-1.46h14.46ZM119.88,135.85h8.9v1.47h-11.19v-3.54h2.29v2.07ZM128.52,130.36h-10.75v-5.31h2.27v1.32h6.22v-1.32h2.27v5.31ZM126.26,127.76h-6.22v1.16h6.22v-1.16Z"/>
    <path d="M139.75,125.78h2.1v8.71h-6.29v-8.71h2.15v2.91h2.04v-2.91ZM139.75,130.14h-2.04v2.89h2.04v-2.89ZM148.8,124.63v12.9h-2.17v-6.49h-1.33v5.93h-2.13v-12.13h2.13v4.72h1.33v-4.93h2.17Z"/>
    <path d="M162.83,125.98c0,3.95-1.65,7.17-7.31,9.39l-1.2-1.46c4.07-1.58,5.84-3.6,6.17-6.46h-5.32v-1.47h7.66ZM167.58,124.63v12.9h-2.3v-12.9h2.3Z"/>
    <path d="M176.23,131.15c0-.77.69-1.36,1.59-1.36s1.58.59,1.58,1.36-.68,1.33-1.58,1.33-1.59-.59-1.59-1.33Z"/>
    <path d="M201.4,133.16h-6.11v4.4h-2.29v-4.4h-6.01v-1.5h14.41v1.5ZM200.01,130.71c-2.79-.34-4.78-1.39-5.8-2.77-1.02,1.39-3.03,2.44-5.82,2.77l-.87-1.48c3.64-.41,5.46-2.07,5.46-3.59v-.62h2.44v.62c0,1.5,1.84,3.18,5.46,3.59l-.87,1.48Z"/>
    <path d="M220.59,134.58v1.51h-14.44v-1.51h6.06v-2.69h-4.38v-6.36h11.1v1.48h-8.8v3.39h8.92v1.48h-4.55v2.69h6.1Z"/>
    <path d="M239.77,130.66v1.47h-14.43v-1.47h6.04v-1.37h-4.28v-4.44h2.29v2.97h8.78v1.47h-4.5v1.37h6.1ZM226.96,133.11h11.05v4.45h-2.29v-2.97h-8.76v-1.48Z"/>
    <path d="M253.41,128.34c0,1.81-1.85,3.1-4.33,3.1s-4.35-1.29-4.35-3.1,1.87-3.11,4.35-3.11,4.33,1.29,4.33,3.11ZM246.97,128.34c0,.97.9,1.56,2.11,1.56s2.1-.59,2.1-1.56-.9-1.57-2.1-1.57-2.11.59-2.11,1.57ZM257.76,132.53v4.86h-10.62v-4.86h10.62ZM249.39,133.97v1.98h6.13v-1.98h-6.13ZM257.76,124.65v7.31h-2.3v-7.31h2.3Z"/>
    <path d="M266.44,131.15c0-.77.69-1.36,1.59-1.36s1.58.59,1.58,1.36-.68,1.33-1.58,1.33-1.59-.59-1.59-1.33Z"/>
    <path d="M291.58,130.42v1.46h-14.36v-1.46h5.32v-2.26h2.29v2.26h6.75ZM289.97,135.12c0,1.5-2.22,2.42-5.66,2.42s-5.65-.92-5.65-2.42,2.22-2.44,5.65-2.44,5.66.92,5.66,2.44ZM287.18,129.55c.36-1.15.42-2.02.42-2.87h-8.76v-1.46h11.05v1.06c0,1.02,0,2.12-.45,3.45l-2.25-.18ZM287.7,135.12c0-.7-1.23-1.05-3.39-1.05s-3.38.35-3.38,1.05,1.23,1.04,3.38,1.04,3.39-.35,3.39-1.04Z"/>
    <path d="M302.24,127.52c0,2.33,1.12,4.66,3.69,5.69l-1.39,1.46c-1.66-.69-2.79-1.93-3.45-3.47-.69,1.64-1.89,3-3.69,3.71l-1.37-1.5c2.68-1.02,3.9-3.49,3.9-5.88v-1.88h2.3v1.88ZM311.17,131.15h-2.32v6.4h-2.29v-12.9h2.29v4.96h2.32v1.54Z"/>
    <path d="M320.05,130.92c-2.44,0-4.28-1.23-4.28-2.96s1.84-2.94,4.28-2.94,4.24,1.23,4.24,2.94-1.82,2.96-4.24,2.96ZM320.05,129.42c1.18,0,2.03-.53,2.03-1.46s-.85-1.46-2.03-1.46-2.06.55-2.06,1.46.88,1.46,2.06,1.46ZM329.19,135.96v1.44h-11.01v-3.57h8.35v-.78h-8.37v-1.41h10.63v3.52h-8.35v.81h8.75ZM328.79,131.1h-2.3v-6.46h2.3v6.46Z"/>
    <path d="M343.18,131.22c-1.77-.41-2.96-1.25-3.67-2.31-.71,1.16-1.99,2.14-3.84,2.58l-1.07-1.44c2.48-.62,3.65-2.12,3.74-3.45h-3.13v-1.47h8.57v1.47h-3.12c.07,1.3,1.18,2.62,3.58,3.18l-1.06,1.44ZM348.51,135.98v1.43h-10.95v-3.54h8.23v-.71h-8.26v-1.43h10.53v3.47h-8.24v.78h8.69ZM345.77,127.28v-2.63h2.29v6.56h-2.29v-2.45h-2.42v-1.47h2.42Z"/>
  </g>
</svg>