<?xml version="1.0" encoding="UTF-8"?>
<svg id="_레이어_1" data-name="레이어 1" xmlns="http://www.w3.org/2000/svg" viewBox="0 0 373.57 238.34">
  <defs>
    <style>
      .cls-1 {
        letter-spacing: .3em;
      }

      .cls-1, .cls-2 {
        font-size: 16px;
      }

      .cls-3, .cls-4 {
        font-size: 14px;
      }

      .cls-3, .cls-5 {
        font-family: SourceHanSansK-Bold-KSCpc-EUC-H, 'Source Han Sans K';
        font-weight: 700;
      }

      .cls-6 {
        letter-spacing: .3em;
      }

      .cls-7 {
        letter-spacing: .33em;
      }

      .cls-4 {
        letter-spacing: .3em;
      }

      .cls-8 {
        letter-spacing: .19em;
      }

      .cls-9 {
        stroke-width: 1.19px;
      }

      .cls-9, .cls-10, .cls-11 {
        fill: #1f8331;
        stroke: #000;
        stroke-miterlimit: 10;
      }

      .cls-10 {
        stroke-width: 1.13px;
      }

      .cls-11 {
        stroke-width: 1.12px;
      }

      .cls-12 {
        font-family: SourceHanSansK-Medium-KSCpc-EUC-H, 'Source Han Sans K';
        font-size: 23px;
        font-weight: 500;
      }

      .cls-13 {
        letter-spacing: .02em;
      }
    </style>
  </defs>
  <rect class="cls-9" x=".91" y=".08" width="372.67" height="238.26" rx="7.58" ry="7.58"/>
  <rect class="cls-10" x="9.97" y="11.2" width="353.64" height="47.73" rx="7.58" ry="7.58"/>
  <rect class="cls-10" x="9.97" y="62.51" width="353.64" height="33.35" rx="7.58" ry="7.58"/>
  <rect class="cls-10" x="9.97" y="99.32" width="353.64" height="47.51" rx="7.58" ry="7.58"/>
  <rect class="cls-11" x="9.97" y="149.52" width="353.64" height="33.41" rx="7.58" ry="7.58"/>
  <rect class="cls-10" x="9.97" y="185.67" width="211.02" height="42.46" rx="7.58" ry="7.58"/>
  <rect class="cls-10" x="224.41" y="185.67" width="139.2" height="42.46" rx="7.58" ry="7.58"/>
  <g>
    <path d="M19.48,47.28c-.72-10.47,1.66-15.81,5.73-16.1s7.19,4.76,7.91,15.15c.72,10.47-1.67,16.14-5.73,16.42s-7.18-5.01-7.91-15.48ZM28.77,46.64c-.57-8.3-1.8-9.94-3.18-9.85s-2.34,1.89-1.77,10.19c.58,8.34,1.8,10.23,3.17,10.14s2.35-2.14,1.77-10.48Z"/>
    <path d="M48.89,54.79l4.09-.28-1.2-17.3-3.55.24-.31-4.5c2.03-.76,3.32-1.67,4.57-3.07l3.39-.23,1.7,24.54,3.47-.24.41,5.89-12.16.84-.41-5.89Z"/>
    <path d="M75.07,43.44c-.72-10.47,1.66-15.81,5.73-16.1s7.19,4.76,7.91,15.15c.72,10.47-1.67,16.14-5.73,16.42s-7.18-5.01-7.91-15.48ZM84.36,42.8c-.57-8.3-1.8-9.94-3.18-9.85s-2.34,1.89-1.77,10.19c.58,8.34,1.8,10.23,3.17,10.14s2.35-2.14,1.77-10.48Z"/>
    <path d="M103.17,42.49l7.32-.51.35,5.11-7.32.51-.35-5.11Z"/>
    <path d="M135.26,31.56c-.7-1.02-1.96-2-3.02-1.93-1.99.14-3.42,2.5-3.14,9.14.82-1.99,2.38-3.16,3.47-3.24,3.21-.22,5.85,2.55,6.3,9.18s-2.19,10.51-5.63,10.75c-3.62.25-7.5-3.96-8.27-15.05s2.57-16.29,6.55-16.56c2.54-.18,4.52,1.37,5.87,3.25l-2.14,4.46ZM134.65,45c-.23-3.35-1.34-4.39-2.61-4.3-.96.07-1.89.87-2.53,2.93.74,5.05,2.03,6.48,3.25,6.39s2.13-1.59,1.89-5.02Z"/>
    <path d="M163.05,29.64c-.7-1.02-1.96-2-3.02-1.93-1.99.14-3.42,2.5-3.14,9.14.82-1.99,2.38-3.16,3.47-3.24,3.21-.22,5.85,2.55,6.3,9.18.45,6.46-2.19,10.51-5.63,10.75-3.62.25-7.5-3.96-8.27-15.05s2.57-16.29,6.55-16.56c2.54-.18,4.52,1.37,5.87,3.25l-2.14,4.46ZM162.45,43.08c-.23-3.35-1.34-4.39-2.61-4.3-.96.07-1.89.87-2.53,2.93.74,5.05,2.03,6.48,3.25,6.39s2.13-1.59,1.89-5.02Z"/>
    <path d="M181.13,43.97c-.26-3.8.95-6.27,2.63-7.91v-.2c-1.64-1.66-2.81-3.92-3.03-7.15-.35-5.07,1.97-8.4,5.54-8.64s5.99,2.79,6.33,7.74c.2,2.9-.75,5.39-1.97,6.92v.2c1.96,1.39,3.53,3.83,3.82,8,.32,4.7-2.12,8.45-6.16,8.73-3.78.26-6.83-2.86-7.16-7.68ZM190.16,42.93c-.18-2.66-1.74-3.7-4.2-5.13-.69,1.24-1.09,3.12-.95,5.04.17,2.5,1.54,3.84,3.04,3.74,1.32-.09,2.28-1.23,2.11-3.64ZM188.9,28.55c-.15-2.21-1.05-3.54-2.42-3.45-1.04.07-1.87,1.16-1.72,3.32.17,2.41,1.45,3.64,3.42,4.7.63-1.44.83-3.02.72-4.57Z"/>
    <path d="M208.6,46.01l1.78-4.73c1.2,1.56,2.63,2.74,4.16,2.63,1.86-.13,2.92-1.8,2.7-4.95s-1.49-4.62-3.15-4.51c-1.06.07-1.56.44-2.62,1.66l-2.16-1.95-.55-15.09,10.82-.75.42,6.05-6.86.47.07,5.17c.67-.5,1.23-.7,1.95-.75,3.26-.23,6.21,2.61,6.67,9.2s-2.51,11.02-6.22,11.28c-3.08.21-5.33-1.48-7.02-3.75Z"/>
    <path d="M236.3,33.29l7.32-.51.35,5.11-7.32.51-.35-5.11Z"/>
    <path d="M259.56,40.23l4.09-.28-1.2-17.3-3.55.24-.31-4.5c2.03-.76,3.32-1.67,4.57-3.07l3.39-.23,1.7,24.54,3.47-.24.41,5.89-12.16.84-.41-5.89Z"/>
    <path d="M286.11,40.62l1.81-4.73c1.29,1.68,2.71,2.77,4.21,2.67,1.79-.12,2.87-1.39,2.71-3.68-.18-2.62-1.17-4.11-5.21-3.83l-.35-5.11c3.29-.23,4.21-1.89,4.04-4.31-.14-2.09-1-3.18-2.42-3.08-1.29.09-2.21,1.1-3.27,2.77l-2.64-4.3c1.62-2.5,3.44-4.02,5.72-4.18,3.98-.28,6.8,2.49,7.18,7.93.21,3.03-.66,5.47-2.64,6.92v.2c2.23.87,3.98,3.22,4.25,7.15.39,5.69-2.67,9.1-6.5,9.37-3.05.21-5.32-1.32-6.89-3.8Z"/>
    <path d="M328.1,33.77l-2.15.15.53,7.61-4.3.3-.53-7.61-8.07.56-.35-5.03,5.47-18.26,5.67-.39,1.2,17.3,2.15-.15.38,5.52ZM321.28,28.7l-.31-4.46c-.13-1.92-.2-4.84-.28-6.76h-.1c-.37,1.76-.77,3.55-1.19,5.31l-1.78,6.16,3.67-.25Z"/>
    <path d="M341.34,25.05c-.72-10.47,1.66-15.81,5.73-16.1s7.19,4.76,7.91,15.15-1.67,16.14-5.73,16.42-7.18-5.01-7.91-15.48ZM350.63,24.41c-.57-8.3-1.8-9.94-3.18-9.85s-2.34,1.89-1.77,10.19c.58,8.34,1.8,10.23,3.17,10.14s2.35-2.14,1.77-10.48Z"/>
  </g>
  <text class="cls-12" transform="translate(15.16 214.15) scale(1.25 1)"><tspan class="cls-13" x="0" y="0">010-6853-120</tspan><tspan x="153.47" y="0">4</tspan></text>
  <text class="cls-5" transform="translate(17.57 83.79) scale(1.24 1)"><tspan class="cls-1" x="0" y="0">우레탄방수</tspan><tspan class="cls-4" x="97.5" y="0">·</tspan><tspan class="cls-1" x="109.97" y="0">집수리</tspan><tspan class="cls-4" x="168.47" y="0">·</tspan><tspan class="cls-1" x="180.94" y="0">누수탐지</tspan><tspan class="cls-2" x="258.95" y="0">기</tspan></text>
  <g>
    <path d="M248.3,208.69h-14.03v-13.5h14.03v13.5ZM241.81,217.21h15.82v3.19h-20.04v-9.09h4.22v5.9ZM244.14,198.35h-5.75v7.18h5.75v-7.18ZM260.47,200.97v3.29h-3.9v9.06h-4.22v-20.44h4.22v8.09h3.9Z"/>
    <path d="M280.02,207.14v1.76h7.99v7.18h-16.1v1.58h16.87v3.01h-21.06v-7.36h16.14v-1.46h-16.17v-2.95h8.12v-1.76h-11.15v-3.16h26.59v3.16h-11.22ZM287.84,202.49h-19.91v-8.79h19.91v8.79ZM283.72,196.77h-11.66v2.65h11.66v-2.65Z"/>
    <path d="M322.54,214.38v3.25h-26.65v-3.25h11.18v-5.14h-8.37v-14.63h4.19v4.35h12.59v-4.35h4.15v14.63h-8.34v5.14h11.25ZM302.88,206.05h12.59v-3.92h-12.59v3.92Z"/>
    <path d="M353.74,211.37h-11.28v9.55h-4.22v-9.55h-11.09v-3.25h26.59v3.25ZM351.18,206.05c-5.14-.73-8.82-3.01-10.7-6.02-1.88,3.01-5.59,5.29-10.74,6.02l-1.6-3.22c6.71-.88,10.07-4.5,10.07-7.79v-1.34h4.5v1.34c0,3.25,3.39,6.9,10.07,7.79l-1.6,3.22Z"/>
  </g>
  <g>
    <path d="M25.78,147.17l3.76.16-.17,4.08-10.74-.46.17-4.08,3.78.16.16-3.69,3.2.14-.16,3.69ZM28.44,159.99c-.18,4.27-2.37,7.23-5.12,7.12s-4.67-3.26-4.49-7.53,2.37-7.23,5.12-7.12,4.68,3.26,4.49,7.53ZM25.4,159.86c.09-2.09-.58-3.18-1.63-3.22s-1.8.98-1.89,3.07.6,3.18,1.62,3.22,1.81-.98,1.89-3.07ZM35.57,159.04l-2.45-.1-.62,14.42-3.2-.14,1.28-30.09,3.2.14-.49,11.43,2.45.1-.18,4.24Z"/>
    <path d="M81.16,165.52l-6.88-.29-.42,9.95-3.2-.14.42-9.95-6.72-.29.18-4.14,16.79.72-.16,4.14ZM79.69,159.67c-3.31-.91-5.37-3.32-6.42-6.39-1.31,2.97-3.57,5.19-6.94,5.82l-1.05-4.19c4.79-.82,6.43-4.84,6.56-7.96l.05-1.28,3.4.15-.05,1.28c-.13,3.11,1.16,7.26,5.86,8.49l-1.4,4.09Z"/>
    <path d="M127.35,165.82l-6.88-.29-.49,11.59-3.24-.14.49-11.59-6.66-.28.18-4.14,11.33.48c.54-3.48.72-6.21.85-8.68l-9.99-.43.17-4.08,13.13.56-.12,2.7c-.12,2.79-.25,5.91-.88,10.06l2.29.1-.18,4.14Z"/>
    <path d="M159.5,165.16c.07-1.74.91-3.09,1.97-3.04s1.78,1.46,1.7,3.2-.91,3.06-1.97,3.01-1.78-1.46-1.7-3.17Z"/>
    <path d="M205.14,160.58c-.17,3.88.6,8.58,3.35,10.78l-1.67,3.5c-1.71-1.34-2.77-3.78-3.37-6.65-.81,3.15-2.13,5.71-4.03,7.01l-1.4-3.64c2.95-2.04,4.12-6.89,4.31-11.13l.02-.48-3.17-.14.16-3.71,9,.38-.16,3.71-3.01-.13-.02.48ZM213.63,167.78l-2.18-.09-.55,12.93-2.8-.12,1.12-26.36,2.8.12-.41,9.72,2.18.09-.16,3.71Z"/>
    <path d="M260.69,168.41l-.15,3.57-14.72-.63.15-3.57,5.95.25.07-1.71-4.22-.18.4-9.27,11.28.48-.15,3.54-8.5-.36-.09,2.19,8.57.37-.15,3.54-4.33-.18-.07,1.71,5.97.25ZM258.54,177.81c-.13,3.12-2.37,4.82-5.9,4.67s-5.6-2.04-5.47-5.16,2.37-4.85,5.89-4.7,5.62,2.04,5.48,5.19ZM255.7,177.69c.05-1.1-.82-1.55-2.79-1.64s-2.86.3-2.9,1.4.8,1.53,2.77,1.61,2.87-.27,2.92-1.37Z"/>
    <path d="M302.87,172.27c-3.19.74-6.76.7-9.52.58l-.1-3.64,1.49.06.28-6.46-1.11-.05.15-3.57,8.67.37-.15,3.57-1.11-.05-.26,6.07c.54-.03,1.1-.09,1.62-.18l.05,3.3ZM295.79,174.25l10.99.47-.41,9.69-10.99-.47.41-9.69ZM297.42,169.31c.36.02.73,0,1.09,0l.27-6.32-1.09-.05-.27,6.38ZM298.27,180.55l5.5.23.11-2.67-5.5-.23-.11,2.67ZM307.47,158.33l-.66,15.37-2.8-.12.24-5.59-1.94-.08.15-3.57,1.94.08.27-6.21,2.8.12Z"/>
    <path d="M354.9,180.2l-.16,3.65-14.69-.63.16-3.65,14.69.63ZM343.9,165.52l-2.04-.09.15-3.57,12.54.54-.15,3.57-2.04-.09-.31,7.25,1.97.08-.15,3.57-12.37-.53.15-3.57,1.94.08.31-7.25ZM349.58,165.76l-2.89-.12-.31,7.25,2.89.12.31-7.25Z"/>
  </g>
  <text class="cls-3" transform="translate(11.47 114.74) scale(1.24 1)"><tspan class="cls-7" x="0" y="0">보일러·소변기·변기·세면대·타</tspan><tspan class="cls-6" x="260.78" y="0">일</tspan></text>
  <text class="cls-3" transform="translate(11.47 136.34) scale(1.24 1)"><tspan class="cls-8" x="0" y="0">난발·배관·분배기·수도녹임·공사일</tspan><tspan x="260.79" y="0">절</tspan></text>
</svg>